<?xml version="1.0" encoding="UTF-8"?>
<svg version="1.1" xmlns="http://www.w3.org/2000/svg" width="512" height="512">
<path d="M0 0 C0.98283921 -0.00644889 1.96567842 -0.01289778 2.97830063 -0.0195421 C4.58655989 -0.01489629 4.58655989 -0.01489629 6.22730923 -0.01015663 C7.37215375 -0.01468774 8.51699827 -0.01921886 9.69653505 -0.02388728 C13.54117938 -0.03657003 17.38568276 -0.0349084 21.23034573 -0.03325844 C23.98318422 -0.03815346 26.73601277 -0.0459892 29.48884487 -0.05361366 C36.19452522 -0.07022047 42.90017041 -0.075723 49.6058696 -0.07683842 C55.05480628 -0.07778874 60.50373136 -0.08189824 65.95266438 -0.08823967 C81.39737482 -0.10584874 96.84205748 -0.11507869 112.28677804 -0.11357872 C113.53549932 -0.11345885 113.53549932 -0.11345885 114.80944729 -0.11333656 C116.05969037 -0.11321392 116.05969037 -0.11321392 117.33519088 -0.1130888 C130.85372538 -0.11227529 144.37214863 -0.13143027 157.89065094 -0.1596133 C171.76738878 -0.18831533 185.64407229 -0.20215517 199.52084059 -0.20042574 C207.31331421 -0.19976107 215.1056711 -0.20528768 222.89811802 -0.22678185 C229.530188 -0.24495812 236.1620883 -0.24937017 242.79417235 -0.235763 C246.17904187 -0.2292161 249.56358548 -0.22917755 252.94842434 -0.2464695 C256.61451639 -0.26180352 260.27974295 -0.25269161 263.94581509 -0.23720741 C265.55742042 -0.2526381 265.55742042 -0.2526381 267.20158345 -0.26838052 C274.3533583 -0.20127484 274.3533583 -0.20127484 277.71539879 2.10067368 C279.02307034 4.25726891 279.02307034 4.25726891 279.02307034 7.25726891 C282.46204373 7.23449425 285.89768164 7.15722987 289.33557034 7.06976891 C290.31203518 7.06396812 291.28850002 7.05816734 292.29455471 7.05219078 C294.96312521 6.96965767 297.41859921 6.84874999 300.02307034 6.25726891 C302.2333176 3.94152522 302.2333176 3.94152522 303.02307034 1.25726891 C305.78436179 -1.50402254 314.17656404 0.02187737 317.89807034 0.00726891 C319.20389065 -0.01335609 320.50971096 -0.03398109 321.85510159 -0.05523109 C323.10420315 -0.06038734 324.35330471 -0.06554359 325.64025784 -0.07085609 C327.36671535 -0.08487465 327.36671535 -0.08487465 329.1280508 -0.09917641 C332.02307034 0.25726891 332.02307034 0.25726891 333.92199612 1.52777672 C335.02307034 3.25726891 335.02307034 3.25726891 335.02307034 7.25726891 C342.28307034 7.25726891 349.54307034 7.25726891 357.02307034 7.25726891 C357.35307034 5.60726891 357.68307034 3.95726891 358.02307034 2.25726891 C360.87649075 -0.59615151 362.82674638 -0.00922875 366.82433987 -0.03325844 C367.52379223 -0.03997566 368.22324459 -0.04669289 368.94389248 -0.05361366 C371.26462762 -0.07266432 373.58507427 -0.07652232 375.90588284 -0.07866859 C377.52053859 -0.08509512 379.13519317 -0.09182337 380.74984646 -0.09884071 C384.14107871 -0.11083358 387.53220899 -0.11451983 390.92346096 -0.11333656 C395.25444291 -0.11313405 399.58476362 -0.14035596 403.91558933 -0.17488098 C407.25463726 -0.19720701 410.59352803 -0.20117226 413.93264294 -0.20011711 C415.52813766 -0.20246758 417.12363709 -0.21125979 418.71905804 -0.22678185 C435.65384794 -0.3760176 435.65384794 -0.3760176 443.04650784 6.00336266 C443.49252346 6.56152672 443.93853909 7.11969078 444.39807034 7.69476891 C445.0902969 8.52814781 445.0902969 8.52814781 445.79650784 9.37836266 C448.4120914 13.38503684 449.27318342 16.94010515 449.28033924 21.69154644 C449.28678813 22.77642072 449.29323703 23.861295 449.29988134 24.97904426 C449.29523553 26.75830347 449.29523553 26.75830347 449.29049587 28.57350731 C449.29502699 29.83803614 449.2995581 31.10256497 449.30422652 32.40541285 C449.31646035 35.91318535 449.31619561 39.42086249 449.31383777 42.92865145 C449.3134297 46.71267964 449.32446783 50.49667722 449.3339529 54.28069115 C449.35056604 61.69357499 449.35606259 69.10642702 449.35717766 76.51932792 C449.358128 82.54507957 449.36223758 88.57082073 449.36857891 94.59656906 C449.38619228 111.68114215 449.39541765 128.7656901 449.39391796 145.85027234 C449.39383805 146.77131216 449.39375814 147.69235199 449.3936758 148.64130211 C449.39359404 149.5634667 449.39351228 150.48563129 449.39342804 151.43574025 C449.39261514 166.38067034 449.41175351 181.32549963 449.43995254 196.27040056 C449.46867945 211.61617308 449.48249293 226.96189643 449.48076499 242.30769652 C449.48010101 250.92301386 449.48559656 259.53822555 449.50712109 268.15351868 C449.52533036 275.48887908 449.52968236 282.82408594 449.51610224 290.15945915 C449.50957121 293.90125985 449.50945991 297.64276596 449.52680874 301.38453865 C449.54543343 305.44327534 449.53298857 309.50132969 449.51754665 313.56007957 C449.52783378 314.73956022 449.53812091 315.91904086 449.54871976 317.13426334 C449.4838647 324.83921206 448.45624425 330.27878101 443.27697659 336.28070641 C442.71881252 336.72672203 442.16064846 337.17273766 441.58557034 337.63226891 C441.0299844 338.09375328 440.47439846 338.55523766 439.90197659 339.03070641 C434.2177434 342.74141165 428.94427269 342.53118317 422.35778713 342.48431969 C420.74735279 342.48475777 420.74735279 342.48475777 419.10438442 342.4852047 C415.56027007 342.4838128 412.01636666 342.46825793 408.47228909 342.45258141 C406.01320924 342.44885078 403.55412791 342.44600404 401.09504604 342.44400597 C394.62596431 342.43637341 388.15697252 342.41672804 381.68792629 342.39459801 C375.08546064 342.37413153 368.48298045 342.36500252 361.88049221 342.35492516 C348.9279799 342.33348189 335.9755299 342.29973539 323.02307034 342.25726891 C323.26736782 343.58365379 323.26736782 343.58365379 323.51660061 344.93683434 C325.05414747 353.29183124 326.58486912 361.64804397 328.1080389 370.00567436 C328.8912533 374.30182241 329.67704941 378.59746386 330.46887112 382.89203453 C331.23367695 387.04062402 331.99153688 391.19042886 332.74470425 395.34114647 C333.032492 396.92032658 333.32273175 398.49906198 333.61552334 400.07732201 C334.02685785 402.29696475 334.42925009 404.51806412 334.82971096 406.73969078 C335.06065456 408.00099815 335.29159817 409.26230553 335.52954006 410.56183434 C336.89756941 420.80530515 335.39099046 431.04043573 329.27307034 439.63226891 C322.08694026 448.14783305 314.35825677 453.55134518 303.14807034 455.13226891 C293.48617165 455.73898154 284.98821925 453.75738141 277.02307034 448.25726891 C276.40818752 447.84863609 275.79330471 447.44000328 275.15978909 447.01898766 C263.09008194 437.94663572 257.55146459 418.31922 252.02307034 406.25726891 C226.94307034 406.25726891 201.86307034 406.25726891 176.02307034 406.25726891 C171.40307034 416.15726891 166.78307034 426.05726891 162.02307034 436.25726891 C154.48795253 445.94527751 147.51267146 452.54228075 135.42932034 454.72601891 C124.9874783 456.01658365 115.89615858 453.96450897 107.02307034 448.25726891 C98.56389632 441.60548409 93.8871974 432.76416692 92.02307034 422.25726891 C91.54376996 416.96456902 92.12742055 412.24582096 94.02307034 407.25726891 C97.02307034 405.25726891 97.02307034 405.25726891 101.02307034 405.25726891 C102.01307034 398.32726891 103.00307034 391.39726891 104.02307034 384.25726891 C102.70307034 383.26726891 101.38307034 382.27726891 100.02307034 381.25726891 C98.5667868 376.49712013 99.29374773 372.23465205 100.23791409 367.45258141 C100.3725053 366.72860161 100.50709652 366.00462181 100.64576626 365.25870323 C101.07449878 362.96464102 101.51728892 360.67355947 101.96057034 358.38226891 C102.2551254 356.81994495 102.54875491 355.25744619 102.84142971 353.69476891 C103.55795026 349.88016304 104.28708355 346.06816475 105.02307034 342.25726891 C104.19057766 342.26774254 103.35808498 342.27821617 102.50036526 342.28900719 C99.40857878 342.32311333 96.31688825 342.34817967 93.22497463 342.36713219 C91.22987415 342.38212385 89.23486087 342.40753622 87.23986721 342.43305016 C85.98625393 342.43949547 84.73264065 342.44594078 83.44103909 342.45258141 C82.28370266 342.46305504 81.12636623 342.47352867 79.93395901 342.48431969 C77.02307034 342.25726891 77.02307034 342.25726891 74.02307034 340.25726891 C73.69307034 338.60726891 73.36307034 336.95726891 73.02307034 335.25726891 C66.09307034 335.25726891 59.16307034 335.25726891 52.02307034 335.25726891 C51.36307034 337.23726891 50.70307034 339.21726891 50.02307034 341.25726891 C47.53858834 342.4995099 45.83751732 342.40429751 43.0577383 342.43427086 C42.02261105 342.44710609 40.98748379 342.45994133 39.92098904 342.47316551 C38.79709774 342.48055244 37.67320644 342.48793938 36.51525784 342.49555016 C35.36067074 342.5036219 34.20608364 342.51169365 33.01650906 342.52000999 C30.56688856 342.53386244 28.11724866 342.54457938 25.66760159 342.55243492 C21.93415147 342.56960299 18.20159697 342.6134751 14.46838284 342.65765953 C12.08818101 342.66779022 9.70797166 342.67630515 7.32775784 342.68305016 C6.21601192 342.70055824 5.10426601 342.71806633 3.95883083 342.73610497 C-3.67768915 342.71490923 -9.05354945 341.64288851 -15.00036716 336.51117516 C-15.44638279 335.95301109 -15.89239841 335.39484703 -16.35192966 334.81976891 C-16.81341404 334.26418297 -17.27489841 333.70859703 -17.75036716 333.13617516 C-20.36595073 329.12950097 -21.22704275 325.57443267 -21.23419857 320.82299137 C-21.24064746 319.73811709 -21.24709635 318.65324281 -21.25374067 317.53549355 C-21.25064346 316.34932075 -21.24754626 315.16314794 -21.2443552 313.9410305 C-21.25115187 312.04423726 -21.25115187 312.04423726 -21.25808585 310.10912496 C-21.27031968 306.60135247 -21.27005494 303.09367532 -21.2676971 299.58588636 C-21.26728902 295.80185817 -21.27832716 292.0178606 -21.28781223 288.23384666 C-21.30442537 280.82096282 -21.30992192 273.40811079 -21.31103699 265.9952099 C-21.31198733 259.96945824 -21.31609691 253.94371708 -21.32243824 247.91796875 C-21.34005161 230.83339566 -21.34927698 213.74884771 -21.34777729 196.66426548 C-21.34769738 195.74322565 -21.34761747 194.82218583 -21.34753513 193.8732357 C-21.34745337 192.95107111 -21.34737161 192.02890653 -21.34728737 191.07879756 C-21.34647447 176.13386747 -21.36561284 161.18903818 -21.39381187 146.24413725 C-21.42253877 130.89836474 -21.43635226 115.55264138 -21.43462431 100.20684129 C-21.43396034 91.59152395 -21.43945589 82.97631226 -21.46098042 74.36101913 C-21.47918969 67.02565873 -21.48354168 59.69045187 -21.46996157 52.35507866 C-21.46343054 48.61327796 -21.46331924 44.87177185 -21.48066807 41.12999916 C-21.49929276 37.07126247 -21.4868479 33.01320813 -21.47140598 28.95445824 C-21.48169311 27.7749776 -21.49198024 26.59549695 -21.50257909 25.38027447 C-21.43772403 17.67532575 -20.41010358 12.2357568 -15.23083591 6.23383141 C-14.67267185 5.78781578 -14.11450779 5.34180016 -13.53942966 4.88226891 C-12.98384373 4.42078453 -12.42825779 3.95930016 -11.85583591 3.48383141 C-8.02408833 0.98244109 -4.55141394 0.00757497 0 0 Z " fill="#E5F7FB" transform="translate(41.976929664611816,28.74273109436035)"/>
<path d="M0 0 C0.98283921 -0.00644889 1.96567842 -0.01289778 2.97830063 -0.0195421 C4.58655989 -0.01489629 4.58655989 -0.01489629 6.22730923 -0.01015663 C7.37215375 -0.01468774 8.51699827 -0.01921886 9.69653505 -0.02388728 C13.54117938 -0.03657003 17.38568276 -0.0349084 21.23034573 -0.03325844 C23.98318422 -0.03815346 26.73601277 -0.0459892 29.48884487 -0.05361366 C36.19452522 -0.07022047 42.90017041 -0.075723 49.6058696 -0.07683842 C55.05480628 -0.07778874 60.50373136 -0.08189824 65.95266438 -0.08823967 C81.39737482 -0.10584874 96.84205748 -0.11507869 112.28677804 -0.11357872 C113.53549932 -0.11345885 113.53549932 -0.11345885 114.80944729 -0.11333656 C116.05969037 -0.11321392 116.05969037 -0.11321392 117.33519088 -0.1130888 C130.85372538 -0.11227529 144.37214863 -0.13143027 157.89065094 -0.1596133 C171.76738878 -0.18831533 185.64407229 -0.20215517 199.52084059 -0.20042574 C207.31331421 -0.19976107 215.1056711 -0.20528768 222.89811802 -0.22678185 C229.530188 -0.24495812 236.1620883 -0.24937017 242.79417235 -0.235763 C246.17904187 -0.2292161 249.56358548 -0.22917755 252.94842434 -0.2464695 C256.61451639 -0.26180352 260.27974295 -0.25269161 263.94581509 -0.23720741 C265.55742042 -0.2526381 265.55742042 -0.2526381 267.20158345 -0.26838052 C274.3533583 -0.20127484 274.3533583 -0.20127484 277.71539879 2.10067368 C279.02307034 4.25726891 279.02307034 4.25726891 279.02307034 7.25726891 C277.81430906 10.88355273 277.16325037 12.04683844 274.02307034 14.25726891 C270.39964362 14.86334809 266.80157857 14.78142446 263.13563442 14.74260521 C262.01276765 14.74657863 260.88990088 14.75055205 259.73300785 14.75464588 C255.95648776 14.76326266 252.18064544 14.74337423 248.40417385 14.72382164 C245.70236377 14.72212248 243.00057251 14.72652884 240.29876614 14.73081017 C234.4738172 14.73708327 228.64902373 14.72930626 222.82409763 14.71255875 C214.39677479 14.68878628 205.96961966 14.69173147 197.54227733 14.70218719 C183.86260474 14.71889691 170.18297337 14.72145367 156.50329494 14.71161461 C155.27502669 14.71074019 155.27502669 14.71074019 154.02194493 14.70984811 C144.88555823 14.70311935 135.74917509 14.69404716 126.61279202 14.68353844 C123.29960037 14.67979847 119.98640864 14.67613889 116.67321682 14.67255211 C115.44689801 14.67121574 115.44689801 14.67121574 114.19580508 14.66985237 C100.56880566 14.65556622 86.94188594 14.66067598 73.31489414 14.68047482 C64.90779968 14.69180939 56.50105031 14.68599654 48.09399246 14.65819598 C42.33455049 14.64032097 36.5752844 14.64015481 30.81583185 14.6539846 C27.49140721 14.66134719 24.16794068 14.65769261 20.843503 14.63769913 C17.2410466 14.61721208 13.6399308 14.627221 10.03748989 14.64494896 C8.9847718 14.63154722 7.9320537 14.61814548 6.84743506 14.60433763 C2.3880565 14.65501763 -0.25721259 14.82230917 -4.12537861 17.16002846 C-6.78497131 21.60894606 -6.6725276 25.32615507 -6.61616611 30.42543602 C-6.62451984 31.45627312 -6.63287357 32.48711021 -6.64148045 33.5491848 C-6.66350202 37.01903269 -6.6497381 40.48782913 -6.63635349 43.95770836 C-6.64484292 46.481427 -6.65552174 49.00513908 -6.66821671 51.52884007 C-6.69335461 57.6087154 -6.69612794 63.68823749 -6.68829663 69.76814811 C-6.68034447 76.80119654 -6.70429818 83.83399023 -6.72827244 90.86701012 C-6.77580692 109.43454672 -6.77995937 128.00217387 -6.78942966 146.56976891 C-6.85130466 188.04664391 -6.91317966 229.52351891 -6.97692966 272.25726891 C138.88307034 272.25726891 284.74307034 272.25726891 435.02307034 272.25726891 C434.86838284 210.01101891 434.86838284 210.01101891 434.71057034 146.50726891 C434.67322781 126.82763512 434.67322781 126.82763512 434.63513088 106.75043297 C434.59858161 95.02554222 434.59858161 95.02554222 434.55805874 83.3006649 C434.54006754 78.0641621 434.53025852 72.82771844 434.52595425 67.59119225 C434.52043987 60.92011523 434.4996274 54.24925327 434.46890891 47.57823706 C434.46006111 45.12470222 434.45628038 42.67114288 434.45803106 40.21759272 C434.45967519 36.91323317 434.44310495 33.60946083 434.42179775 30.3051815 C434.4266459 29.33659077 434.43149405 28.36800003 434.43648911 27.37005806 C434.42703199 26.48400131 434.41757488 25.59794456 434.40783119 24.68503761 C434.40593259 23.92104031 434.40403399 23.157043 434.40207785 22.36989427 C433.91302353 19.64385713 432.89895741 18.2710881 431.02307034 16.25726891 C427.66420825 15.13764821 425.13558508 15.13269217 421.5955801 15.13129234 C420.94807796 15.12942421 420.30057583 15.12755608 419.63345242 15.12563133 C418.22897711 15.12163169 416.82449533 15.11955289 415.42001438 15.11916924 C412.43378345 15.11575002 409.44776954 15.09438588 406.46161461 15.07393837 C400.90288722 15.03592439 395.34439379 15.00465654 389.78552151 15.00678062 C385.9173318 15.00756729 382.04993966 14.9842278 378.1819582 14.94489861 C376.7088158 14.93443227 375.23558142 14.93291935 373.76242161 14.94054985 C371.70071999 14.95016521 369.64143808 14.92901074 367.5799551 14.90082359 C366.40763836 14.89717796 365.23532162 14.89353233 364.02748013 14.88977623 C361.02307034 14.25726891 361.02307034 14.25726891 358.60545254 11.94751549 C357.02307034 9.25726891 357.02307034 9.25726891 357.14807034 5.56976891 C358.02307034 2.25726891 358.02307034 2.25726891 360.02307034 0.25726891 C362.98110867 -0.01015663 362.98110867 -0.01015663 366.82433987 -0.03325844 C367.52379223 -0.03997566 368.22324459 -0.04669289 368.94389248 -0.05361366 C371.26462762 -0.07266432 373.58507427 -0.07652232 375.90588284 -0.07866859 C377.52053859 -0.08509512 379.13519317 -0.09182337 380.74984646 -0.09884071 C384.14107871 -0.11083358 387.53220899 -0.11451983 390.92346096 -0.11333656 C395.25444291 -0.11313405 399.58476362 -0.14035596 403.91558933 -0.17488098 C407.25463726 -0.19720701 410.59352803 -0.20117226 413.93264294 -0.20011711 C415.52813766 -0.20246758 417.12363709 -0.21125979 418.71905804 -0.22678185 C435.65384794 -0.3760176 435.65384794 -0.3760176 443.04650784 6.00336266 C443.49252346 6.56152672 443.93853909 7.11969078 444.39807034 7.69476891 C445.0902969 8.52814781 445.0902969 8.52814781 445.79650784 9.37836266 C448.4120914 13.38503684 449.27318342 16.94010515 449.28033924 21.69154644 C449.28678813 22.77642072 449.29323703 23.861295 449.29988134 24.97904426 C449.29523553 26.75830347 449.29523553 26.75830347 449.29049587 28.57350731 C449.29502699 29.83803614 449.2995581 31.10256497 449.30422652 32.40541285 C449.31646035 35.91318535 449.31619561 39.42086249 449.31383777 42.92865145 C449.3134297 46.71267964 449.32446783 50.49667722 449.3339529 54.28069115 C449.35056604 61.69357499 449.35606259 69.10642702 449.35717766 76.51932792 C449.358128 82.54507957 449.36223758 88.57082073 449.36857891 94.59656906 C449.38619228 111.68114215 449.39541765 128.7656901 449.39391796 145.85027234 C449.39383805 146.77131216 449.39375814 147.69235199 449.3936758 148.64130211 C449.39359404 149.5634667 449.39351228 150.48563129 449.39342804 151.43574025 C449.39261514 166.38067034 449.41175351 181.32549963 449.43995254 196.27040056 C449.46867945 211.61617308 449.48249293 226.96189643 449.48076499 242.30769652 C449.48010101 250.92301386 449.48559656 259.53822555 449.50712109 268.15351868 C449.52533036 275.48887908 449.52968236 282.82408594 449.51610224 290.15945915 C449.50957121 293.90125985 449.50945991 297.64276596 449.52680874 301.38453865 C449.54543343 305.44327534 449.53298857 309.50132969 449.51754665 313.56007957 C449.52783378 314.73956022 449.53812091 315.91904086 449.54871976 317.13426334 C449.4838647 324.83921206 448.45624425 330.27878101 443.27697659 336.28070641 C442.71881252 336.72672203 442.16064846 337.17273766 441.58557034 337.63226891 C441.0299844 338.09375328 440.47439846 338.55523766 439.90197659 339.03070641 C434.2177434 342.74141165 428.94427269 342.53118317 422.35778713 342.48431969 C420.74735279 342.48475777 420.74735279 342.48475777 419.10438442 342.4852047 C415.56027007 342.4838128 412.01636666 342.46825793 408.47228909 342.45258141 C406.01320924 342.44885078 403.55412791 342.44600404 401.09504604 342.44400597 C394.62596431 342.43637341 388.15697252 342.41672804 381.68792629 342.39459801 C375.08546064 342.37413153 368.48298045 342.36500252 361.88049221 342.35492516 C348.9279799 342.33348189 335.9755299 342.29973539 323.02307034 342.25726891 C323.26736782 343.58365379 323.26736782 343.58365379 323.51660061 344.93683434 C325.05414747 353.29183124 326.58486912 361.64804397 328.1080389 370.00567436 C328.8912533 374.30182241 329.67704941 378.59746386 330.46887112 382.89203453 C331.23367695 387.04062402 331.99153688 391.19042886 332.74470425 395.34114647 C333.032492 396.92032658 333.32273175 398.49906198 333.61552334 400.07732201 C334.02685785 402.29696475 334.42925009 404.51806412 334.82971096 406.73969078 C335.06065456 408.00099815 335.29159817 409.26230553 335.52954006 410.56183434 C336.89756941 420.80530515 335.39099046 431.04043573 329.27307034 439.63226891 C322.08694026 448.14783305 314.35825677 453.55134518 303.14807034 455.13226891 C293.48617165 455.73898154 284.98821925 453.75738141 277.02307034 448.25726891 C276.40818752 447.84863609 275.79330471 447.44000328 275.15978909 447.01898766 C263.09008194 437.94663572 257.55146459 418.31922 252.02307034 406.25726891 C226.94307034 406.25726891 201.86307034 406.25726891 176.02307034 406.25726891 C171.40307034 416.15726891 166.78307034 426.05726891 162.02307034 436.25726891 C154.48795253 445.94527751 147.51267146 452.54228075 135.42932034 454.72601891 C124.9874783 456.01658365 115.89615858 453.96450897 107.02307034 448.25726891 C98.56389632 441.60548409 93.8871974 432.76416692 92.02307034 422.25726891 C91.54376996 416.96456902 92.12742055 412.24582096 94.02307034 407.25726891 C97.02307034 405.25726891 97.02307034 405.25726891 101.02307034 405.25726891 C102.01307034 398.32726891 103.00307034 391.39726891 104.02307034 384.25726891 C102.70307034 383.26726891 101.38307034 382.27726891 100.02307034 381.25726891 C98.5667868 376.49712013 99.29374773 372.23465205 100.23791409 367.45258141 C100.3725053 366.72860161 100.50709652 366.00462181 100.64576626 365.25870323 C101.07449878 362.96464102 101.51728892 360.67355947 101.96057034 358.38226891 C102.2551254 356.81994495 102.54875491 355.25744619 102.84142971 353.69476891 C103.55795026 349.88016304 104.28708355 346.06816475 105.02307034 342.25726891 C104.19057766 342.26774254 103.35808498 342.27821617 102.50036526 342.28900719 C99.40857878 342.32311333 96.31688825 342.34817967 93.22497463 342.36713219 C91.22987415 342.38212385 89.23486087 342.40753622 87.23986721 342.43305016 C85.98625393 342.43949547 84.73264065 342.44594078 83.44103909 342.45258141 C82.28370266 342.46305504 81.12636623 342.47352867 79.93395901 342.48431969 C77.02307034 342.25726891 77.02307034 342.25726891 74.02307034 340.25726891 C73.69307034 338.60726891 73.36307034 336.95726891 73.02307034 335.25726891 C66.09307034 335.25726891 59.16307034 335.25726891 52.02307034 335.25726891 C51.36307034 337.23726891 50.70307034 339.21726891 50.02307034 341.25726891 C47.53858834 342.4995099 45.83751732 342.40429751 43.0577383 342.43427086 C42.02261105 342.44710609 40.98748379 342.45994133 39.92098904 342.47316551 C38.79709774 342.48055244 37.67320644 342.48793938 36.51525784 342.49555016 C35.36067074 342.5036219 34.20608364 342.51169365 33.01650906 342.52000999 C30.56688856 342.53386244 28.11724866 342.54457938 25.66760159 342.55243492 C21.93415147 342.56960299 18.20159697 342.6134751 14.46838284 342.65765953 C12.08818101 342.66779022 9.70797166 342.67630515 7.32775784 342.68305016 C6.21601192 342.70055824 5.10426601 342.71806633 3.95883083 342.73610497 C-3.67768915 342.71490923 -9.05354945 341.64288851 -15.00036716 336.51117516 C-15.44638279 335.95301109 -15.89239841 335.39484703 -16.35192966 334.81976891 C-16.81341404 334.26418297 -17.27489841 333.70859703 -17.75036716 333.13617516 C-20.36595073 329.12950097 -21.22704275 325.57443267 -21.23419857 320.82299137 C-21.24064746 319.73811709 -21.24709635 318.65324281 -21.25374067 317.53549355 C-21.25064346 316.34932075 -21.24754626 315.16314794 -21.2443552 313.9410305 C-21.25115187 312.04423726 -21.25115187 312.04423726 -21.25808585 310.10912496 C-21.27031968 306.60135247 -21.27005494 303.09367532 -21.2676971 299.58588636 C-21.26728902 295.80185817 -21.27832716 292.0178606 -21.28781223 288.23384666 C-21.30442537 280.82096282 -21.30992192 273.40811079 -21.31103699 265.9952099 C-21.31198733 259.96945824 -21.31609691 253.94371708 -21.32243824 247.91796875 C-21.34005161 230.83339566 -21.34927698 213.74884771 -21.34777729 196.66426548 C-21.34769738 195.74322565 -21.34761747 194.82218583 -21.34753513 193.8732357 C-21.34745337 192.95107111 -21.34737161 192.02890653 -21.34728737 191.07879756 C-21.34647447 176.13386747 -21.36561284 161.18903818 -21.39381187 146.24413725 C-21.42253877 130.89836474 -21.43635226 115.55264138 -21.43462431 100.20684129 C-21.43396034 91.59152395 -21.43945589 82.97631226 -21.46098042 74.36101913 C-21.47918969 67.02565873 -21.48354168 59.69045187 -21.46996157 52.35507866 C-21.46343054 48.61327796 -21.46331924 44.87177185 -21.48066807 41.12999916 C-21.49929276 37.07126247 -21.4868479 33.01320813 -21.47140598 28.95445824 C-21.48169311 27.7749776 -21.49198024 26.59549695 -21.50257909 25.38027447 C-21.43772403 17.67532575 -20.41010358 12.2357568 -15.23083591 6.23383141 C-14.67267185 5.78781578 -14.11450779 5.34180016 -13.53942966 4.88226891 C-12.98384373 4.42078453 -12.42825779 3.95930016 -11.85583591 3.48383141 C-8.02408833 0.98244109 -4.55141394 0.00757497 0 0 Z " fill="#000000" transform="translate(41.976929664611816,28.74273109436035)"/>
<path d="M0 0 C0.74093399 -0.00524185 1.48186798 -0.0104837 2.24525452 -0.0158844 C3.81119535 -0.02230308 5.37718441 -0.02096953 6.94311523 -0.01245117 C9.33600017 -0.00394767 11.72649202 -0.03268903 14.11914062 -0.06445312 C15.64192637 -0.06606547 17.16471633 -0.06548696 18.6875 -0.0625 C19.40115219 -0.07373398 20.11480438 -0.08496796 20.8500824 -0.09654236 C24.15604575 -0.05030389 26.09915043 0.21412121 28.82739258 2.1394043 C30.6389343 4.76520371 31.09013871 6.48144289 31.45703125 9.63671875 C31.57949219 10.61640625 31.70195312 11.59609375 31.828125 12.60546875 C31.93769531 13.62125 32.04726563 14.63703125 32.16015625 15.68359375 C32.28519531 16.71484375 32.41023437 17.74609375 32.5390625 18.80859375 C32.84483484 21.34885624 33.13457973 23.88990816 33.41015625 26.43359375 C35.4706548 27.25115613 37.53364478 28.06244109 39.59765625 28.87109375 C41.32048828 29.54978516 41.32048828 29.54978516 43.078125 30.2421875 C44.17769531 30.63535156 45.27726563 31.02851562 46.41015625 31.43359375 C47.25191406 31.74941406 48.09367188 32.06523438 48.9609375 32.390625 C52.75714393 32.45722511 54.77361961 30.1327623 57.41015625 27.68359375 C66.68696822 19.3485901 66.68696822 19.3485901 71.23120117 19.57275391 C75.17100507 20.63962654 76.87736944 22.24092044 79.7734375 25.09765625 C80.25088913 25.56795258 80.72834076 26.0382489 81.22026062 26.52279663 C82.2221564 27.51693931 83.2177496 28.51746986 84.20727539 29.52392578 C85.71692243 31.05278695 87.25358142 32.55005068 88.79492188 34.046875 C89.76870125 35.02036395 90.74076665 35.99557103 91.7109375 36.97265625 C92.58919189 37.85131348 93.46744629 38.7299707 94.37231445 39.63525391 C96.84813483 43.03502067 97.3702762 45.24648878 97.41015625 49.43359375 C96.31445312 51.61767578 96.31445312 51.61767578 94.62890625 53.44140625 C94.03464844 54.11816406 93.44039062 54.79492188 92.828125 55.4921875 C92.19519531 56.17410156 91.56226563 56.85601562 90.91015625 57.55859375 C89.65709284 58.92394798 88.41682174 60.30118434 87.19140625 61.69140625 C86.63517578 62.29098145 86.07894531 62.89055664 85.50585938 63.50830078 C84.16308133 65.43643928 84.16308133 65.43643928 84.66186523 67.97729492 C85.57064183 70.96039488 86.72631584 73.76267772 87.97265625 76.62109375 C90.41015625 82.22112916 90.41015625 82.22112916 90.41015625 84.43359375 C91.76947266 84.50707031 91.76947266 84.50707031 93.15625 84.58203125 C110.63256546 85.65465167 110.63256546 85.65465167 115.12133789 88.52954102 C117.12310105 91.48687212 116.85790717 94.57207558 116.84375 98.0234375 C116.84899185 98.76437149 116.8542337 99.50530548 116.8596344 100.26869202 C116.86605308 101.83463285 116.86471953 103.40062191 116.85620117 104.96655273 C116.84769767 107.35943767 116.87643903 109.74992952 116.90820312 112.14257812 C116.90981547 113.66536387 116.90923696 115.18815383 116.90625 116.7109375 C116.91748398 117.42458969 116.92871796 118.13824188 116.94029236 118.8735199 C116.89247386 122.29245244 116.65131764 124.11888714 114.5456543 126.86669922 C111.9178093 128.79484706 110.00627718 129.19189426 106.78515625 129.62109375 C105.21121094 129.83958984 105.21121094 129.83958984 103.60546875 130.0625 C99.21083046 130.57287975 94.81901253 131.06293769 90.41015625 131.43359375 C89.59259387 133.4940923 88.78130891 135.55708228 87.97265625 137.62109375 C87.29396484 139.34392578 87.29396484 139.34392578 86.6015625 141.1015625 C86.20839844 142.20113281 85.81523437 143.30070313 85.41015625 144.43359375 C84.93642578 145.69623047 84.93642578 145.69623047 84.453125 146.984375 C84.38652489 150.78058143 86.7109877 152.79705711 89.16015625 155.43359375 C97.4951599 164.71040572 97.4951599 164.71040572 97.27099609 169.25463867 C96.20412346 173.19444257 94.60282956 174.90080694 91.74609375 177.796875 C91.04064926 178.51305244 91.04064926 178.51305244 90.32095337 179.24369812 C89.32681069 180.2455939 88.32628014 181.2411871 87.31982422 182.23071289 C85.79096305 183.74035993 84.29369932 185.27701892 82.796875 186.81835938 C81.82338605 187.79213875 80.84817897 188.76420415 79.87109375 189.734375 C78.99243652 190.61262939 78.1137793 191.49088379 77.20849609 192.39575195 C73.81567986 194.86651073 71.58585239 195.37148488 67.41015625 195.43359375 C65.30200195 194.46142578 65.30200195 194.46142578 63.5859375 192.94140625 C62.94978516 192.40128906 62.31363281 191.86117187 61.65820312 191.3046875 C61.01947266 190.72847656 60.38074219 190.15226563 59.72265625 189.55859375 C58.43207871 188.43045759 57.13666182 187.30782814 55.8359375 186.19140625 C55.27302002 185.68754395 54.71010254 185.18368164 54.13012695 184.66455078 C52.1849918 183.27244696 50.77436437 182.75507912 48.41015625 182.43359375 C45.4192522 183.36602707 45.4192522 183.36602707 42.34765625 184.80859375 C36.43279776 187.42604658 36.43279776 187.42604658 33.41015625 188.43359375 C33.34022461 189.0790918 33.27029297 189.72458984 33.19824219 190.38964844 C32.87017166 193.32329514 32.51547524 196.25312784 32.16015625 199.18359375 C32.05058594 200.199375 31.94101562 201.21515625 31.828125 202.26171875 C31.70566406 203.24140625 31.58320313 204.22109375 31.45703125 205.23046875 C31.35229492 206.13120117 31.24755859 207.03193359 31.13964844 207.95996094 C30.17852779 211.219022 29.19137441 212.4666101 26.41015625 214.43359375 C23.70820667 214.83182325 21.42101053 214.99559379 18.72265625 214.96484375 C17.98313721 214.96867065 17.24361816 214.97249756 16.48168945 214.97644043 C14.92169835 214.97915646 13.36166147 214.97181667 11.80175781 214.95507812 C9.41758439 214.93366048 7.03642376 214.95488638 4.65234375 214.98046875 C3.13410795 214.97782541 1.61587402 214.97270031 0.09765625 214.96484375 C-0.61285889 214.97294067 -1.32337402 214.9810376 -2.05541992 214.98937988 C-5.45112251 214.92523656 -7.285056 214.66586113 -10.01855469 212.58276367 C-14.60903094 206.30402495 -13.84430173 195.94010402 -13.58984375 188.43359375 C-14.24210937 188.25183594 -14.894375 188.07007813 -15.56640625 187.8828125 C-19.58517767 186.72697116 -23.23907776 185.61547241 -26.96484375 183.68359375 C-29.4076026 182.22624621 -29.4076026 182.22624621 -31.55126953 182.70117188 C-33.74450986 183.48916241 -35.06403407 184.3963321 -36.83203125 185.90234375 C-37.42371094 186.39089844 -38.01539063 186.87945312 -38.625 187.3828125 C-39.84700108 188.4128219 -41.06578764 189.44665767 -42.28125 190.484375 C-48.83390377 195.87148081 -48.83390377 195.87148081 -53.58984375 195.43359375 C-56.59175087 193.43943305 -59.04382371 190.97073851 -61.58984375 188.43359375 C-63.00445512 187.12028197 -64.4198211 185.80778255 -65.8359375 184.49609375 C-67.23567808 183.14462009 -68.63280896 181.79043841 -70.02734375 180.43359375 C-70.74599609 179.76070312 -71.46464844 179.0878125 -72.20507812 178.39453125 C-75.32676113 175.34064684 -77.3504162 173.03996267 -78.96875 168.94140625 C-78.40434175 163.71626599 -75.57974984 161.06859441 -72.08984375 157.30859375 C-70.83678034 155.94323952 -69.59650924 154.56600316 -68.37109375 153.17578125 C-67.81486328 152.57620605 -67.25863281 151.97663086 -66.68554688 151.35888672 C-65.34399335 149.43332679 -65.34399335 149.43332679 -65.84155273 146.90795898 C-66.79777669 143.7460243 -67.94157508 140.69458345 -69.15234375 137.62109375 C-69.83490234 135.87892578 -69.83490234 135.87892578 -70.53125 134.1015625 C-70.88058594 133.22113281 -71.22992188 132.34070313 -71.58984375 131.43359375 C-72.2353418 131.36889893 -72.88083984 131.3042041 -73.54589844 131.23754883 C-76.48017945 130.93024594 -79.40946995 130.58858119 -82.33984375 130.24609375 C-83.355625 130.14490234 -84.37140625 130.04371094 -85.41796875 129.93945312 C-86.8875 129.7605957 -86.8875 129.7605957 -88.38671875 129.578125 C-89.28745117 129.47862549 -90.18818359 129.37912598 -91.11621094 129.27661133 C-94.61548553 128.08405357 -95.72415359 126.60281358 -97.58984375 123.43359375 C-97.9803654 120.76754664 -98.15258201 118.5251846 -98.12109375 115.8671875 C-98.12492065 115.15127945 -98.12874756 114.4353714 -98.13269043 113.69776917 C-98.13540191 112.19083238 -98.12809414 110.68384791 -98.11132812 109.17700195 C-98.08987171 106.87409509 -98.11116744 104.57429594 -98.13671875 102.27148438 C-98.13407595 100.80337856 -98.12895195 99.33527467 -98.12109375 97.8671875 C-98.12919067 97.1816832 -98.1372876 96.49617889 -98.14562988 95.78990173 C-98.08069727 92.47214107 -97.79019811 90.6993436 -95.77075195 88.02075195 C-92.69191959 85.78012852 -90.03913665 85.59190896 -86.27734375 85.18359375 C-85.00246094 85.0340625 -83.72757813 84.88453125 -82.4140625 84.73046875 C-78.786563 84.44886511 -75.22637115 84.37714054 -71.58984375 84.43359375 C-71.40808594 83.78132813 -71.22632813 83.1290625 -71.0390625 82.45703125 C-69.88322116 78.43825983 -68.77172241 74.78435974 -66.83984375 71.05859375 C-65.38249621 68.6158349 -65.38249621 68.6158349 -65.85742188 66.47216797 C-66.64541241 64.27892764 -67.5525821 62.95940343 -69.05859375 61.19140625 C-69.54714844 60.59972656 -70.03570312 60.00804687 -70.5390625 59.3984375 C-71.5690719 58.17643642 -72.60290767 56.95764986 -73.640625 55.7421875 C-79.02773081 49.18953373 -79.02773081 49.18953373 -78.58984375 44.43359375 C-76.59568305 41.43168663 -74.12698851 38.97961379 -71.58984375 36.43359375 C-70.27653197 35.01898238 -68.96403255 33.6036164 -67.65234375 32.1875 C-66.30087009 30.78775942 -64.94668841 29.39062854 -63.58984375 27.99609375 C-62.91695312 27.27744141 -62.2440625 26.55878906 -61.55078125 25.81835938 C-58.46250419 22.66152018 -56.23463885 20.67103759 -52.046875 19.12890625 C-47.22063015 19.5542702 -44.84649963 21.62931209 -41.27734375 24.74609375 C-40.65794922 25.25849609 -40.03855469 25.77089844 -39.40039062 26.29882812 C-37.03530271 28.26845074 -34.7669897 30.2564478 -32.58984375 32.43359375 C-28.55362864 32.04617345 -25.09281278 30.48022994 -21.40234375 28.87109375 C-15.80230834 26.43359375 -15.80230834 26.43359375 -13.58984375 26.43359375 C-13.51636719 24.69722656 -13.51636719 24.69722656 -13.44140625 22.92578125 C-13.36632897 21.38669705 -13.29078332 19.84763565 -13.21484375 18.30859375 C-13.18390625 17.54804687 -13.15296875 16.7875 -13.12109375 16.00390625 C-12.85661901 10.89072789 -12.42547982 6.17255063 -9.49243164 1.79614258 C-6.55670866 -0.30629165 -3.48045075 -0.01427649 0 0 Z " fill="#FCD62D" transform="translate(246.58984375,64.56640625)"/>
<path d="M0 0 C1.45277429 -0.00570846 2.90554409 -0.01267455 4.35830688 -0.02079773 C8.29032163 -0.03869498 12.22211278 -0.0375669 16.15415597 -0.03185534 C19.44415544 -0.02875753 22.73411233 -0.03486275 26.02410573 -0.04089409 C33.79100908 -0.05492736 41.55780242 -0.05338893 49.32470703 -0.04199219 C57.3187688 -0.0305208 65.31249468 -0.04457274 73.30651218 -0.07138866 C80.1857575 -0.09359516 87.06489778 -0.10017167 93.94417638 -0.09431225 C98.04578042 -0.09095222 102.14716938 -0.09329347 106.24874306 -0.11056328 C110.10914687 -0.12610884 113.96905626 -0.12199348 117.82944107 -0.10325813 C119.23945844 -0.09959271 120.64951306 -0.10262051 122.05949593 -0.11314392 C131.487726 -0.17809251 139.82742511 0.40978878 147.3425293 6.58764648 C147.9509668 7.33143555 148.5594043 8.07522461 149.1862793 8.84155273 C149.8153418 9.58276367 150.4444043 10.32397461 151.0925293 11.08764648 C153.78409851 14.99965762 154.93262293 19.0086708 155.78369141 23.64306641 C155.97406479 24.66571091 156.16443817 25.68835541 156.36058044 26.74198914 C156.65908653 28.39035515 156.65908653 28.39035515 156.96362305 30.07202148 C157.17563858 31.22084305 157.38765411 32.36966461 157.60609436 33.55329895 C158.05476122 35.98967741 158.50094215 38.42651479 158.94482422 40.86376953 C159.61325384 44.533763 160.28867217 48.20241077 160.96557617 51.87084961 C162.85650437 62.14917005 164.72754868 72.43098608 166.4675293 82.73608398 C166.64595619 83.78181831 166.64595619 83.78181831 166.82798767 84.84867859 C168.42409594 94.47619692 169.19811663 101.91432513 163.54174805 110.27124023 C159.57789687 114.82758284 154.3521503 118.04279566 148.26831055 118.64233398 C141.72266747 118.81774614 137.06575936 118.23964808 131.6862793 114.40405273 C126.98091407 109.86577368 124.09691855 104.79484037 121.4519043 98.88061523 C121.08780457 98.09383392 120.72370483 97.30705261 120.34857178 96.49642944 C119.20036666 94.012089 118.06726408 91.52127401 116.9362793 89.02905273 C115.78923129 86.5163112 114.63892821 84.00521784 113.48114014 81.49740601 C112.76437697 79.9435242 112.05407097 78.3866443 111.35089111 76.8265686 C109.79857847 72.93357895 109.79857847 72.93357895 106.6862793 70.40405273 C103.80364909 70.29501898 100.94481006 70.24671912 98.06152344 70.24291992 C97.16872177 70.23795502 96.2759201 70.23299011 95.35606384 70.22787476 C92.39451332 70.21323641 89.43301634 70.2064489 86.47143555 70.20092773 C84.41881813 70.19517835 82.36620074 70.1894206 80.31358337 70.18365479 C76.00690459 70.17314051 71.70024451 70.16730041 67.39355469 70.16381836 C61.86725568 70.15832795 56.34120235 70.13429 50.81498051 70.10584641 C46.57457245 70.08725157 42.334224 70.08201615 38.09377861 70.08048248 C36.05596 70.07744908 34.01814261 70.06939753 31.98036385 70.0562973 C29.13352707 70.03930012 26.28729619 70.04110132 23.44042969 70.04760742 C22.59408966 70.03839264 21.74774963 70.02917786 20.87576294 70.01968384 C16.67977471 69.90922317 16.67977471 69.90922317 13.0571661 71.7061348 C10.74081359 74.57506349 9.4353272 77.97626371 7.95581055 81.32592773 C7.22806615 82.92523723 6.49952461 84.52418419 5.77026367 86.12280273 C4.63410015 88.63141265 3.50403424 91.1421959 2.38818359 93.65991211 C-5.99658675 112.51311001 -5.99658675 112.51311001 -15.95825195 117.81030273 C-22.8131641 119.53824079 -29.39513097 119.39959852 -35.6887207 116.02905273 C-40.86596247 112.43583019 -44.25224732 108.3932576 -46.3137207 102.40405273 C-46.73302894 98.44078349 -46.8789826 94.70839179 -46.81762695 90.72436523 C-46.99821324 87.21344093 -46.99821324 87.21344093 -49.84106445 84.95874023 C-51.0650293 84.18916992 -51.0650293 84.18916992 -52.3137207 83.40405273 C-51.83877018 80.29922568 -51.35803322 77.19532173 -50.8762207 74.09155273 C-50.74151367 73.21047852 -50.60680664 72.3294043 -50.46801758 71.42163086 C-50.33588867 70.57407227 -50.20375977 69.72651367 -50.06762695 68.85327148 C-49.94718018 68.07298584 -49.8267334 67.2927002 -49.70263672 66.48876953 C-49.3137207 64.40405273 -49.3137207 64.40405273 -48.3137207 61.40405273 C-44.8487207 60.90905273 -44.8487207 60.90905273 -41.3137207 60.40405273 C-40.53941243 56.5922503 -39.76971328 52.7795317 -39.0012207 48.96655273 C-38.77120361 47.83032471 -38.54118652 46.69409668 -38.30419922 45.5234375 C-37.13219551 39.68487061 -36.02826092 33.85084111 -35.09350586 27.96972656 C-33.48238295 17.95249518 -31.38891008 11.7023099 -23.60668945 4.94702148 C-15.95679062 -0.20069579 -9.00546964 -0.03194869 0 0 Z " fill="#385C85" transform="translate(195.313720703125,350.595947265625)"/>
<path d="M0 0 C145.86 0 291.72 0 442 0 C442 35 442 35 439 40 C436.12973674 41.95740597 433.78352234 42.25914241 430.35209656 42.30107117 C429.42274292 42.31682693 428.49338928 42.3325827 427.53587341 42.34881592 C426.52331985 42.35576477 425.5107663 42.36271362 424.4675293 42.36987305 C423.39554291 42.38462173 422.32355652 42.39937042 421.21908569 42.41456604 C417.67080632 42.45909802 414.12269112 42.48731496 410.57421875 42.51171875 C408.75590514 42.52581756 408.75590514 42.52581756 406.90085793 42.54020119 C400.48673701 42.58776594 394.07269794 42.6214546 387.65844727 42.64526367 C381.0333739 42.67299682 374.40994762 42.75219929 367.78547955 42.84280682 C362.69049135 42.90259455 357.59589667 42.92252731 352.50058937 42.93177223 C350.05847035 42.94336151 347.61637395 42.97022825 345.17459679 43.01270103 C341.75526413 43.06865976 338.34031595 43.067837 334.9206543 43.0534668 C333.91417343 43.08268219 332.90769257 43.11189758 331.87071228 43.14199829 C327.67218295 43.07366996 325.05912435 42.99792981 321.92212868 40.04218483 C320.08699036 37.64118958 320.08699036 37.64118958 318.56846333 35.25520039 C315.88650949 31.39897804 312.12780073 29.12065016 308 27 C307.36629203 26.67256554 306.73258406 26.34513107 306.07967281 26.00777435 C298.42795006 22.48169325 291.20172605 22.43165148 282.90258789 22.48242188 C281.40173161 22.47699147 279.90088067 22.46986368 278.40003967 22.46118164 C274.35030092 22.44305272 270.30097292 22.44997265 266.25122762 22.46269798 C261.99628613 22.47288199 257.74137793 22.46341723 253.48643494 22.45715332 C246.34221131 22.44989175 239.19815349 22.45942449 232.05395508 22.47851562 C223.81729012 22.50027321 215.58102146 22.49323518 207.34436613 22.47121 C200.24932488 22.45300336 193.15440228 22.45052355 186.05934519 22.46096468 C181.83201419 22.46717187 177.60486888 22.46811248 173.37755013 22.45481873 C169.40053767 22.4431841 165.4240313 22.45142314 161.44707298 22.47439575 C159.99555421 22.4796429 158.54399216 22.47823832 157.09249115 22.46934509 C144.99631735 22.40211901 135.7972162 24.30352931 126.16796875 31.828125 C123.968719 33.80689123 123.968719 33.80689123 122.99145508 35.98901367 C121.54565977 38.61081194 120.39578372 40.17336879 118 42 C112.43824154 43.09038978 106.95930476 42.94373742 101.3125 42.8125 C99.02956956 42.78627601 96.7474829 42.77146068 94.46440125 42.77262878 C93.04858251 42.77060184 91.63265786 42.75135272 90.21736145 42.71284485 C86.42559885 42.67548955 86.42559885 42.67548955 83.10620117 44.3269043 C81.81503333 46.12250823 81.81503333 46.12250823 81 49 C73.41 49 65.82 49 58 49 C57.67 47.35 57.34 45.7 57 44 C54.12928718 43.04309573 52.31383612 42.87063772 49.33251953 42.8581543 C48.38788849 42.85111984 47.44325745 42.84408539 46.47000122 42.83683777 C45.45122894 42.83267349 44.43245667 42.82850922 43.3828125 42.82421875 C41.22785478 42.80102348 39.07290683 42.77690626 36.91796875 42.75195312 C33.51865069 42.71681488 30.11969258 42.68747907 26.72021484 42.67407227 C23.44063748 42.65860481 20.16211217 42.6184054 16.8828125 42.57421875 C15.86808868 42.57612717 14.85336487 42.57803558 13.80789185 42.58000183 C9.40550639 42.50365652 6.72651248 42.4307303 2.88232422 40.15161133 C-5.89959426 30.11334316 0 7.90284303 0 0 Z " fill="#98B9FE" transform="translate(35,315)"/>
<path d="M0 0 C0.74093399 -0.00524185 1.48186798 -0.0104837 2.24525452 -0.0158844 C3.81119535 -0.02230308 5.37718441 -0.02096953 6.94311523 -0.01245117 C9.33600017 -0.00394767 11.72649202 -0.03268903 14.11914062 -0.06445312 C15.64192637 -0.06606547 17.16471633 -0.06548696 18.6875 -0.0625 C19.40115219 -0.07373398 20.11480438 -0.08496796 20.8500824 -0.09654236 C24.15604575 -0.05030389 26.09915043 0.21412121 28.82739258 2.1394043 C30.6389343 4.76520371 31.09013871 6.48144289 31.45703125 9.63671875 C31.57949219 10.61640625 31.70195312 11.59609375 31.828125 12.60546875 C31.93769531 13.62125 32.04726563 14.63703125 32.16015625 15.68359375 C32.28519531 16.71484375 32.41023437 17.74609375 32.5390625 18.80859375 C32.84483484 21.34885624 33.13457973 23.88990816 33.41015625 26.43359375 C35.4706548 27.25115613 37.53364478 28.06244109 39.59765625 28.87109375 C41.32048828 29.54978516 41.32048828 29.54978516 43.078125 30.2421875 C44.17769531 30.63535156 45.27726563 31.02851562 46.41015625 31.43359375 C47.25191406 31.74941406 48.09367188 32.06523438 48.9609375 32.390625 C52.75714393 32.45722511 54.77361961 30.1327623 57.41015625 27.68359375 C66.68696822 19.3485901 66.68696822 19.3485901 71.23120117 19.57275391 C75.17100507 20.63962654 76.87736944 22.24092044 79.7734375 25.09765625 C80.25088913 25.56795258 80.72834076 26.0382489 81.22026062 26.52279663 C82.2221564 27.51693931 83.2177496 28.51746986 84.20727539 29.52392578 C85.71692243 31.05278695 87.25358142 32.55005068 88.79492188 34.046875 C89.76870125 35.02036395 90.74076665 35.99557103 91.7109375 36.97265625 C92.58919189 37.85131348 93.46744629 38.7299707 94.37231445 39.63525391 C96.84813483 43.03502067 97.3702762 45.24648878 97.41015625 49.43359375 C96.31445312 51.61767578 96.31445312 51.61767578 94.62890625 53.44140625 C94.03464844 54.11816406 93.44039062 54.79492188 92.828125 55.4921875 C92.19519531 56.17410156 91.56226563 56.85601562 90.91015625 57.55859375 C89.65709284 58.92394798 88.41682174 60.30118434 87.19140625 61.69140625 C86.63517578 62.29098145 86.07894531 62.89055664 85.50585938 63.50830078 C84.16308133 65.43643928 84.16308133 65.43643928 84.66186523 67.97729492 C85.57064183 70.96039488 86.72631584 73.76267772 87.97265625 76.62109375 C90.41015625 82.22112916 90.41015625 82.22112916 90.41015625 84.43359375 C91.76947266 84.50707031 91.76947266 84.50707031 93.15625 84.58203125 C110.63256546 85.65465167 110.63256546 85.65465167 115.12133789 88.52954102 C117.12310105 91.48687212 116.85790717 94.57207558 116.84375 98.0234375 C116.84899185 98.76437149 116.8542337 99.50530548 116.8596344 100.26869202 C116.86605308 101.83463285 116.86471953 103.40062191 116.85620117 104.96655273 C116.84769767 107.35943767 116.87643903 109.74992952 116.90820312 112.14257812 C116.90981547 113.66536387 116.90923696 115.18815383 116.90625 116.7109375 C116.91748398 117.42458969 116.92871796 118.13824188 116.94029236 118.8735199 C116.89247386 122.29245244 116.65131764 124.11888714 114.5456543 126.86669922 C111.9178093 128.79484706 110.00627718 129.19189426 106.78515625 129.62109375 C105.21121094 129.83958984 105.21121094 129.83958984 103.60546875 130.0625 C99.21083046 130.57287975 94.81901253 131.06293769 90.41015625 131.43359375 C89.59259387 133.4940923 88.78130891 135.55708228 87.97265625 137.62109375 C87.29396484 139.34392578 87.29396484 139.34392578 86.6015625 141.1015625 C86.20839844 142.20113281 85.81523437 143.30070313 85.41015625 144.43359375 C84.93642578 145.69623047 84.93642578 145.69623047 84.453125 146.984375 C84.38652489 150.78058143 86.7109877 152.79705711 89.16015625 155.43359375 C97.4951599 164.71040572 97.4951599 164.71040572 97.27099609 169.25463867 C96.20412346 173.19444257 94.60282956 174.90080694 91.74609375 177.796875 C91.04064926 178.51305244 91.04064926 178.51305244 90.32095337 179.24369812 C89.32681069 180.2455939 88.32628014 181.2411871 87.31982422 182.23071289 C85.79096305 183.74035993 84.29369932 185.27701892 82.796875 186.81835938 C81.82338605 187.79213875 80.84817897 188.76420415 79.87109375 189.734375 C78.99243652 190.61262939 78.1137793 191.49088379 77.20849609 192.39575195 C73.81567986 194.86651073 71.58585239 195.37148488 67.41015625 195.43359375 C65.30200195 194.46142578 65.30200195 194.46142578 63.5859375 192.94140625 C62.94978516 192.40128906 62.31363281 191.86117187 61.65820312 191.3046875 C61.01947266 190.72847656 60.38074219 190.15226563 59.72265625 189.55859375 C58.43207871 188.43045759 57.13666182 187.30782814 55.8359375 186.19140625 C55.27302002 185.68754395 54.71010254 185.18368164 54.13012695 184.66455078 C52.1849918 183.27244696 50.77436437 182.75507912 48.41015625 182.43359375 C45.4192522 183.36602707 45.4192522 183.36602707 42.34765625 184.80859375 C36.43279776 187.42604658 36.43279776 187.42604658 33.41015625 188.43359375 C33.34022461 189.0790918 33.27029297 189.72458984 33.19824219 190.38964844 C32.87017166 193.32329514 32.51547524 196.25312784 32.16015625 199.18359375 C32.05058594 200.199375 31.94101562 201.21515625 31.828125 202.26171875 C31.70566406 203.24140625 31.58320313 204.22109375 31.45703125 205.23046875 C31.35229492 206.13120117 31.24755859 207.03193359 31.13964844 207.95996094 C30.17852779 211.219022 29.19137441 212.4666101 26.41015625 214.43359375 C23.70820667 214.83182325 21.42101053 214.99559379 18.72265625 214.96484375 C17.98313721 214.96867065 17.24361816 214.97249756 16.48168945 214.97644043 C14.92169835 214.97915646 13.36166147 214.97181667 11.80175781 214.95507812 C9.41758439 214.93366048 7.03642376 214.95488638 4.65234375 214.98046875 C3.13410795 214.97782541 1.61587402 214.97270031 0.09765625 214.96484375 C-0.61285889 214.97294067 -1.32337402 214.9810376 -2.05541992 214.98937988 C-5.45112251 214.92523656 -7.285056 214.66586113 -10.01855469 212.58276367 C-14.60903094 206.30402495 -13.84430173 195.94010402 -13.58984375 188.43359375 C-14.24210937 188.25183594 -14.894375 188.07007813 -15.56640625 187.8828125 C-19.58517767 186.72697116 -23.23907776 185.61547241 -26.96484375 183.68359375 C-29.4076026 182.22624621 -29.4076026 182.22624621 -31.55126953 182.70117188 C-33.74450986 183.48916241 -35.06403407 184.3963321 -36.83203125 185.90234375 C-37.42371094 186.39089844 -38.01539063 186.87945312 -38.625 187.3828125 C-39.84700108 188.4128219 -41.06578764 189.44665767 -42.28125 190.484375 C-48.83390377 195.87148081 -48.83390377 195.87148081 -53.58984375 195.43359375 C-56.59175087 193.43943305 -59.04382371 190.97073851 -61.58984375 188.43359375 C-63.00445512 187.12028197 -64.4198211 185.80778255 -65.8359375 184.49609375 C-67.23567808 183.14462009 -68.63280896 181.79043841 -70.02734375 180.43359375 C-70.74599609 179.76070312 -71.46464844 179.0878125 -72.20507812 178.39453125 C-75.32676113 175.34064684 -77.3504162 173.03996267 -78.96875 168.94140625 C-78.40434175 163.71626599 -75.57974984 161.06859441 -72.08984375 157.30859375 C-70.83678034 155.94323952 -69.59650924 154.56600316 -68.37109375 153.17578125 C-67.81486328 152.57620605 -67.25863281 151.97663086 -66.68554688 151.35888672 C-65.34399335 149.43332679 -65.34399335 149.43332679 -65.84155273 146.90795898 C-66.79777669 143.7460243 -67.94157508 140.69458345 -69.15234375 137.62109375 C-69.83490234 135.87892578 -69.83490234 135.87892578 -70.53125 134.1015625 C-70.88058594 133.22113281 -71.22992188 132.34070313 -71.58984375 131.43359375 C-72.2353418 131.36889893 -72.88083984 131.3042041 -73.54589844 131.23754883 C-76.48017945 130.93024594 -79.40946995 130.58858119 -82.33984375 130.24609375 C-83.355625 130.14490234 -84.37140625 130.04371094 -85.41796875 129.93945312 C-86.8875 129.7605957 -86.8875 129.7605957 -88.38671875 129.578125 C-89.28745117 129.47862549 -90.18818359 129.37912598 -91.11621094 129.27661133 C-94.61548553 128.08405357 -95.72415359 126.60281358 -97.58984375 123.43359375 C-97.9803654 120.76754664 -98.15258201 118.5251846 -98.12109375 115.8671875 C-98.12492065 115.15127945 -98.12874756 114.4353714 -98.13269043 113.69776917 C-98.13540191 112.19083238 -98.12809414 110.68384791 -98.11132812 109.17700195 C-98.08987171 106.87409509 -98.11116744 104.57429594 -98.13671875 102.27148438 C-98.13407595 100.80337856 -98.12895195 99.33527467 -98.12109375 97.8671875 C-98.12919067 97.1816832 -98.1372876 96.49617889 -98.14562988 95.78990173 C-98.08069727 92.47214107 -97.79019811 90.6993436 -95.77075195 88.02075195 C-92.69191959 85.78012852 -90.03913665 85.59190896 -86.27734375 85.18359375 C-85.00246094 85.0340625 -83.72757813 84.88453125 -82.4140625 84.73046875 C-78.786563 84.44886511 -75.22637115 84.37714054 -71.58984375 84.43359375 C-71.40808594 83.78132813 -71.22632813 83.1290625 -71.0390625 82.45703125 C-69.88322116 78.43825983 -68.77172241 74.78435974 -66.83984375 71.05859375 C-65.38249621 68.6158349 -65.38249621 68.6158349 -65.85742188 66.47216797 C-66.64541241 64.27892764 -67.5525821 62.95940343 -69.05859375 61.19140625 C-69.54714844 60.59972656 -70.03570312 60.00804687 -70.5390625 59.3984375 C-71.5690719 58.17643642 -72.60290767 56.95764986 -73.640625 55.7421875 C-79.02773081 49.18953373 -79.02773081 49.18953373 -78.58984375 44.43359375 C-76.59568305 41.43168663 -74.12698851 38.97961379 -71.58984375 36.43359375 C-70.27653197 35.01898238 -68.96403255 33.6036164 -67.65234375 32.1875 C-66.30087009 30.78775942 -64.94668841 29.39062854 -63.58984375 27.99609375 C-62.91695312 27.27744141 -62.2440625 26.55878906 -61.55078125 25.81835938 C-58.46250419 22.66152018 -56.23463885 20.67103759 -52.046875 19.12890625 C-47.22063015 19.5542702 -44.84649963 21.62931209 -41.27734375 24.74609375 C-40.65794922 25.25849609 -40.03855469 25.77089844 -39.40039062 26.29882812 C-37.03530271 28.26845074 -34.7669897 30.2564478 -32.58984375 32.43359375 C-28.55362864 32.04617345 -25.09281278 30.48022994 -21.40234375 28.87109375 C-15.80230834 26.43359375 -15.80230834 26.43359375 -13.58984375 26.43359375 C-13.51636719 24.69722656 -13.51636719 24.69722656 -13.44140625 22.92578125 C-13.36632897 21.38669705 -13.29078332 19.84763565 -13.21484375 18.30859375 C-13.18390625 17.54804687 -13.15296875 16.7875 -13.12109375 16.00390625 C-12.85661901 10.89072789 -12.42547982 6.17255063 -9.49243164 1.79614258 C-6.55670866 -0.30629165 -3.48045075 -0.01427649 0 0 Z M1.41015625 14.43359375 C1.21679688 15.84253906 1.0234375 17.25148438 0.82421875 18.703125 C0.56159959 20.55083838 0.2985567 22.39849158 0.03515625 24.24609375 C-0.15433594 25.63924805 -0.15433594 25.63924805 -0.34765625 27.06054688 C-0.4765625 27.95322266 -0.60546875 28.84589844 -0.73828125 29.765625 C-0.85349121 30.58780518 -0.96870117 31.40998535 -1.08740234 32.25708008 C-1.58984375 34.43359375 -1.58984375 34.43359375 -3.58984375 37.43359375 C-5.90899099 38.31610111 -8.15190356 39.05834336 -10.52734375 39.74609375 C-16.57675239 41.60247606 -21.81221419 43.9511655 -27.22265625 47.296875 C-30.15128309 48.70319581 -31.37834214 49.08337355 -34.58984375 48.43359375 C-37.39255333 46.6653623 -39.8802027 44.57681026 -42.40234375 42.43359375 C-43.09521484 41.86125 -43.78808594 41.28890625 -44.50195312 40.69921875 C-46.2072462 39.28794172 -47.90238728 37.86610618 -49.58984375 36.43359375 C-53.00043778 38.03894662 -55.20776859 39.83878276 -57.83984375 42.55859375 C-58.89945313 43.64527344 -58.89945313 43.64527344 -59.98046875 44.75390625 C-60.5115625 45.30820313 -61.04265625 45.8625 -61.58984375 46.43359375 C-59.6501951 51.04166077 -56.2224461 54.6698471 -52.95898438 58.39257812 C-50.52633197 61.37442558 -49.59116837 63.0388565 -49.578125 66.92578125 C-50.66235509 70.68500371 -52.10203936 73.80737256 -53.96484375 77.24609375 C-56.60579321 82.23158682 -58.60985631 87.03421938 -59.88671875 92.54296875 C-60.58984375 94.43359375 -60.58984375 94.43359375 -63.58984375 96.43359375 C-66.43630934 96.86910299 -69.22837606 97.22141196 -72.08984375 97.49609375 C-77.92072755 98.03376532 -77.92072755 98.03376532 -83.58984375 99.43359375 C-83.58984375 104.71359375 -83.58984375 109.99359375 -83.58984375 115.43359375 C-82.1925 115.60375 -80.79515625 115.77390625 -79.35546875 115.94921875 C-77.51680909 116.19312258 -75.67827355 116.43796332 -73.83984375 116.68359375 C-72.91945312 116.79316406 -71.9990625 116.90273437 -71.05078125 117.015625 C-64.30276907 117.94469914 -64.30276907 117.94469914 -61.06640625 120.1640625 C-59.28867544 122.89650059 -58.52074192 125.33774045 -57.71484375 128.49609375 C-56.10722948 134.24218493 -53.86707757 138.88063907 -50.6640625 143.8984375 C-49.20968973 147.33075724 -49.44357739 148.88457676 -50.58984375 152.43359375 C-52.24479148 155.06533799 -54.16022551 157.42601039 -56.15234375 159.80859375 C-56.67248047 160.44925781 -57.19261719 161.08992187 -57.72851562 161.75 C-59.00531388 163.3196419 -60.29619742 164.87780821 -61.58984375 166.43359375 C-60.11262953 169.88561014 -58.15190374 172.08321311 -55.46484375 174.68359375 C-54.74039063 175.39 -54.0159375 176.09640625 -53.26953125 176.82421875 C-52.43808594 177.62085938 -52.43808594 177.62085938 -51.58984375 178.43359375 C-48.89310845 177.27305841 -46.6642883 175.79010914 -44.34765625 174.015625 C-43.75597656 173.56638672 -43.16429687 173.11714844 -42.5546875 172.65429688 C-41.3273447 171.71489756 -40.10850576 170.76428324 -38.8984375 169.80273438 C-35.92467715 167.57402678 -34.36266991 166.4365892 -30.56640625 166.421875 C-27.1163974 167.5945158 -24.05187971 169.08630297 -20.83984375 170.80859375 C-15.83463764 173.44025183 -11.00164314 175.45072634 -5.48046875 176.73046875 C-3.58984375 177.43359375 -3.58984375 177.43359375 -1.58984375 180.43359375 C-1.08740234 182.61010742 -1.08740234 182.61010742 -0.73828125 185.1015625 C-0.54492188 186.44057617 -0.54492188 186.44057617 -0.34765625 187.80664062 C-0.22132813 188.73541016 -0.095 189.66417969 0.03515625 190.62109375 C0.23625 192.03165039 0.23625 192.03165039 0.44140625 193.47070312 C0.77115287 195.79070616 1.09155247 198.11203424 1.41015625 200.43359375 C6.69015625 200.43359375 11.97015625 200.43359375 17.41015625 200.43359375 C17.5803125 198.95246094 17.75046875 197.47132813 17.92578125 195.9453125 C18.16964406 194.00378936 18.41448678 192.06238912 18.66015625 190.12109375 C18.76972656 189.14462891 18.87929688 188.16816406 18.9921875 187.16210938 C19.11464844 186.22431641 19.23710937 185.28652344 19.36328125 184.3203125 C19.46801758 183.45623779 19.57275391 182.59216309 19.68066406 181.7019043 C20.62083959 178.77848701 21.80052623 177.97952395 24.41015625 176.43359375 C26.8052433 175.56924336 29.16333761 174.78740259 31.59765625 174.05859375 C37.00164645 172.37746828 41.67083763 170.47231036 46.3828125 167.25390625 C49.49210813 165.99580975 51.20963657 166.45749358 54.41015625 167.43359375 C57.04513226 169.08328041 59.40272235 171.00410048 61.78515625 172.99609375 C62.42582031 173.51623047 63.06648437 174.03636719 63.7265625 174.57226562 C65.2962044 175.84906388 66.85437071 177.13994742 68.41015625 178.43359375 C71.86217264 176.95637953 74.05977561 174.99565374 76.66015625 172.30859375 C77.3665625 171.58414063 78.07296875 170.8596875 78.80078125 170.11328125 C79.331875 169.55898437 79.86296875 169.0046875 80.41015625 168.43359375 C79.24962091 165.73685845 77.76667164 163.5080383 75.9921875 161.19140625 C75.54294922 160.59972656 75.09371094 160.00804687 74.63085938 159.3984375 C73.69146006 158.1710947 72.74084574 156.95225576 71.77929688 155.7421875 C69.51485293 152.7207442 68.40431818 151.20421856 68.43359375 147.33984375 C69.45637122 144.296058 70.68812493 141.62902346 72.22265625 138.80859375 C74.94176426 133.60455928 76.83328523 128.46818607 78.453125 122.83203125 C79.41015625 120.43359375 79.41015625 120.43359375 82.41015625 118.43359375 C85.25662184 117.99808451 88.04868856 117.64577554 90.91015625 117.37109375 C96.74104005 116.83342218 96.74104005 116.83342218 102.41015625 115.43359375 C102.41015625 110.15359375 102.41015625 104.87359375 102.41015625 99.43359375 C100.18845703 99.19576172 100.18845703 99.19576172 97.921875 98.953125 C95.98032462 98.71863824 94.03892562 98.48289569 92.09765625 98.24609375 C91.12119141 98.14490234 90.14472656 98.04371094 89.13867188 97.93945312 C81.95631333 97.02623228 81.95631333 97.02623228 79.390625 94.2421875 C79.06707031 93.31535156 78.74351562 92.38851562 78.41015625 91.43359375 C78.01054687 90.36625 77.6109375 89.29890625 77.19921875 88.19921875 C76.81507813 87.0390625 76.4309375 85.87890625 76.03515625 84.68359375 C74.25902011 79.52794022 72.27714129 74.98075512 69.328125 70.3984375 C68.0562498 67.67608335 67.85084907 66.43079709 68.41015625 63.43359375 C70.17354159 60.62805262 72.26714 58.14299913 74.41015625 55.62109375 C74.9825 54.92822266 75.55484375 54.23535156 76.14453125 53.52148438 C77.55580828 51.8161913 78.97764382 50.12105022 80.41015625 48.43359375 C78.80480338 45.02299972 77.00496724 42.81566891 74.28515625 40.18359375 C73.19847656 39.12398437 73.19847656 39.12398437 72.08984375 38.04296875 C71.53554688 37.511875 70.98125 36.98078125 70.41015625 36.43359375 C67.71342095 37.59412909 65.4846008 39.07707836 63.16796875 40.8515625 C62.28044922 41.52541992 62.28044922 41.52541992 61.375 42.21289062 C60.1476572 43.15228994 58.92881826 44.10290426 57.71875 45.06445312 C54.6973067 47.32889707 53.18078106 48.43943182 49.31640625 48.41015625 C46.2726205 47.38737878 43.60558596 46.15562507 40.78515625 44.62109375 C35.58112178 41.90198574 30.44474857 40.01046477 24.80859375 38.390625 C22.41015625 37.43359375 22.41015625 37.43359375 20.41015625 34.43359375 C19.97464701 31.58712816 19.62233804 28.79506144 19.34765625 25.93359375 C18.80998468 20.10270995 18.80998468 20.10270995 17.41015625 14.43359375 C12.13015625 14.43359375 6.85015625 14.43359375 1.41015625 14.43359375 Z " fill="#040302" transform="translate(246.58984375,64.56640625)"/>
<path d="M0 0 C8.93436597 7.0358132 15.99356296 17.35446649 18.25 28.66015625 C19.92367508 44.11549961 17.09349586 56.61522061 7.5 68.96875 C-0.79230978 78.1700245 -12.32061685 84.35530398 -24.71484375 85.18359375 C-39.1271049 85.57480605 -51.63985126 81.65838198 -62.375 71.65625 C-71.43332009 61.73838129 -76.26025699 49.46878534 -75.75 36.05859375 C-74.62232795 22.12127198 -69.07511467 10.3436216 -58.5 0.96875 C-40.40848926 -12.13029466 -18.55532411 -12.72981538 0 0 Z " fill="#040301" transform="translate(284.5,134.03125)"/>
<path d="M0 0 C8.37146233 5.59236463 12.86238425 12.58715276 16 22 C16.94548605 33.91932418 15.51149469 42.17917037 7.75 51.375 C3.86584979 55.43079024 0.31016711 58.17330252 -5 60 C-5.62390625 60.22171875 -6.2478125 60.4434375 -6.890625 60.671875 C-15.12341853 63.14840639 -23.64938052 63.00574213 -31.51171875 59.45703125 C-38.99078159 55.07761141 -45.14978582 49.28550635 -48 41 C-48.22171875 40.37609375 -48.4434375 39.7521875 -48.671875 39.109375 C-51.14768699 30.87897296 -51.01412137 22.33966921 -47.44921875 14.484375 C-37.04323195 -3.35445951 -18.53928143 -8.52301538 0 0 Z " fill="#E3F5F9" transform="translate(273,143)"/>
<path d="M0 0 C1.95873047 -0.0309375 1.95873047 -0.0309375 3.95703125 -0.0625 C5.20613281 -0.06765625 6.45523437 -0.0728125 7.7421875 -0.078125 C9.46864502 -0.09214355 9.46864502 -0.09214355 11.22998047 -0.10644531 C14.125 0.25 14.125 0.25 15.99267578 1.59082031 C17.82539782 4.27628366 17.63088289 6.08823193 17.125 9.25 C15.46119954 11.78478325 14.70251002 12.82109748 12.125 14.25 C7.92675147 14.97549149 3.81221242 14.90199309 -0.4375 14.8125 C-1.57380859 14.82345703 -2.71011719 14.83441406 -3.88085938 14.84570312 C-12.24916962 14.77164728 -12.24916962 14.77164728 -15.17163086 12.33569336 C-16.97015345 10.13348919 -17.78900483 9.08784064 -17.875 6.25 C-13.71773527 -1.87556289 -8.52990323 0.03348343 0 0 Z " fill="#010101" transform="translate(359.875,28.75)"/>
<path d="M0 0 C1.37961914 -0.03673828 1.37961914 -0.03673828 2.78710938 -0.07421875 C3.67076172 -0.07808594 4.55441406 -0.08195312 5.46484375 -0.0859375 C6.27429443 -0.09415527 7.08374512 -0.10237305 7.91772461 -0.11083984 C10.0625 0.375 10.0625 0.375 11.86157227 2.17724609 C13.66196127 5.47204215 12.91881478 7.81800016 12.0625 11.375 C8.77178316 14.66571684 4.59484495 13.74376156 0.125 13.75 C-1.25461914 13.78673828 -1.25461914 13.78673828 -2.66210938 13.82421875 C-3.54576172 13.82808594 -4.42941406 13.83195312 -5.33984375 13.8359375 C-6.55401978 13.84826416 -6.55401978 13.84826416 -7.79272461 13.86083984 C-9.9375 13.375 -9.9375 13.375 -11.73657227 11.57275391 C-13.53696127 8.27795785 -12.79381478 5.93199984 -11.9375 2.375 C-8.64678316 -0.91571684 -4.46984495 0.00623844 0 0 Z " fill="#010102" transform="translate(255.9375,378.625)"/>
<path d="M0 0 C2.5 1.625 2.5 1.625 4 4 C4.63656938 7.73984509 4.25584708 9.50962644 2.5 12.875 C-0.52915683 15.44978331 -2.20650771 15.74545844 -6.09375 15.484375 C-8 15 -8 15 -10.5 12.875 C-12.25584708 9.50962644 -12.63656938 7.73984509 -12 4 C-9.04906701 -0.67231057 -5.10537385 -1.0252595 0 0 Z " fill="#010203" transform="translate(315,394)"/>
<path d="M0 0 C2.5 1.625 2.5 1.625 4 4 C4.63656938 7.73984509 4.25584708 9.50962644 2.5 12.875 C-0.52915683 15.44978331 -2.20650771 15.74545844 -6.09375 15.484375 C-8 15 -8 15 -10.5 12.875 C-12.25584708 9.50962644 -12.63656938 7.73984509 -12 4 C-9.04906701 -0.67231057 -5.10537385 -1.0252595 0 0 Z " fill="#010203" transform="translate(205,394)"/>
<path d="M0 0 C2.5 1.625 2.5 1.625 4 4 C4.63656938 7.73984509 4.25584708 9.50962644 2.5 12.875 C-0.52915683 15.44978331 -2.20650771 15.74545844 -6.09375 15.484375 C-8 15 -8 15 -10.5 12.875 C-12.25584708 9.50962644 -12.63656938 7.73984509 -12 4 C-9.04906701 -0.67231057 -5.10537385 -1.0252595 0 0 Z " fill="#010203" transform="translate(331,378)"/>
<path d="M0 0 C2.5 1.625 2.5 1.625 4 4 C4.63656938 7.73984509 4.25584708 9.50962644 2.5 12.875 C-0.52915683 15.44978331 -2.20650771 15.74545844 -6.09375 15.484375 C-8 15 -8 15 -10.5 12.875 C-12.25584708 9.50962644 -12.63656938 7.73984509 -12 4 C-9.04906701 -0.67231057 -5.10537385 -1.0252595 0 0 Z " fill="#010203" transform="translate(299,378)"/>
<path d="M0 0 C2.5 1.625 2.5 1.625 4 4 C4.63656938 7.73984509 4.25584708 9.50962644 2.5 12.875 C-0.52915683 15.44978331 -2.20650771 15.74545844 -6.09375 15.484375 C-8 15 -8 15 -10.5 12.875 C-12.25584708 9.50962644 -12.63656938 7.73984509 -12 4 C-9.04906701 -0.67231057 -5.10537385 -1.0252595 0 0 Z " fill="#010203" transform="translate(221,378)"/>
<path d="M0 0 C2.5 1.625 2.5 1.625 4 4 C4.63656938 7.73984509 4.25584708 9.50962644 2.5 12.875 C-0.52915683 15.44978331 -2.20650771 15.74545844 -6.09375 15.484375 C-8 15 -8 15 -10.5 12.875 C-12.25584708 9.50962644 -12.63656938 7.73984509 -12 4 C-9.04906701 -0.67231057 -5.10537385 -1.0252595 0 0 Z " fill="#010203" transform="translate(189,378)"/>
<path d="M0 0 C2.5 1.625 2.5 1.625 4 4 C4.63656938 7.73984509 4.25584708 9.50962644 2.5 12.875 C-0.52915683 15.44978331 -2.20650771 15.74545844 -6.09375 15.484375 C-8 15 -8 15 -10.5 12.875 C-12.25584708 9.50962644 -12.63656938 7.73984509 -12 4 C-9.04906701 -0.67231057 -5.10537385 -1.0252595 0 0 Z " fill="#010203" transform="translate(315,362)"/>
<path d="M0 0 C2.5 1.625 2.5 1.625 4 4 C4.63656938 7.73984509 4.25584708 9.50962644 2.5 12.875 C-0.52915683 15.44978331 -2.20650771 15.74545844 -6.09375 15.484375 C-8 15 -8 15 -10.5 12.875 C-12.25584708 9.50962644 -12.63656938 7.73984509 -12 4 C-9.04906701 -0.67231057 -5.10537385 -1.0252595 0 0 Z " fill="#010203" transform="translate(205,362)"/>
</svg>
