<?xml version="1.0" encoding="UTF-8"?>
<svg version="1.1" xmlns="http://www.w3.org/2000/svg" width="512" height="512">
<path d="M0 0 C8.268054 4.23737767 12.2733898 9.57016939 15.1875 18.3125 C15.29287293 19.76385993 15.34501024 21.21942508 15.36362076 22.67448616 C15.37732908 23.57130769 15.39103741 24.46812922 15.40516114 25.39212716 C15.41520858 26.37874112 15.42525601 27.36535509 15.43560791 28.38186646 C15.45699817 29.95328048 15.45699817 29.95328048 15.47882056 31.55644023 C15.52514928 35.08592258 15.56402065 38.61544384 15.60253906 42.14501953 C15.63335143 44.67004085 15.66433078 47.19506014 15.69546509 49.72007751 C15.97095726 72.91506556 16.12823366 96.11118987 16.25406265 119.30742073 C16.27126582 122.42239695 16.28880629 125.53737108 16.30664062 128.65234375 C16.31105902 129.4264242 16.31547742 130.20050466 16.32002971 130.99804209 C16.39308711 143.44178884 16.53632356 155.88372349 16.70753863 168.32646419 C16.88259861 181.15797145 16.98252512 193.98855127 17.01585174 206.82121551 C17.03649396 214.00329221 17.08872715 221.18187668 17.22693634 228.36273575 C17.85669793 262.08506779 15.79519008 289.56044917 -1.87131119 319.06956291 C-3.77097818 322.12297014 -3.77097818 322.12297014 -4.94750595 324.7156086 C-5.8125 326.3125 -5.8125 326.3125 -7.9375 327.0625 C-8.55625 327.145 -9.175 327.2275 -9.8125 327.3125 C-9.80361755 328.12158813 -9.79473511 328.93067627 -9.7855835 329.76428223 C-9.7052125 337.41415165 -9.64442197 345.06381442 -9.60525131 352.71399689 C-9.58443573 356.64642955 -9.55622993 360.57851139 -9.51074219 364.51074219 C-9.467067 368.31035274 -9.44331761 372.10962727 -9.43299103 375.9094696 C-9.42563826 377.35427637 -9.41128032 378.79906614 -9.38957977 380.24372864 C-9.25949541 389.26817949 -9.49654833 396.10116441 -15.48828125 403.3359375 C-16.02839844 403.78195312 -16.56851562 404.22796875 -17.125 404.6875 C-17.65738281 405.14898437 -18.18976563 405.61046875 -18.73828125 406.0859375 C-24.312543 409.38220528 -30.10472115 409.60042263 -36.39891052 409.55300903 C-37.65744901 409.55557231 -37.65744901 409.55557231 -38.94141251 409.55818737 C-41.73894334 409.56146865 -44.53623168 409.55050109 -47.33374023 409.53955078 C-49.34459935 409.53898637 -51.35545887 409.53930381 -53.36631775 409.54043579 C-58.81617887 409.54100915 -64.26595178 409.52925753 -69.71579242 409.51528788 C-75.41461409 409.50277772 -81.11343783 409.50160979 -86.81227112 409.49923706 C-97.59976112 409.49302314 -108.38721054 409.47661348 -119.17468268 409.45653808 C-131.45755606 409.43417638 -143.7404314 409.42318496 -156.02332008 409.41314721 C-181.28640254 409.3922472 -206.549449 409.35707289 -231.8125 409.3125 C-232.09747345 410.247453 -232.3824469 411.18240601 -232.67605591 412.14569092 C-234.04001774 415.94649973 -235.81996787 417.80743724 -238.6796875 420.640625 C-239.3936821 421.35324493 -239.3936821 421.35324493 -240.12210083 422.08026123 C-241.12436335 423.07651383 -242.13145037 424.06793403 -243.14306641 425.0546875 C-244.68651864 426.56154191 -246.21327477 428.08387769 -247.73828125 429.609375 C-257.12157938 438.89851221 -257.12157938 438.89851221 -263.0625 439.8125 C-269.32258739 438.97782168 -272.9539371 434.94364381 -277.58984375 430.875 C-278.55019531 430.05 -279.51054687 429.225 -280.5 428.375 C-281.39074219 427.58222656 -282.28148437 426.78945313 -283.19921875 425.97265625 C-285.62997088 424.04399979 -285.62997088 424.04399979 -288.14379883 424.57983398 C-290.90478668 425.33783641 -293.47957059 426.28155584 -296.125 427.375 C-297.00800781 427.73722656 -297.89101563 428.09945313 -298.80078125 428.47265625 C-299.79658203 428.88837891 -299.79658203 428.88837891 -300.8125 429.3125 C-300.87719482 430.04364014 -300.94188965 430.77478027 -301.00854492 431.52807617 C-301.31599858 434.85464558 -301.65761504 438.17685186 -302 441.5 C-302.15178711 443.22573242 -302.15178711 443.22573242 -302.30664062 444.98632812 C-303.32884888 454.51772945 -303.32884888 454.51772945 -306.30078125 457.55078125 C-310.49406219 460.4919472 -313.67519809 460.50210715 -318.671875 460.55078125 C-319.45387268 460.558853 -320.23587036 460.56692474 -321.04156494 460.57524109 C-322.69923689 460.5890822 -324.35693735 460.59980424 -326.01464844 460.60766602 C-328.53896879 460.62483991 -331.06196586 460.66871865 -333.5859375 460.71289062 C-335.19790705 460.7230213 -336.80988773 460.73153623 -338.421875 460.73828125 C-339.17208923 460.75578934 -339.92230347 460.77329742 -340.69525146 460.79133606 C-345.8783923 460.77009368 -348.88548167 459.69099553 -352.8125 456.3125 C-353.84347058 453.44800689 -354.4143097 451.26903116 -354.8125 448.3125 C-354.92110352 447.51199219 -355.02970703 446.71148437 -355.14160156 445.88671875 C-355.44659472 443.36439595 -355.70047502 440.84206166 -355.9375 438.3125 C-356.02386719 437.44238281 -356.11023438 436.57226562 -356.19921875 435.67578125 C-356.40894607 433.55520501 -356.61147842 431.43391921 -356.8125 429.3125 C-358.72290052 428.4444092 -360.64110737 427.59348217 -362.5625 426.75 C-363.62984375 426.27433594 -364.6971875 425.79867188 -365.796875 425.30859375 C-368.98167258 424.25662045 -369.77704509 424.23308735 -372.8125 425.3125 C-375.03593303 427.05603497 -377.1455247 428.81151059 -379.25 430.6875 C-388.70590584 439.04438802 -388.70590584 439.04438802 -394.25 439.75 C-402.69639 438.71272403 -408.36374149 431.06052732 -414.0625 425.3125 C-414.97257812 424.41015625 -415.88265625 423.5078125 -416.8203125 422.578125 C-418.12355469 421.27101563 -418.12355469 421.27101563 -419.453125 419.9375 C-420.24235352 419.14601563 -421.03158203 418.35453125 -421.84472656 417.5390625 C-424.61995901 414.39884911 -425.67602082 412.19961468 -426.3125 408.0625 C-425.47782168 401.80241261 -421.44364381 398.1710629 -417.375 393.53515625 C-416.55 392.57480469 -415.725 391.61445313 -414.875 390.625 C-414.08222656 389.73425781 -413.28945313 388.84351563 -412.47265625 387.92578125 C-410.54399979 385.49502912 -410.54399979 385.49502912 -411.07983398 382.98120117 C-411.83783641 380.22021332 -412.78155584 377.64542941 -413.875 375 C-414.41833984 373.67548828 -414.41833984 373.67548828 -414.97265625 372.32421875 C-415.24980469 371.66035156 -415.52695312 370.99648438 -415.8125 370.3125 C-416.54364014 370.24780518 -417.27478027 370.18311035 -418.02807617 370.11645508 C-421.35464558 369.80900142 -424.67685186 369.46738496 -428 369.125 C-429.15048828 369.02380859 -430.30097656 368.92261719 -431.48632812 368.81835938 C-441.01772945 367.79615112 -441.01772945 367.79615112 -444.05078125 364.82421875 C-446.9919472 360.63093781 -447.00210715 357.44980191 -447.05078125 352.453125 C-447.058853 351.67112732 -447.06692474 350.88912964 -447.07524109 350.08343506 C-447.0890822 348.42576311 -447.09980424 346.76806265 -447.10766602 345.11035156 C-447.12483991 342.58603121 -447.16871865 340.06303414 -447.21289062 337.5390625 C-447.2230213 335.92709295 -447.23153623 334.31511227 -447.23828125 332.703125 C-447.25578934 331.95291077 -447.27329742 331.20269653 -447.29133606 330.42974854 C-447.27009368 325.2466077 -446.19099553 322.23951833 -442.8125 318.3125 C-439.94800689 317.28152942 -437.76903116 316.7106903 -434.8125 316.3125 C-434.01199219 316.20389648 -433.21148437 316.09529297 -432.38671875 315.98339844 C-429.86439595 315.67840528 -427.34206166 315.42452498 -424.8125 315.1875 C-423.94238281 315.10113281 -423.07226562 315.01476562 -422.17578125 314.92578125 C-420.05520501 314.71605393 -417.93391921 314.51352158 -415.8125 314.3125 C-414.9444092 312.40209948 -414.09348217 310.48389263 -413.25 308.5625 C-412.77433594 307.49515625 -412.29867187 306.4278125 -411.80859375 305.328125 C-410.75662045 302.14332742 -410.73308735 301.34795491 -411.8125 298.3125 C-413.55603497 296.08906697 -415.31151059 293.9794753 -417.1875 291.875 C-425.54438802 282.41909416 -425.54438802 282.41909416 -426.25 276.875 C-425.21971473 268.4855342 -417.62536911 262.75857671 -411.9375 257.0625 C-411.05191406 256.15242188 -410.16632813 255.24234375 -409.25390625 254.3046875 C-407.95646484 253.00144531 -407.95646484 253.00144531 -406.6328125 251.671875 C-405.85180176 250.88264648 -405.07079102 250.09341797 -404.26611328 249.28027344 C-401.53161658 247.08723429 -399.13563769 246.33631384 -395.8125 245.3125 C-395.90928826 244.2110455 -395.90928826 244.2110455 -396.00803185 243.0873394 C-397.58469573 224.8419943 -398.72563586 206.61072857 -399.43935204 188.31088066 C-399.79430786 179.45381241 -400.27390062 170.64360573 -401.09326172 161.81640625 C-404.58942951 123.20465054 -401.48027675 88.59082613 -376.1074357 57.4886179 C-352.75763763 30.10439664 -326.01824088 17.52455448 -290.62936637 14.67594251 C-257.69942786 12.22339861 -224.54554872 13.70306258 -191.60981882 15.27055919 C-179.69823214 15.83128158 -167.79052837 16.20941968 -155.86865234 16.46728516 C-154.59689523 16.49487112 -154.59689523 16.49487112 -153.29944606 16.52301438 C-149.04305899 16.61441401 -144.78661666 16.70286221 -140.5301373 16.78984761 C-105.60323523 17.50738522 -70.71066025 18.73238479 -35.8125 20.3125 C-35.6271167 19.63558105 -35.4417334 18.95866211 -35.25073242 18.26123047 C-34.99654541 17.36807129 -34.7423584 16.47491211 -34.48046875 15.5546875 C-34.1095813 14.22993408 -34.1095813 14.22993408 -33.73120117 12.87841797 C-31.68942362 7.17576528 -27.93110643 3.66858419 -22.625 0.9375 C-15.26094785 -2.40319427 -7.59932872 -3.19971735 0 0 Z " fill="#F0E7DB" transform="translate(471.8125,26.6875)"/>
<path d="M0 0 C1.10216354 -0.0099852 1.10216354 -0.0099852 2.22659302 -0.02017212 C3.77815252 -0.03027698 5.32975529 -0.03498981 6.88134766 -0.03466797 C9.24324959 -0.03903557 11.60327287 -0.07535821 13.96484375 -0.11328125 C15.47655615 -0.11915124 16.98827737 -0.12311941 18.5 -0.125 C19.20019257 -0.13937103 19.90038513 -0.15374207 20.62179565 -0.16854858 C25.66624735 -0.12203595 28.50889637 1.15905321 32.3828125 4.3359375 C34.56632705 7.61120932 34.73108715 9.03764524 35.015625 12.87890625 C35.09941406 13.95205078 35.18320313 15.02519531 35.26953125 16.13085938 C35.34816406 17.25041016 35.42679688 18.36996094 35.5078125 19.5234375 C35.59417969 20.65458984 35.68054688 21.78574219 35.76953125 22.95117188 C35.98176665 25.74560464 36.18586731 28.54039231 36.3828125 31.3359375 C38.62532128 32.39723176 40.87430339 33.43474983 43.1328125 34.4609375 C43.76703125 34.76386719 44.40125 35.06679688 45.0546875 35.37890625 C48.61733571 37.0307099 48.61733571 37.0307099 52.42578125 36.859375 C55.33609792 34.59385903 58.16365694 32.25776135 60.9453125 29.8359375 C70.55034843 21.5294595 70.55034843 21.5294595 76.875 21.72265625 C81.6219034 22.88350334 84.57966909 26.37334791 87.89208984 29.80273438 C89.58696551 31.54590817 91.32008405 33.24567464 93.05859375 34.9453125 C95.54158945 37.38562331 98.02049695 39.82943399 100.4765625 42.296875 C100.98896484 42.81040527 101.50136719 43.32393555 102.02929688 43.85302734 C105.07621185 47.19122388 106.22011071 50.04995037 106.16796875 54.59375 C104.51848807 60.35462284 99.74790527 64.56005801 95.74633789 68.86083984 C93.82025861 70.9445231 92.01342629 73.01102343 90.3828125 75.3359375 C90.85134872 78.32999329 90.85134872 78.32999329 92.3828125 81.3359375 C95.3828125 88.06799492 95.3828125 88.06799492 95.3828125 91.3359375 C96.07842285 91.37557617 96.7740332 91.41521484 97.49072266 91.45605469 C100.66451992 91.64744476 103.83584139 91.86642393 107.0078125 92.0859375 C108.64943359 92.17875 108.64943359 92.17875 110.32421875 92.2734375 C116.48555138 92.72153442 120.70407712 93.1522219 125.3828125 97.3359375 C127.85718458 102.28468166 126.69568815 109.94217344 126.73291016 115.44750977 C126.74946341 117.24288908 126.7767454 119.03820266 126.81494141 120.83325195 C126.86978173 123.42433791 126.89159398 126.01388018 126.90625 128.60546875 C126.92891937 129.40459183 126.95158875 130.2037149 126.97494507 131.02705383 C126.95872839 135.31705321 126.77110271 136.85484663 123.97509766 140.3190918 C120.40145959 143.09944818 118.39864955 143.51889773 113.9375 143.87109375 C112.32294922 144.00161133 112.32294922 144.00161133 110.67578125 144.13476562 C109.54785156 144.22177734 108.41992188 144.30878906 107.2578125 144.3984375 C105.55431641 144.53475586 105.55431641 144.53475586 103.81640625 144.67382812 C101.00548049 144.89822976 98.19430484 145.11876916 95.3828125 145.3359375 C95.18945312 145.98820313 94.99609375 146.64046875 94.796875 147.3125 C94.53648437 148.18648437 94.27609375 149.06046875 94.0078125 149.9609375 C93.74387695 150.87834717 93.47994141 151.79575684 93.20800781 152.7409668 C92.3828125 155.3359375 92.3828125 155.3359375 90.8046875 158.48046875 C90.09386103 161.26210653 90.09386103 161.26210653 91.41601562 163.14990234 C93.05863952 165.22083367 94.79901262 167.11997582 96.6328125 169.0234375 C97.8473259 170.33894728 99.0609049 171.6553205 100.2734375 172.97265625 C100.82032227 173.54717529 101.36720703 174.12169434 101.93066406 174.71362305 C104.88287194 178.01177727 105.81747013 180.80150633 106.625 185.10546875 C105.81416746 192.57297492 97.35186604 198.65947585 92.3828125 203.5859375 C91.48046875 204.49601563 90.578125 205.40609375 89.6484375 206.34375 C88.34132812 207.64699219 88.34132812 207.64699219 87.0078125 208.9765625 C86.21632812 209.76579102 85.42484375 210.55501953 84.609375 211.36816406 C81.46916161 214.14339651 79.26992718 215.19945832 75.1328125 215.8359375 C68.87272511 215.00125918 65.2413754 210.96708131 60.60546875 206.8984375 C59.64511719 206.0734375 58.68476563 205.2484375 57.6953125 204.3984375 C56.80457031 203.60566406 55.91382813 202.81289063 54.99609375 201.99609375 C52.56534162 200.06743729 52.56534162 200.06743729 50.05151367 200.60327148 C47.29052582 201.36127391 44.71574191 202.30499334 42.0703125 203.3984375 C41.18730469 203.76066406 40.30429688 204.12289062 39.39453125 204.49609375 C38.73066406 204.77324219 38.06679687 205.05039062 37.3828125 205.3359375 C37.31811768 206.06707764 37.25342285 206.79821777 37.18676758 207.55151367 C36.87931392 210.87808308 36.53769746 214.20028936 36.1953125 217.5234375 C36.09412109 218.67392578 35.99292969 219.82441406 35.88867188 221.00976562 C34.86646362 230.54116695 34.86646362 230.54116695 31.89453125 233.57421875 C27.70125031 236.5153847 24.52011441 236.52554465 19.5234375 236.57421875 C18.74143982 236.5822905 17.95944214 236.59036224 17.15374756 236.59867859 C15.49607561 236.6125197 13.83837515 236.62324174 12.18066406 236.63110352 C9.65634371 236.64827741 7.13334664 236.69215615 4.609375 236.73632812 C2.99740545 236.7464588 1.38542477 236.75497373 -0.2265625 236.76171875 C-0.97677673 236.77922684 -1.72699097 236.79673492 -2.49993896 236.81477356 C-7.6830798 236.79353118 -10.69016917 235.71443303 -14.6171875 232.3359375 C-15.64815808 229.47144439 -16.2189972 227.29246866 -16.6171875 224.3359375 C-16.72579102 223.53542969 -16.83439453 222.73492187 -16.94628906 221.91015625 C-17.25128222 219.38783345 -17.50516252 216.86549916 -17.7421875 214.3359375 C-17.82855469 213.46582031 -17.91492188 212.59570312 -18.00390625 211.69921875 C-18.21363357 209.57864251 -18.41616592 207.45735671 -18.6171875 205.3359375 C-20.52758802 204.4678467 -22.44579487 203.61691967 -24.3671875 202.7734375 C-25.43453125 202.29777344 -26.501875 201.82210937 -27.6015625 201.33203125 C-30.78636008 200.28005795 -31.58173259 200.25652485 -34.6171875 201.3359375 C-36.84062053 203.07947247 -38.9502122 204.83494809 -41.0546875 206.7109375 C-50.51059334 215.06782552 -50.51059334 215.06782552 -56.0546875 215.7734375 C-64.5010775 214.73616153 -70.16842899 207.08396482 -75.8671875 201.3359375 C-76.77726562 200.43359375 -77.68734375 199.53125 -78.625 198.6015625 C-79.92824219 197.29445313 -79.92824219 197.29445313 -81.2578125 195.9609375 C-82.04704102 195.16945313 -82.83626953 194.37796875 -83.64941406 193.5625 C-86.42464651 190.42228661 -87.48070832 188.22305218 -88.1171875 184.0859375 C-87.28250918 177.82585011 -83.24833131 174.1945004 -79.1796875 169.55859375 C-77.9421875 168.11806641 -77.9421875 168.11806641 -76.6796875 166.6484375 C-75.88691406 165.75769531 -75.09414062 164.86695313 -74.27734375 163.94921875 C-72.34868729 161.51846662 -72.34868729 161.51846662 -72.88452148 159.00463867 C-73.64252391 156.24365082 -74.58624334 153.66886691 -75.6796875 151.0234375 C-76.04191406 150.14042969 -76.40414062 149.25742187 -76.77734375 148.34765625 C-77.05449219 147.68378906 -77.33164063 147.01992188 -77.6171875 146.3359375 C-78.34832764 146.27124268 -79.07946777 146.20654785 -79.83276367 146.13989258 C-83.15933308 145.83243892 -86.48153936 145.49082246 -89.8046875 145.1484375 C-90.95517578 145.04724609 -92.10566406 144.94605469 -93.29101562 144.84179688 C-102.82241695 143.81958862 -102.82241695 143.81958862 -105.85546875 140.84765625 C-108.7966347 136.65437531 -108.80679465 133.47323941 -108.85546875 128.4765625 C-108.8635405 127.69456482 -108.87161224 126.91256714 -108.87992859 126.10687256 C-108.8937697 124.44920061 -108.90449174 122.79150015 -108.91235352 121.13378906 C-108.92952741 118.60946871 -108.97340615 116.08647164 -109.01757812 113.5625 C-109.0277088 111.95053045 -109.03622373 110.33854977 -109.04296875 108.7265625 C-109.06047684 107.97634827 -109.07798492 107.22613403 -109.09602356 106.45318604 C-109.07478118 101.2700452 -107.99568303 98.26295583 -104.6171875 94.3359375 C-101.75269439 93.30496692 -99.57371866 92.7341278 -96.6171875 92.3359375 C-95.81667969 92.22733398 -95.01617187 92.11873047 -94.19140625 92.00683594 C-91.66908345 91.70184278 -89.14674916 91.44796248 -86.6171875 91.2109375 C-85.74707031 91.12457031 -84.87695312 91.03820312 -83.98046875 90.94921875 C-81.85989251 90.73949143 -79.73860671 90.53695908 -77.6171875 90.3359375 C-76.7490967 88.42553698 -75.89816967 86.50733013 -75.0546875 84.5859375 C-74.57902344 83.51859375 -74.10335937 82.45125 -73.61328125 81.3515625 C-72.56130795 78.16676492 -72.53777485 77.37139241 -73.6171875 74.3359375 C-75.36072247 72.11250447 -77.11619809 70.0029128 -78.9921875 67.8984375 C-87.34907552 58.44253166 -87.34907552 58.44253166 -88.0546875 52.8984375 C-87.01741153 44.4520475 -79.36521482 38.78469601 -73.6171875 33.0859375 C-72.71484375 32.17585938 -71.8125 31.26578125 -70.8828125 30.328125 C-70.01140625 29.45929688 -69.14 28.59046875 -68.2421875 27.6953125 C-67.45070312 26.90608398 -66.65921875 26.11685547 -65.84375 25.30371094 C-62.8498002 22.65774214 -60.69900094 21.4770436 -56.7421875 20.9609375 C-51.48997982 21.59120242 -47.96259741 24.94066305 -44.1796875 28.421875 C-43.59445313 28.95941406 -43.00921875 29.49695313 -42.40625 30.05078125 C-41.20178977 31.16845723 -40.00918315 32.29902904 -38.828125 33.44140625 C-37.14552688 34.96463935 -35.61041798 36.24967346 -33.6171875 37.3359375 C-30.63905968 37.0666599 -30.63905968 37.0666599 -27.6171875 35.3359375 C-25.82988995 34.61665102 -24.03789868 33.90895392 -22.2421875 33.2109375 C-20.69983673 32.5876276 -19.15793558 31.96319858 -17.6171875 31.3359375 C-17.57754883 30.63509033 -17.53791016 29.93424316 -17.49707031 29.2121582 C-17.30599881 26.02279477 -17.08688977 22.83595133 -16.8671875 19.6484375 C-16.774375 17.99424805 -16.774375 17.99424805 -16.6796875 16.30664062 C-16.08795787 8.14570277 -16.08795787 8.14570277 -13.7890625 4.19140625 C-9.37878247 0.42363104 -5.69453493 0.01799671 0 0 Z " fill="#3ABAE5" transform="translate(133.6171875,250.6640625)"/>
<path d="M0 0 C12.45102757 -0.05919791 24.86978443 0.02708734 37.3125 0.5 C38.6620971 0.54851972 40.01170657 0.59669656 41.36132812 0.64453125 C44.57435562 0.75969353 47.78721992 0.87816386 51 1 C51.44729429 27.28052275 51.78055211 53.56046116 51.98443127 79.84404659 C52.08168745 92.05301905 52.21383361 104.2596037 52.43334961 116.46704102 C52.62497844 127.12889619 52.7458235 137.78902016 52.7876814 148.45254999 C52.81208671 154.08039037 52.8678103 159.70328643 53.00887108 165.32951164 C53.78872595 197.6721285 47.92992678 220.81413123 32 249 C31.64089129 249.79667556 31.28178259 250.59335112 30.9117918 251.41416836 C30 253 30 253 27.125 254 C24 254 24 254 22.05493164 252.5012207 C19.37503747 249.2393084 17.74956267 245.80165621 15.99609375 241.98046875 C15.6315358 241.20367264 15.26697784 240.42687653 14.89137268 239.62654114 C13.73191942 237.15057825 12.58471368 234.66915379 11.4375 232.1875 C10.66288039 230.53023836 9.88749733 228.87333334 9.11132812 227.21679688 C7.68225308 224.15857589 6.25497234 221.09957472 4.83764648 218.03588867 C4.55436996 217.42396164 4.27109344 216.81203461 3.97923279 216.18156433 C3.65608597 215.4616481 3.33293915 214.74173187 3 214 C2.49224407 212.97944897 1.98448814 211.95889793 1.46134567 210.90742111 C-0.33733462 206.67546383 -0.41139311 202.84806814 -0.36076355 198.29969788 C-0.36332682 197.44842156 -0.3658901 196.59714525 -0.36853105 195.72007269 C-0.373454 192.88097593 -0.35700068 190.04241652 -0.34057617 187.20336914 C-0.33972958 185.16295382 -0.34020567 183.12253759 -0.34190369 181.0821228 C-0.3427638 175.55164166 -0.32513527 170.02135604 -0.30418181 164.49092031 C-0.2854178 158.70802253 -0.28366478 152.92512018 -0.28010559 147.14219666 C-0.27078434 136.19531109 -0.24616939 125.2485155 -0.21605712 114.30166954 C-0.18251568 101.83742812 -0.16602773 89.37318238 -0.15097082 76.90890706 C-0.11961997 51.27255484 -0.06685783 25.63628246 0 0 Z " fill="#FEB055" transform="translate(436,100)"/>
<path d="M0 0 C1.04450317 0.00326294 1.04450317 0.00326294 2.11010742 0.0065918 C4.23278268 0.00974873 6.35405999 -0.01369198 8.4765625 -0.0390625 C9.82486803 -0.04133583 11.17317731 -0.04203883 12.52148438 -0.04101562 C14.36407837 -0.04548706 14.36407837 -0.04548706 16.24389648 -0.05004883 C19.30664062 0.32226562 19.30664062 0.32226562 20.9742527 1.52765656 C22.75561551 3.92699522 22.68391454 5.433331 22.68759155 8.4083252 C22.69605103 9.45988297 22.7045105 10.51144073 22.71322632 11.59486389 C22.70715363 12.74820724 22.70108093 13.9015506 22.69482422 15.08984375 C22.70008118 16.30465927 22.70533813 17.51947479 22.71075439 18.77110291 C22.721707 22.10386127 22.71912435 25.436062 22.70961714 28.76878929 C22.70202723 32.25476207 22.70906428 35.74071086 22.71377563 39.22668457 C22.71923516 45.08101688 22.71203649 50.9352357 22.69775391 56.78955078 C22.68142692 63.56008198 22.68671529 70.33034217 22.70323312 77.10086679 C22.71684246 82.9115654 22.71877039 88.72218236 22.71091712 94.53289175 C22.70623752 98.00439999 22.70562349 101.47578081 22.71552658 104.94728088 C22.72579309 108.81652378 22.71156779 112.68546256 22.69482422 116.5546875 C22.70089691 117.70803085 22.7069696 118.86137421 22.71322632 120.04966736 C22.70476685 121.10122513 22.69630737 122.1527829 22.68759155 123.23620605 C22.68646048 124.1513372 22.6853294 125.06646835 22.68416405 126.00933075 C22.30664062 128.32226562 22.30664062 128.32226562 21.04739857 130.11759663 C18.8863181 131.61314439 17.68937842 131.69268163 15.07356262 131.68302917 C14.21119492 131.68715317 13.34882721 131.69127716 12.46032715 131.69552612 C11.51733765 131.6847403 10.57434814 131.67395447 9.6027832 131.6628418 C8.60748093 131.66327988 7.61217865 131.66371796 6.5867157 131.66416931 C3.29133604 131.66207646 -0.00353716 131.63872164 -3.29882812 131.61523438 C-5.58140281 131.6096402 -7.8639811 131.60536926 -10.14656067 131.60237122 C-16.15870075 131.59090848 -22.17062393 131.56142882 -28.18267822 131.52825928 C-34.31576605 131.49758928 -40.44888887 131.48387244 -46.58203125 131.46875 C-58.619236 131.43656064 -70.65627966 131.3853469 -82.69335938 131.32226562 C-82.73963529 121.44765774 -82.77520436 111.57307553 -82.79698372 101.69838142 C-82.80743504 97.11349796 -82.82161873 92.52868851 -82.84423828 87.94384766 C-82.86591873 83.52184188 -82.87791783 79.09990744 -82.88311386 74.67785263 C-82.88681827 72.98809562 -82.89405175 71.29834264 -82.90481949 69.60861588 C-82.9192708 67.24761673 -82.92134001 64.88691493 -82.92041016 62.52587891 C-82.92760071 61.82241333 -82.93479126 61.11894775 -82.94219971 60.39416504 C-82.9214637 55.55036995 -82.9214637 55.55036995 -80.69335938 53.32226562 C-78.18415092 53.14730957 -75.78710996 53.09056994 -73.27929688 53.12695312 C-72.54965729 53.12978302 -71.8200177 53.13261292 -71.06826782 53.13552856 C-68.7347991 53.14673561 -66.40171235 53.17184052 -64.06835938 53.19726562 C-62.48763575 53.20729478 -60.90690611 53.21642074 -59.32617188 53.22460938 C-55.44842023 53.24667657 -51.57095459 53.28120948 -47.69335938 53.32226562 C-47.70906982 52.20198975 -47.70906982 52.20198975 -47.72509766 51.05908203 C-47.76656708 47.68851054 -47.79265666 44.31799263 -47.81835938 40.94726562 C-47.83511719 39.77164063 -47.851875 38.59601563 -47.86914062 37.38476562 C-47.87880859 35.70253906 -47.87880859 35.70253906 -47.88867188 33.98632812 C-47.90438232 32.43099365 -47.90438232 32.43099365 -47.92041016 30.84423828 C-47.69335938 28.32226562 -47.69335938 28.32226562 -45.69335938 26.32226562 C-43.18415092 26.14730957 -40.78710996 26.09056994 -38.27929688 26.12695312 C-37.54965729 26.12978302 -36.8200177 26.13261292 -36.06826782 26.13552856 C-33.7347991 26.14673561 -31.40171235 26.17184052 -29.06835938 26.19726562 C-27.48763575 26.20729478 -25.90690611 26.21642074 -24.32617188 26.22460938 C-20.44842023 26.24667657 -16.57095459 26.28120948 -12.69335938 26.32226562 C-12.70383301 25.60570801 -12.71430664 24.88915039 -12.72509766 24.15087891 C-12.76657237 20.91637657 -12.7926583 17.68193009 -12.81835938 14.44726562 C-12.83511719 13.31933594 -12.851875 12.19140625 -12.86914062 11.02929688 C-12.87558594 9.95292969 -12.88203125 8.8765625 -12.88867188 7.76757812 C-12.89914551 6.77258301 -12.90961914 5.77758789 -12.92041016 4.75244141 C-12.30273841 -1.85863881 -5.04740095 0.02089221 0 0 Z " fill="#F8D36B" transform="translate(384.693359375,128.677734375)"/>
<path d="M0 0 C0.12724862 7.66786897 0.21453993 15.33546351 0.2746582 23.00415039 C0.29973204 25.6103737 0.3337997 28.21652717 0.37719727 30.82250977 C0.4381589 34.5784635 0.46628274 38.33348385 0.48828125 42.08984375 C0.51408768 43.24645004 0.5398941 44.40305634 0.56648254 45.5947113 C0.56897325 52.85247347 -0.43389408 58.20504886 -5 64 C-10.19783358 68.84687019 -14.71030837 70.13451964 -21.640625 70.09765625 C-23.24550781 70.09282227 -23.24550781 70.09282227 -24.8828125 70.08789062 C-25.99398437 70.07951172 -27.10515625 70.07113281 -28.25 70.0625 C-29.93996094 70.05573242 -29.93996094 70.05573242 -31.6640625 70.04882812 C-34.44276217 70.03705397 -37.22135409 70.0206084 -40 70 C-39.99539104 70.86821538 -39.99078207 71.73643076 -39.98603344 72.6309557 C-39.87570831 93.73696279 -39.79291851 114.84292032 -39.74093914 135.94915485 C-39.71513544 146.1559057 -39.67994361 156.36246432 -39.62280273 166.5690918 C-39.57303399 175.4631175 -39.54072475 184.35700402 -39.52955753 193.25116509 C-39.52302766 197.96251823 -39.507636 202.67347312 -39.47134972 207.38469887 C-39.43749319 211.81622573 -39.42692594 216.2471891 -39.43446159 220.67883301 C-39.43308239 222.30789944 -39.42308809 223.93698409 -39.40397263 225.56593895 C-39.37919407 227.78577266 -39.38503631 230.00346246 -39.39872742 232.2233429 C-39.39411845 233.46684163 -39.38950949 234.71034037 -39.38476086 235.99152088 C-40 239 -40 239 -42.40543842 240.96371746 C-45 242 -45 242 -47.11425781 241.35717773 C-48.90072023 240.07145213 -50.5518392 238.77458491 -52.171875 237.28515625 C-53.04585937 236.50301758 -53.04585937 236.50301758 -53.9375 235.70507812 C-55.13532378 234.61955033 -56.3281496 233.52847907 -57.515625 232.43164062 C-58.1034375 231.90892578 -58.69125 231.38621094 -59.296875 230.84765625 C-59.81604492 230.37336182 -60.33521484 229.89906738 -60.87011719 229.41040039 C-62.95229352 228.03159105 -64.79712216 227.26475289 -67.13311768 226.41184998 C-67.85639881 226.14613914 -68.57967995 225.8804283 -69.32487869 225.60666561 C-69.87766872 225.40646596 -70.43045876 225.20626631 -71 225 C-73.13930666 200.65460048 -74.56677782 176.3008211 -75.375 151.875 C-75.40533498 150.98337772 -75.43566997 150.09175544 -75.46692419 149.1731143 C-78.12659364 68.81743271 -78.12659364 68.81743271 -50.809021 38.91082764 C-46.14548464 34.07453283 -41.19991992 29.63727777 -36.0625 25.3125 C-35.22748711 24.6081356 -34.39247421 23.90377121 -33.5321579 23.17806244 C-5.69254443 0 -5.69254443 0 0 0 Z " fill="#EEDBC6" transform="translate(147,47)"/>
<path d="M0 0 C6.27 0 12.54 0 19 0 C18.9792189 2.50972412 18.95843781 5.01944824 18.93702698 7.60522461 C18.74747962 31.37652715 18.64281837 55.14715694 18.61396885 78.91920471 C18.59714962 91.13781135 18.55290987 103.35510434 18.44116211 115.57324219 C18.3436892 126.23857557 18.30067321 136.90259577 18.31963962 147.5683794 C18.3278461 153.20214906 18.31111168 158.83304288 18.22885323 164.46627808 C17.90438735 187.83882611 18.11425966 207.81948173 29.9255228 228.55073547 C30.26941504 229.15577974 30.61330728 229.76082401 30.96762049 230.38420296 C31.90484736 231.99088946 32.88916175 233.56985118 33.87681484 235.14604187 C35 238 35 238 34.24288273 241.22444153 C33.83273143 242.14037582 33.42258013 243.05631012 33 244 C32.71640625 244.75925781 32.4328125 245.51851562 32.140625 246.30078125 C29.75714286 251.68452381 29.75714286 251.68452381 26 253.25 C23 253 23 253 21.06494141 251.48999023 C18.35245045 248.21915844 16.72674852 244.7553617 14.9609375 240.91015625 C14.59400787 240.12861679 14.22707825 239.34707733 13.84902954 238.54185486 C12.68286443 236.05245308 11.52897901 233.55757023 10.375 231.0625 C9.59191041 229.38831404 8.80806396 227.71448187 8.0234375 226.04101562 C6.58590831 222.96566654 5.14948533 219.88984652 3.72412109 216.80883789 C3.43862396 216.19246964 3.15312683 215.57610138 2.85897827 214.9410553 C2.57551544 214.30050705 2.29205261 213.6599588 2 213 C1.65724407 212.31023197 1.31448814 211.62046394 0.96134567 210.90979385 C-0.30028591 207.09109688 -0.269647 203.47731134 -0.24050903 199.50224304 C-0.24221788 198.64859203 -0.24392673 197.79494101 -0.24568737 196.91542178 C-0.24898032 194.05640335 -0.23798171 191.19761985 -0.22705078 188.33862305 C-0.22648663 186.28865057 -0.22680331 184.23867769 -0.22793579 182.18870544 C-0.22851013 176.62302798 -0.21674255 171.05743654 -0.20278788 165.49177909 C-0.19029416 159.67549814 -0.18911109 153.85921527 -0.18673706 148.04292297 C-0.1805183 137.02870462 -0.1641021 126.01452591 -0.14403808 115.00032502 C-0.12169142 102.46115451 -0.11068875 89.92198211 -0.10064721 77.38279665 C-0.07973624 51.58850836 -0.04415016 25.79425807 0 0 Z " fill="#F19B40" transform="translate(437,101)"/>
<path d="M0 0 C1.04450317 0.00326294 1.04450317 0.00326294 2.11010742 0.0065918 C4.23278268 0.00974873 6.35405999 -0.01369198 8.4765625 -0.0390625 C9.82486803 -0.04133583 11.17317731 -0.04203883 12.52148438 -0.04101562 C14.36407837 -0.04548706 14.36407837 -0.04548706 16.24389648 -0.05004883 C19.30664062 0.32226562 19.30664062 0.32226562 20.9742527 1.52765656 C22.75561551 3.92699522 22.68391454 5.433331 22.68759155 8.4083252 C22.70028076 9.98566185 22.70028076 9.98566185 22.71322632 11.59486389 C22.70715363 12.74820724 22.70108093 13.9015506 22.69482422 15.08984375 C22.70008118 16.30465927 22.70533813 17.51947479 22.71075439 18.77110291 C22.721707 22.10386127 22.71912435 25.436062 22.70961714 28.76878929 C22.70202723 32.25476207 22.70906428 35.74071086 22.71377563 39.22668457 C22.71923516 45.08101688 22.71203649 50.9352357 22.69775391 56.78955078 C22.68142692 63.56008198 22.68671529 70.33034217 22.70323312 77.10086679 C22.71684246 82.9115654 22.71877039 88.72218236 22.71091712 94.53289175 C22.70623752 98.00439999 22.70562349 101.47578081 22.71552658 104.94728088 C22.72579309 108.81652378 22.71156779 112.68546256 22.69482422 116.5546875 C22.70393326 118.28470253 22.70393326 118.28470253 22.71322632 120.04966736 C22.70476685 121.10122513 22.69630737 122.1527829 22.68759155 123.23620605 C22.68646048 124.1513372 22.6853294 125.06646835 22.68416405 126.00933075 C22.30664062 128.32226562 22.30664062 128.32226562 21.23864174 130.1218338 C18.29780716 131.94909539 15.3650442 131.69104724 12.01367188 131.61523438 C10.95462898 131.60886711 10.95462898 131.60886711 9.87419128 131.60237122 C7.62211759 131.58559596 5.3709432 131.54794805 3.11914062 131.50976562 C1.59115877 131.4947172 0.06316287 131.48102906 -1.46484375 131.46875 C-5.2080281 131.43569651 -8.95054133 131.38392394 -12.69335938 131.32226562 C-12.74003371 114.5373056 -12.77532576 97.75236576 -12.79698372 80.96735573 C-12.80730616 73.17417866 -12.82138492 65.38104185 -12.84423828 57.58789062 C-12.8641426 50.7971581 -12.87706876 44.00645472 -12.88153636 37.21569383 C-12.88414878 33.61842578 -12.89030903 30.02124116 -12.90481949 26.42399979 C-12.92086844 22.41299961 -12.92134097 18.40214543 -12.92041016 14.39111328 C-12.92760071 13.19205856 -12.93479126 11.99300385 -12.94219971 10.75761414 C-12.93945038 9.66943893 -12.93670105 8.58126373 -12.93386841 7.46011353 C-12.93571199 6.51066675 -12.93755558 5.56121998 -12.93945503 4.58300209 C-12.23937563 -1.84821674 -4.91016405 0.02032416 0 0 Z " fill="#F3644D" transform="translate(384.693359375,128.677734375)"/>
<path d="M0 0 C10.89 0 21.78 0 33 0 C33 25.74 33 51.48 33 78 C21.45 78 9.9 78 -2 78 C-2.08021762 59.11320734 -2.08021762 59.11320734 -2.09765625 51.08203125 C-2.10962653 45.59517566 -2.12380947 40.10838661 -2.15087891 34.62158203 C-2.17255936 30.19957626 -2.18455846 25.77764181 -2.18975449 21.35558701 C-2.19345889 19.66582999 -2.20069237 17.97607702 -2.21146011 16.28635025 C-2.22591143 13.92535111 -2.22798064 11.5646493 -2.22705078 9.20361328 C-2.23424133 8.50014771 -2.24143188 7.79668213 -2.24884033 7.07189941 C-2.22810432 2.22810432 -2.22810432 2.22810432 0 0 Z " fill="#8BC932" transform="translate(304,182)"/>
<path d="M0 0 C0.12724862 7.66786897 0.21453993 15.33546351 0.2746582 23.00415039 C0.29973204 25.6103737 0.3337997 28.21652717 0.37719727 30.82250977 C0.4381589 34.5784635 0.46628274 38.33348385 0.48828125 42.08984375 C0.51408768 43.24645004 0.5398941 44.40305634 0.56648254 45.5947113 C0.56897325 52.85247347 -0.43389408 58.20504886 -5 64 C-10.07120316 68.72879 -14.5457206 70.12965305 -21.31933594 70.11352539 C-22.38013367 70.11344986 -23.4409314 70.11337433 -24.53387451 70.11329651 C-26.24187225 70.10555458 -26.24187225 70.10555458 -27.984375 70.09765625 C-29.15510559 70.0962413 -30.32583618 70.09482635 -31.53204346 70.09336853 C-35.27138829 70.0877709 -39.01067326 70.0752188 -42.75 70.0625 C-45.28515539 70.0574847 -47.82031171 70.05292184 -50.35546875 70.04882812 C-56.57033293 70.03780224 -62.78516219 70.02106644 -69 70 C-67.72915022 67.21946088 -66.42090225 65.17123037 -64.26060486 63.0133667 C-63.70396652 62.45253387 -63.14732819 61.89170105 -62.57382202 61.31387329 C-61.96543488 60.71110565 -61.35704773 60.10833801 -60.73022461 59.48730469 C-60.08780319 58.84298492 -59.44538177 58.19866516 -58.78349304 57.53482056 C-56.66129684 55.40892296 -54.5319923 53.29030502 -52.40234375 51.171875 C-50.92749708 49.69822029 -49.45301971 48.22419589 -47.97889709 46.74981689 C-44.8909526 43.66343601 -41.79967771 40.58044361 -38.70581055 37.5 C-34.73019527 33.54141156 -30.76123202 29.5762347 -26.7945013 25.60874557 C-23.75203329 22.56654873 -20.70697189 19.52695932 -17.66101265 16.48825836 C-16.19590514 15.02634338 -14.73141165 13.56381279 -13.26753044 12.10066986 C-11.22765512 10.06294982 -9.18452925 8.02854944 -7.14038086 5.99511719 C-6.52996948 5.38425262 -5.91955811 4.77338806 -5.29064941 4.14401245 C-1.11447604 0 -1.11447604 0 0 0 Z " fill="#E5CFBD" transform="translate(147,47)"/>
<path d="M0 0 C8.268054 4.23737767 12.2733898 9.57016939 15.1875 18.3125 C15.27016486 20.23156917 15.29490663 22.15339474 15.28515625 24.07421875 C15.28193359 25.19248047 15.27871094 26.31074219 15.27539062 27.46289062 C15.26282227 29.21375977 15.26282227 29.21375977 15.25 31 C15.24548828 32.17884766 15.24097656 33.35769531 15.23632812 34.57226562 C15.22453273 37.48572789 15.2080727 40.39908863 15.1875 43.3125 C-1.81800731 43.95738863 -18.79160727 44.48158172 -35.8125 44.3125 C-35.92977273 40.16690907 -36.00010933 36.02175138 -36.0625 31.875 C-36.09601563 30.71033203 -36.12953125 29.54566406 -36.1640625 28.34570312 C-36.26303187 19.56217151 -34.79021367 13.10916431 -29.5625 6 C-21.74217388 -1.64259144 -10.22507019 -4.30529271 0 0 Z " fill="#F4644C" transform="translate(471.8125,26.6875)"/>
<path d="M0 0 C6.79064682 4.02654792 10.50702117 8.7375596 12.99609375 16.18359375 C14.34408814 24.51771557 12.29931106 30.9172544 7.8984375 37.93359375 C4.03032242 43.17849556 -1.73805463 45.90167 -8.00390625 47.18359375 C-15.74579104 48.13435153 -21.56942686 46.59549067 -28.00390625 42.18359375 C-33.11494074 37.65360318 -36.47985903 32.29445307 -37.35546875 25.42578125 C-37.75905838 17.12033158 -35.94656118 10.61322743 -30.359375 4.3359375 C-21.60318324 -3.70869015 -10.61798596 -5.46987156 0 0 Z " fill="#EDE7DC" transform="translate(155.00390625,346.81640625)"/>
<path d="M0 0 C1.67131989 -0.01051392 1.67131989 -0.01051392 3.37640381 -0.02124023 C7.06442084 -0.03886418 10.75167224 -0.0271803 14.43969727 -0.01367188 C17.00033211 -0.01636569 19.56096595 -0.02024719 22.12159729 -0.02526855 C27.4908414 -0.03116977 32.85981058 -0.02296207 38.22900391 -0.00390625 C44.43099805 0.0178515 50.63246598 0.01081915 56.83444732 -0.01121187 C62.80602286 -0.03157324 68.77743532 -0.02938944 74.7490406 -0.01768494 C77.28758887 -0.01501506 79.82615054 -0.01829654 82.36468315 -0.02760315 C85.91275531 -0.03775481 89.45981574 -0.02228464 93.0078125 0 C94.05888687 -0.00809692 95.10996124 -0.01619385 96.19288635 -0.02453613 C100.61767332 0.02698388 103.33409222 0.09550961 107.2247467 2.33117676 C109.06860352 4.51757812 109.06860352 4.51757812 109.63110352 8.01757812 C109.06860352 11.51757812 109.06860352 11.51757812 107.72338867 13.70397949 C103.45107904 16.62257909 99.08490927 16.07362631 94.02954102 16.03515625 C92.9039679 16.04216553 91.77839478 16.0491748 90.61871338 16.05639648 C86.89342673 16.07401972 83.16889806 16.06233758 79.44360352 16.04882812 C76.85815281 16.05152177 74.27270309 16.05540313 71.68725586 16.0604248 C66.26673819 16.06632577 60.84650606 16.05811825 55.42602539 16.0390625 C49.16152914 16.01729375 42.89755363 16.02434527 36.63306999 16.04636812 C30.60379725 16.06671474 24.57477905 16.06455183 18.54547119 16.05284119 C15.98097664 16.05016937 13.41646883 16.05345954 10.85198975 16.0627594 C7.27018836 16.07289734 3.68939236 16.05746072 0.10766602 16.03515625 C-1.48836456 16.04730164 -1.48836456 16.04730164 -3.11663818 16.05969238 C-10.25768193 15.97714548 -10.25768193 15.97714548 -13.59008789 13.70397949 C-15.57750787 10.46438364 -15.46260101 8.23600984 -14.93139648 4.51757812 C-11.48704871 -1.06885805 -5.86002879 -0.04505581 0 0 Z " fill="#9B9AA1" transform="translate(130.931396484375,179.482421875)"/>
<path d="M0 0 C1.67131989 -0.01051392 1.67131989 -0.01051392 3.37640381 -0.02124023 C7.06442084 -0.03886418 10.75167224 -0.0271803 14.43969727 -0.01367188 C17.00033211 -0.01636569 19.56096595 -0.02024719 22.12159729 -0.02526855 C27.4908414 -0.03116977 32.85981058 -0.02296207 38.22900391 -0.00390625 C44.43099805 0.0178515 50.63246598 0.01081915 56.83444732 -0.01121187 C62.80602286 -0.03157324 68.77743532 -0.02938944 74.7490406 -0.01768494 C77.28758887 -0.01501506 79.82615054 -0.01829654 82.36468315 -0.02760315 C85.91275531 -0.03775481 89.45981574 -0.02228464 93.0078125 0 C94.05888687 -0.00809692 95.10996124 -0.01619385 96.19288635 -0.02453613 C100.61638531 0.02696888 103.33251062 0.09407662 107.22084045 2.33117676 C109.06860352 4.51757812 109.06860352 4.51757812 109.69360352 8.01757812 C109.06860352 11.51757812 109.06860352 11.51757812 107.22084045 13.70397949 C102.54598522 16.39359681 98.31386567 16.07603129 93.0078125 16.03515625 C91.89184692 16.04216553 90.77588135 16.0491748 89.62609863 16.05639648 C85.93871148 16.0739964 82.25209218 16.06234663 78.56469727 16.04882812 C76.00309603 16.05152225 73.4414958 16.05540401 70.87989807 16.0604248 C65.51243404 16.06632244 60.14524521 16.05812892 54.77783203 16.0390625 C48.57522928 16.01728352 42.37315227 16.02435449 36.17056221 16.04636812 C30.1984472 16.06671399 24.22649539 16.06455248 18.25435066 16.05284119 C15.71497588 16.05016973 13.17558771 16.05345828 10.63622856 16.0627594 C7.09045523 16.07289723 3.54569751 16.05746147 0 16.03515625 C-1.0530986 16.04325317 -2.1061972 16.0513501 -3.19120789 16.05969238 C-10.25937477 15.97715392 -10.25937477 15.97715392 -13.58335876 13.70397949 C-15.58003351 10.4655446 -15.46307425 8.23932252 -14.93139648 4.51757812 C-11.48704871 -1.06885805 -5.86002879 -0.04505581 0 0 Z " fill="#9A99A1" transform="translate(294.931396484375,339.482421875)"/>
<path d="M0 0 C1.38594524 0.00050016 2.77191659 0.01154826 4.15771484 0.03173828 C4.80442139 0.03375244 5.45112793 0.0357666 6.11743164 0.0378418 C8.5345773 0.04831053 10.9516219 0.07623318 13.36865234 0.10205078 C21.47427734 0.16392578 21.47427734 0.16392578 29.74365234 0.22705078 C29.74365234 17.38705078 29.74365234 34.54705078 29.74365234 52.22705078 C24.52552734 52.28892578 19.30740234 52.35080078 13.93115234 52.41455078 C12.28783936 52.44186279 10.64452637 52.4691748 8.95141602 52.49731445 C7.01359253 52.50855347 7.01359253 52.50855347 5.03662109 52.52001953 C4.36103149 52.53536743 3.68544189 52.55071533 2.98937988 52.56652832 C-1.78946324 52.56919657 -1.78946324 52.56919657 -3.93795776 50.99472046 C-5.63207234 48.72328696 -5.63081904 47.42148804 -5.62866211 44.60375977 C-5.6348909 43.6694664 -5.64111969 42.73517303 -5.64753723 41.77256775 C-5.63832748 40.76625809 -5.62911774 39.75994843 -5.61962891 38.72314453 C-5.62012741 37.68891861 -5.62062592 36.65469269 -5.62113953 35.58912659 C-5.61879863 33.40274128 -5.60906924 31.2163533 -5.5925293 29.0300293 C-5.5689158 25.67423551 -5.57197095 22.31923475 -5.57861328 18.96337891 C-5.5730374 16.84162936 -5.56592808 14.71988316 -5.55712891 12.59814453 C-5.55804031 11.58981064 -5.55895172 10.58147675 -5.55989075 9.54258728 C-5.55035873 8.61144608 -5.54082672 7.68030487 -5.53100586 6.72094727 C-5.52639847 5.89948715 -5.52179108 5.07802704 -5.51704407 4.23167419 C-5.03529622 0.52727717 -3.5207574 0.24548691 0 0 Z " fill="#55C1EC" transform="translate(272.25634765625,207.77294921875)"/>
<path d="M0 0 C0.99 0 1.98 0 3 0 C4.4375 1.984375 4.4375 1.984375 6 4.75 C14.29307909 18.30465448 26.34002629 29.01020406 40 37 C36.77625241 40.33120584 33.42036032 43.49562556 30 46.625 C29.175 47.38039063 28.35 48.13578125 27.5 48.9140625 C23.90971098 51.9097099 21.24320565 53.84177383 16.5625 54.4375 C8.11611 53.40022403 2.44875851 45.74802732 -3.25 40 C-4.16007812 39.09765625 -5.07015625 38.1953125 -6.0078125 37.265625 C-6.87664063 36.39421875 -7.74546875 35.5228125 -8.640625 34.625 C-9.42985352 33.83351563 -10.21908203 33.04203125 -11.03222656 32.2265625 C-13.80745901 29.08634911 -14.86352082 26.88711468 -15.5 22.75 C-14.80009589 17.50071918 -12.35644865 14.95678906 -9 11 C-8.24203125 10.02546875 -7.4840625 9.0509375 -6.703125 8.046875 C-2.08259873 2.15796897 -2.08259873 2.15796897 0 0 Z " fill="#18AFDE" transform="translate(61,412)"/>
<path d="M0 0 C4.84898853 2.90939312 9.09103054 6.44919322 13.375 10.125 C14.01566406 10.66253906 14.65632813 11.20007813 15.31640625 11.75390625 C16.91805274 13.12333108 18.46437328 14.5569316 20 16 C20 16.66 20 17.32 20 18 C18.45712116 19.04174694 16.86199674 20.0062759 15.25 20.9375 C2.42411582 28.90009905 -9.10070739 40.50138402 -16 54 C-20.67750246 53.16462038 -22.68926789 50.29404069 -25.5625 46.75 C-26.28469727 45.88955078 -26.28469727 45.88955078 -27.02148438 45.01171875 C-33.76182276 36.87139261 -33.76182276 36.87139261 -34.4375 31.5625 C-33.40022403 23.11611 -25.74802732 17.44875851 -20 11.75 C-19.09765625 10.83992188 -18.1953125 9.92984375 -17.265625 8.9921875 C-16.39421875 8.12335938 -15.5228125 7.25453125 -14.625 6.359375 C-13.83351563 5.57014648 -13.04203125 4.78091797 -12.2265625 3.96777344 C-8.27622544 0.47657643 -5.29795702 -0.63575484 0 0 Z " fill="#18AFDE" transform="translate(80,272)"/>
<path d="M0 0 C-0.2165625 0.86496094 -0.433125 1.72992188 -0.65625 2.62109375 C-4.30459799 19.12311219 -5.41976517 37.77296499 0 54 C-5.95916607 54.21669695 -11.82009727 53.87483478 -17.75 53.3125 C-18.48275146 53.25916504 -19.21550293 53.20583008 -19.97045898 53.15087891 C-23.91059858 52.73622205 -25.87845813 52.10112412 -28.953125 49.54296875 C-32.28185919 45.4074612 -32.18822717 42.27896458 -32.23828125 37.140625 C-32.246353 36.35862732 -32.25442474 35.57662964 -32.26274109 34.77093506 C-32.2765822 33.11326311 -32.28730424 31.45556265 -32.29516602 29.79785156 C-32.31233991 27.27353121 -32.35621865 24.75053414 -32.40039062 22.2265625 C-32.4105213 20.61459295 -32.41903623 19.00261227 -32.42578125 17.390625 C-32.44328934 16.64041077 -32.46079742 15.89019653 -32.47883606 15.11724854 C-32.45759155 9.93358812 -31.37446808 6.93006421 -28 3 C-19.19382527 -0.24438016 -9.29006363 -0.15229613 0 0 Z " fill="#18AFDE" transform="translate(57,342)"/>
<path d="M0 0 C1.26166992 -0.01051392 1.26166992 -0.01051392 2.54882812 -0.02124023 C5.32789169 -0.03883816 8.10593592 -0.02719026 10.88500977 -0.01367188 C12.81787817 -0.01636653 14.75074525 -0.02024873 16.68360901 -0.02526855 C20.73467921 -0.03116625 24.7853966 -0.02259283 28.83642578 -0.00390625 C34.02634788 0.01886816 39.2154419 0.00577146 44.40533352 -0.01819611 C48.39710208 -0.03265975 52.38867479 -0.02804522 56.3804493 -0.01768494 C58.29379436 -0.01501843 60.20715726 -0.01828474 62.12048149 -0.02760315 C64.79694478 -0.03777636 67.47207346 -0.02225667 70.1484375 0 C71.33231804 -0.01214539 71.33231804 -0.01214539 72.54011536 -0.02453613 C76.22670407 0.03218295 78.45466432 0.40602454 81.63441467 2.33117676 C83.63891602 4.51757812 83.63891602 4.51757812 84.20141602 8.01757812 C83.53690458 12.15231592 82.98733784 13.0827943 79.63891602 15.51757812 C76.69106332 15.912136 74.11714319 16.06490127 71.17016602 16.03515625 C69.8914563 16.04567017 69.8914563 16.04567017 68.58691406 16.05639648 C65.77058282 16.07399381 62.95525738 16.06234772 60.13891602 16.04882812 C58.18123176 16.05152254 56.22354881 16.05540454 54.26586914 16.0604248 C50.16352595 16.0663222 46.0615312 16.05774906 41.95922852 16.0390625 C36.69970973 16.01627288 31.44100738 16.02939466 26.18151855 16.05335236 C22.13917891 16.06780376 18.09703296 16.06320735 14.0546875 16.05284119 C12.11539615 16.05017208 10.17608724 16.0534501 8.23681641 16.0627594 C5.52662551 16.07291414 2.81775827 16.0574394 0.10766602 16.03515625 C-0.69453369 16.04325317 -1.4967334 16.0513501 -2.32324219 16.05969238 C-5.86027368 16.00579183 -7.95940425 15.80920028 -10.85913086 13.70397949 C-13.06487483 10.49306595 -12.90402517 8.31816639 -12.36108398 4.51757812 C-9.10215085 -0.20530892 -5.3093963 -0.05432955 0 0 Z " fill="#9A99A1" transform="translate(156.361083984375,145.482421875)"/>
<path d="M0 0 C1.26166992 -0.01051392 1.26166992 -0.01051392 2.54882812 -0.02124023 C5.32789169 -0.03883816 8.10593592 -0.02719026 10.88500977 -0.01367188 C12.81787817 -0.01636653 14.75074525 -0.02024873 16.68360901 -0.02526855 C20.73467921 -0.03116625 24.7853966 -0.02259283 28.83642578 -0.00390625 C34.02634788 0.01886816 39.2154419 0.00577146 44.40533352 -0.01819611 C48.39710208 -0.03265975 52.38867479 -0.02804522 56.3804493 -0.01768494 C58.29379436 -0.01501843 60.20715726 -0.01828474 62.12048149 -0.02760315 C64.79694478 -0.03777636 67.47207346 -0.02225667 70.1484375 0 C71.33231804 -0.01214539 71.33231804 -0.01214539 72.54011536 -0.02453613 C76.22566762 0.03216701 78.45271118 0.40469482 81.63050842 2.33117676 C83.63891602 4.51757812 83.63891602 4.51757812 84.26391602 8.01757812 C83.63891602 11.51757812 83.63891602 11.51757812 81.63050842 13.70397949 C77.7795774 16.03853658 74.51922297 16.07999597 70.1484375 16.03515625 C69.3055719 16.04216553 68.4627063 16.0491748 67.59429932 16.05639648 C64.81586499 16.07396262 62.03845394 16.0623599 59.26000977 16.04882812 C57.32617498 16.05152319 55.39234151 16.05540573 53.45851135 16.0604248 C49.40922114 16.06631776 45.36028426 16.05776244 41.31103516 16.0390625 C36.11992284 16.01625785 30.92963705 16.02940694 25.73855495 16.05335236 C21.74682887 16.06780276 17.75529895 16.06320808 13.76356697 16.05284119 C11.84939539 16.0501726 9.93520601 16.0534483 8.02105522 16.0627594 C5.34688968 16.07291422 2.67406556 16.05744013 0 16.03515625 C-0.79127792 16.04325317 -1.58255585 16.0513501 -2.39781189 16.05969238 C-5.9117845 16.00542029 -7.97492588 15.79868872 -10.85240173 13.70397949 C-13.06717338 10.49430446 -12.90453639 8.32174494 -12.36108398 4.51757812 C-9.10215085 -0.20530892 -5.3093963 -0.05432955 0 0 Z " fill="#9A99A1" transform="translate(320.361083984375,305.482421875)"/>
<path d="M0 0 C1.25159912 0.00523682 2.50319824 0.01047363 3.79272461 0.01586914 C5.00839111 0.0183667 6.22405762 0.02086426 7.4765625 0.0234375 C9.03366943 0.0325415 10.59077637 0.04164551 12.19506836 0.05102539 C17.12444336 0.07165039 22.05381836 0.09227539 27.13256836 0.11352539 C27.13256836 10.34352539 27.13256836 20.57352539 27.13256836 31.11352539 C22.20319336 31.13415039 17.27381836 31.15477539 12.19506836 31.17602539 C9.85940796 31.1896814 9.85940796 31.1896814 7.4765625 31.20361328 C5.65306274 31.20735962 5.65306274 31.20735962 3.79272461 31.21118164 C2.54112549 31.21641846 1.28952637 31.22165527 0 31.22705078 C-2.86743164 31.11352539 -2.86743164 31.11352539 -3.86743164 30.11352539 C-3.96746453 27.97999365 -3.99824212 25.84314997 -4.00024414 23.70727539 C-4.0015332 22.40661133 -4.00282227 21.10594727 -4.00415039 19.76586914 C-4.00205566 19.08508301 -3.99996094 18.40429688 -3.99780273 17.70288086 C-3.99245404 15.62224024 -3.99774844 13.5418155 -4.00415039 11.46118164 C-4.00286133 10.16051758 -4.00157227 8.85985352 -4.00024414 7.51977539 C-3.99911621 6.31643555 -3.99798828 5.1130957 -3.99682617 3.87329102 C-3.81992791 0.10035142 -3.7890218 0.15001236 0 0 Z " fill="#E5EDF2" transform="translate(459.867431640625,69.886474609375)"/>
<path d="M0 0 C0 14.85 0 29.7 0 45 C-6.93 45 -13.86 45 -21 45 C-21.10856412 40.85345366 -21.18760125 36.70978832 -21.25 32.5625 C-21.28351563 31.39783203 -21.31703125 30.23316406 -21.3515625 29.03320312 C-21.45053187 20.24967151 -19.97771367 13.79666431 -14.75 6.6875 C-10.34151678 2.37920958 -6.21054586 0 0 0 Z " fill="#E8563D" transform="translate(457,26)"/>
<path d="M0 0 C1.43653931 -0.00361794 1.43653931 -0.00361794 2.90209961 -0.00730896 C4.92273101 -0.00633141 6.94338949 0.00704024 8.96386719 0.03198242 C12.05236009 0.0662936 15.13799116 0.05263584 18.2265625 0.03320312 C20.19272048 0.04010182 22.1588711 0.04977441 24.125 0.0625 C25.04595459 0.05754013 25.96690918 0.05258026 26.91577148 0.04747009 C31.09196008 0.12398068 33.48779244 0.29058355 37.1484375 2.44555664 C39.0625 4.62890625 39.0625 4.62890625 39.625 8.12890625 C39.0625 11.62890625 39.0625 11.62890625 37.65600586 13.81225586 C33.64809071 16.61964517 29.78752406 16.22034033 25.00390625 16.1953125 C23.53195045 16.20461037 23.53195045 16.20461037 22.03025818 16.21409607 C19.95662426 16.22119434 17.88293336 16.21802012 15.80932617 16.20532227 C12.63939256 16.19146915 9.47241807 16.22551258 6.30273438 16.26367188 C4.28645761 16.26462321 2.27017716 16.26276349 0.25390625 16.2578125 C-0.69205917 16.27107071 -1.6380246 16.28432892 -2.61265564 16.29798889 C-7.22413274 16.23287713 -9.28082855 16.13405008 -13.03540039 13.24584961 C-14.9375 10.62890625 -14.9375 10.62890625 -15.5625 8.12890625 C-13.52118117 -0.03636906 -7.02638158 -0.10115291 0 0 Z " fill="#9B9AA2" transform="translate(170.9375,213.37109375)"/>
<path d="M0 0 C1.43866173 -0.00786278 1.43866173 -0.00786278 2.90638733 -0.0158844 C4.93294304 -0.02230215 6.95953602 -0.02097081 8.98608398 -0.01245117 C12.08319614 -0.00394596 15.17846088 -0.03269858 18.27539062 -0.06445312 C20.2460932 -0.06606539 22.21679903 -0.06548712 24.1875 -0.0625 C25.11159164 -0.07373398 26.03568329 -0.08496796 26.98777771 -0.09654236 C31.17865575 -0.05122965 33.5686722 0.08604478 37.24438477 2.24584961 C39.16015625 4.43359375 39.16015625 4.43359375 39.78515625 7.93359375 C39.16015625 11.43359375 39.16015625 11.43359375 37.2421875 13.61694336 C32.88759596 16.18368256 29.19396996 16.02677338 24.22265625 16 C23.26496338 16.00619858 22.30727051 16.01239716 21.32055664 16.01878357 C19.29997777 16.02587321 17.27934038 16.0227227 15.25878906 16.01000977 C12.17012972 15.99613854 9.08449762 16.03023397 5.99609375 16.06835938 C4.02994718 16.06931057 2.06379682 16.06745174 0.09765625 16.0625 C-1.28377563 16.08238731 -1.28377563 16.08238731 -2.69311523 16.10267639 C-7.20678303 16.03723157 -9.23562482 15.88188369 -12.95703125 13.12084961 C-14.83984375 10.43359375 -14.83984375 10.43359375 -14.90234375 6.80859375 C-13.83984375 3.43359375 -13.83984375 3.43359375 -12.38842773 1.74975586 C-8.38417178 -0.31815715 -4.44293044 -0.01408338 0 0 Z " fill="#9A99A1" transform="translate(334.83984375,373.56640625)"/>
<path d="M0 0 C6.6 0 13.2 0 20 0 C20 9.57 20 19.14 20 29 C13.4 29 6.8 29 0 29 C0 19.43 0 9.86 0 0 Z " fill="#ABCFE2" transform="translate(436,71)"/>
<path d="M0 0 C1.03705078 -0.02384766 2.07410156 -0.04769531 3.14257812 -0.07226562 C8.04819065 -0.06281358 10.71556469 -0.04494996 14.78125 2.87109375 C16.5625 5.5625 16.5625 5.5625 16.625 9.1875 C15.44224487 12.94448688 14.86876065 13.64014763 11.5625 15.5625 C7.75141112 16.17797152 3.9180217 16.02614719 0.0625 16 C-0.98292969 16.01998047 -2.02835937 16.03996094 -3.10546875 16.06054688 C-4.61560547 16.05958008 -4.61560547 16.05958008 -6.15625 16.05859375 C-7.07341797 16.06044678 -7.99058594 16.0622998 -8.93554688 16.06420898 C-12.21663532 15.40626238 -13.40530113 14.17595208 -15.4375 11.5625 C-15.9375 8.0625 -15.9375 8.0625 -15.4375 4.5625 C-11.15817995 -0.9226597 -6.46742103 -0.06807812 0 0 Z " fill="#9B9AA1" transform="translate(295.4375,373.4375)"/>
<path d="M0 0 C1.03705078 -0.02384766 2.07410156 -0.04769531 3.14257812 -0.07226562 C8.04819065 -0.06281358 10.71556469 -0.04494996 14.78125 2.87109375 C16.5625 5.5625 16.5625 5.5625 16.625 9.1875 C15.44224487 12.94448688 14.86876065 13.64014763 11.5625 15.5625 C7.75141112 16.17797152 3.9180217 16.02614719 0.0625 16 C-0.98292969 16.01998047 -2.02835938 16.03996094 -3.10546875 16.06054688 C-4.61560547 16.05958008 -4.61560547 16.05958008 -6.15625 16.05859375 C-7.07341797 16.06044678 -7.99058594 16.0622998 -8.93554688 16.06420898 C-12.21663532 15.40626238 -13.40530113 14.17595208 -15.4375 11.5625 C-15.9375 8.0625 -15.9375 8.0625 -15.4375 4.5625 C-11.15817995 -0.9226597 -6.46742103 -0.06807812 0 0 Z " fill="#9B9AA2" transform="translate(131.4375,213.4375)"/>
<path d="M0 0 C2.9375 2.0625 2.9375 2.0625 5 5 C5.06641554 8.85210127 4.87229157 10.99848005 2.3125 13.9375 C-0.76819895 15.35295627 -2.64720251 15.55879958 -6 15 C-8.89648251 12.40841039 -9.87307907 10.7773907 -10.5 6.9375 C-10 4 -10 4 -8.375 1.625 C-5.24988831 -0.51323431 -3.71837535 -0.6829669 0 0 Z " fill="#9D9CA3" transform="translate(392,374)"/>
<path d="M0 0 C2.9375 2.0625 2.9375 2.0625 5 5 C5.06641554 8.85210127 4.87229157 10.99848005 2.3125 13.9375 C-0.76819895 15.35295627 -2.64720251 15.55879958 -6 15 C-8.89648251 12.40841039 -9.87307907 10.7773907 -10.5 6.9375 C-10 4 -10 4 -8.375 1.625 C-5.24988831 -0.51323431 -3.71837535 -0.6829669 0 0 Z " fill="#9D9CA3" transform="translate(297,306)"/>
<path d="M0 0 C2 1.625 2 1.625 3 4 C2.93416738 7.75245951 2.81598805 10.06312483 0.3125 12.9375 C-2.76819895 14.35295627 -4.64720251 14.55879958 -8 14 C-10.4375 11.9375 -10.4375 11.9375 -12 9 C-12 5.19715329 -11.7968187 2.98069994 -9.375 0 C-5.88418213 -1.46981805 -3.60851044 -0.98413921 0 0 Z " fill="#9D9BA3" transform="translate(230,215)"/>
<path d="M0 0 C2 1.625 2 1.625 3 4 C2.93416738 7.75245951 2.81598805 10.06312483 0.3125 12.9375 C-2.76819895 14.35295627 -4.64720251 14.55879958 -8 14 C-10.4375 11.9375 -10.4375 11.9375 -12 9 C-12 5.19715329 -11.7968187 2.98069994 -9.375 0 C-5.88418213 -1.46981805 -3.60851044 -0.98413921 0 0 Z " fill="#9D9BA3" transform="translate(135,147)"/>
<path d="M0 0 C2.65494735 2.38264506 3.76199956 4.04799823 4.625 7.5 C3.62422905 11.50308378 1.40548404 12.85580635 -2 15 C-5.59248599 15.0704409 -7.20141421 14.71872721 -9.875 12.3125 C-11.35810604 9.26389315 -11.48891657 7.35257076 -11 4 C-8.07075041 -0.45245938 -5.11843736 -0.822606 0 0 Z " fill="#9D9CA3" transform="translate(415,67)"/>
<path d="M0 0 C2.65494735 2.38264506 3.76199956 4.04799823 4.625 7.5 C3.62422905 11.50308378 1.40548404 12.85580635 -2 15 C-5.59248599 15.0704409 -7.20141421 14.71872721 -9.875 12.3125 C-11.35810604 9.26389315 -11.48891657 7.35257076 -11 4 C-8.07075041 -0.45245938 -5.11843736 -0.822606 0 0 Z " fill="#9D9CA3" transform="translate(336,67)"/>
<path d="M0 0 C2.65494735 2.38264506 3.76199956 4.04799823 4.625 7.5 C3.62422905 11.50308378 1.40548404 12.85580635 -2 15 C-5.59248599 15.0704409 -7.20141421 14.71872721 -9.875 12.3125 C-11.35810604 9.26389315 -11.48891657 7.35257076 -11 4 C-8.07075041 -0.45245938 -5.11843736 -0.822606 0 0 Z " fill="#9D9CA3" transform="translate(257,67)"/>
<path d="M0 0 C2.65494735 2.38264506 3.76199956 4.04799823 4.625 7.5 C3.62422905 11.50308378 1.40548404 12.85580635 -2 15 C-5.59248599 15.0704409 -7.20141421 14.71872721 -9.875 12.3125 C-11.35810604 9.26389315 -11.48891657 7.35257076 -11 4 C-8.07075041 -0.45245938 -5.11843736 -0.822606 0 0 Z " fill="#9D9CA3" transform="translate(178,67)"/>
<path d="M0 0 C0.66 0.33 1.32 0.66 2 1 C-6.58 9.58 -15.16 18.16 -24 27 C-24.33 26.34 -24.66 25.68 -25 25 C-20.12291327 19.27915324 -15.0170697 13.86243354 -9.6875 8.5625 C-8.97271484 7.84384766 -8.25792969 7.12519531 -7.52148438 6.38476562 C-6.83763672 5.70220703 -6.15378906 5.01964844 -5.44921875 4.31640625 C-4.83393311 3.70224854 -4.21864746 3.08809082 -3.5847168 2.45532227 C-2 1 -2 1 0 0 Z " fill="#20B2E7" transform="translate(72,273)"/>
</svg>
