<?xml version="1.0" encoding="UTF-8"?>
<svg version="1.1" xmlns="http://www.w3.org/2000/svg" width="512" height="512">
<path d="M0 0 C0.96419861 0.0195575 1.92839722 0.03911499 2.92181396 0.05926514 C13.46887091 0.27805389 24.0107601 0.57200136 34.55078125 1.01953125 C35.42893494 1.05453232 36.30708862 1.08953339 37.21185303 1.12559509 C61.51769083 2.22777986 86.45388875 8.75994885 104.75 25.5625 C105.59046875 26.29984375 106.4309375 27.0371875 107.296875 27.796875 C117.76093592 37.49991331 124.19149149 49.54120007 126.75 63.5625 C126.80592798 65.89516296 126.8207639 68.23023996 126.75 70.5625 C127.82636719 70.58828125 128.90273438 70.6140625 130.01171875 70.640625 C143.22743108 71.09791083 155.01241577 72.7921138 165.25 81.75 C178.69117739 96.87132456 179.70604246 116.14452863 180.8125 135.5625 C180.85324646 136.25693207 180.89399292 136.95136414 180.93597412 137.6668396 C182.52180042 164.9188614 183.10671659 192.26848582 182.75 219.5625 C182.7370993 220.59567352 182.7370993 220.59567352 182.72393799 221.64971924 C182.13426421 267.31298244 179.64707345 312.99323872 176.75 358.5625 C183.68 358.5625 190.61 358.5625 197.75 358.5625 C203.26708107 369.59666213 202.20156524 380.52403696 199.0390625 392.18359375 C195.94964072 401.26762753 189.71108427 408.17899344 181.4375 412.9375 C179.56120584 413.85364915 177.66468995 414.72957058 175.75 415.5625 C174.85925781 415.95179688 173.96851563 416.34109375 173.05078125 416.7421875 C156.02052865 423.25026172 136.3014599 421.82663949 118.40429688 421.71362305 C115.79681678 421.70481055 113.18933351 421.69690254 110.58184814 421.68981934 C104.25522783 421.67098067 97.92870483 421.64123548 91.6021468 421.60777863 C84.11967137 421.56868704 76.63716498 421.54116107 69.15463835 421.51399157 C55.67336292 421.46468931 42.1921472 421.40574709 28.7109375 421.34106445 C15.89455129 421.2795855 3.07816026 421.22369435 -9.73828125 421.17504883 C-10.51606206 421.1720884 -11.29384287 421.16912797 -12.09519279 421.16607784 C-15.23008457 421.15414873 -18.36497641 421.14223735 -21.49986833 421.13034778 C-55.07473776 421.00279848 -88.64932018 420.83907207 -122.2238785 420.64662631 C-132.09640433 420.59005665 -141.96894144 420.53851804 -151.8415162 420.49129016 C-164.06713709 420.43276348 -176.29264665 420.364158 -188.5181098 420.27812248 C-194.3224532 420.23739507 -200.1267288 420.20098241 -205.9311676 420.17697716 C-211.22531624 420.15484336 -216.51919031 420.11900077 -221.81317711 420.07224059 C-223.7143357 420.05774942 -225.61553914 420.04810441 -227.51674843 420.04395509 C-245.72561835 419.99880043 -261.46372058 417.81062834 -275.25 404.73828125 C-285.755451 393.30949959 -288.7937696 376.71554622 -288.25 361.5625 C-287.59 360.5725 -286.93 359.5825 -286.25 358.5625 C-284.18701172 358.22192383 -284.18701172 358.22192383 -281.6796875 358.26953125 C-280.78378906 358.27919922 -279.88789063 358.28886719 -278.96484375 358.29882812 C-278.02769531 358.32396484 -277.09054687 358.34910156 -276.125 358.375 C-275.18011719 358.38853516 -274.23523438 358.40207031 -273.26171875 358.41601562 C-270.92391221 358.45143694 -268.58723763 358.50082729 -266.25 358.5625 C-266.48320906 356.84595876 -266.48320906 356.84595876 -266.72112942 355.09473991 C-267.26260222 350.74748987 -267.52493297 346.42165588 -267.71192932 342.04666138 C-267.76833892 340.81669978 -267.76833892 340.81669978 -267.8258881 339.56189048 C-267.95022132 336.83321862 -268.06997625 334.1043661 -268.18969727 331.37548828 C-268.27825923 329.40978365 -268.36708243 327.44409077 -268.45614624 325.47840881 C-268.69688571 320.14426486 -268.93340643 314.80994201 -269.16875577 309.4755578 C-269.31666146 306.12703474 -269.46543989 302.77855159 -269.6145153 299.43008041 C-270.13664315 287.70060631 -270.65520046 275.97098016 -271.1706543 264.24121094 C-271.64751546 253.39191013 -272.13231554 242.54298424 -272.62091595 231.69420636 C-273.04246614 222.32567419 -273.45808117 212.95688999 -273.86937374 203.58790195 C-274.1140044 198.01775801 -274.36085017 192.44773681 -274.61380196 186.87796402 C-276.41324068 147.15846465 -276.41324068 147.15846465 -276.54256427 128.71096015 C-276.55753884 126.67979769 -276.58465875 124.64873541 -276.61247349 122.61770821 C-276.60617807 107.20280831 -274.37950543 91.24551018 -264.14453125 79.0546875 C-255.95571687 71.19922308 -246.29925718 68.57673319 -235.19921875 68.24609375 C-234.21100883 68.2149221 -234.21100883 68.2149221 -233.20283508 68.18312073 C-231.11448815 68.11814511 -229.02602388 68.05898425 -226.9375 68 C-225.5149622 67.95676521 -224.09243594 67.9131494 -222.66992188 67.86914062 C-219.19673703 67.76251784 -215.72342274 67.66110652 -212.25 67.5625 C-212.01925781 66.33015625 -211.78851563 65.0978125 -211.55078125 63.828125 C-208.88398188 50.08096205 -205.80904198 38.22674562 -196.25 27.5625 C-195.60417969 26.81226562 -194.95835937 26.06203125 -194.29296875 25.2890625 C-178.17997856 7.77104348 -153.6629962 3.96462615 -131 2.5 C-129.76185547 2.41693604 -128.52371094 2.33387207 -127.24804688 2.24829102 C-84.90289793 -0.52223243 -42.41288842 -0.87810485 0 0 Z " fill="#060505" transform="translate(299.25,45.4375)"/>
<path d="M0 0 C5.28423136 0.01084957 10.56843676 0.01046698 15.85267735 0.00986195 C21.04107866 0.01013705 26.22946409 0.01567085 31.41786003 0.02286339 C33.84808165 0.02598365 36.27830501 0.02800134 38.70852852 0.0287571 C51.65185796 0.03720588 64.57929329 0.19715634 77.51593018 0.63189697 C78.66878541 0.66891377 79.82164064 0.70593058 81.00943089 0.7440691 C105.5691811 1.65440467 130.08736726 9.18149357 148.05914307 26.66827393 C161.79998586 41.55994107 164.70682114 58.02372442 164.72711182 77.67608643 C164.73357039 79.17554336 164.74030076 80.67499915 164.74728394 82.17445374 C164.75920579 85.31703587 164.76297142 88.4595087 164.76177979 91.60211182 C164.76161933 94.75209038 164.7751738 97.90147435 164.80279541 101.05133057 C164.99047136 122.78409435 163.67947944 143.69508825 160.39117432 165.19561768 C160.21271469 166.4026384 160.03425507 167.60965912 159.85038757 168.85325623 C157.4560545 184.86895298 151.25606537 198.82003075 138.39117432 209.19561768 C112.99175716 226.32319399 81.04170431 230.38666197 51.06304932 230.32843018 C49.94859436 230.3293869 48.8341394 230.33034363 47.68591309 230.33132935 C45.35329125 230.33200395 43.02066745 230.33020044 40.68804932 230.32598877 C37.13592299 230.32060972 33.5839219 230.32596886 30.03179932 230.33233643 C27.75054904 230.33167591 25.46929884 230.33039531 23.18804932 230.32843018 C22.13784607 230.33045441 21.08764282 230.33247864 20.00561523 230.33456421 C12.99063665 230.31241731 6.24621256 229.8014792 -0.69085693 228.71124268 C-5.5165764 228.24178785 -8.48802761 228.39870614 -12.51507568 231.26202393 C-14.52876569 233.16474445 -16.48849075 235.07804295 -18.42913818 237.05108643 C-33.54406949 252.3978999 -53.47367177 260.74022662 -73.60882568 267.19561768 C-75.17018624 267.70944666 -76.73138945 268.22375404 -78.29241943 268.73858643 C-79.73066554 269.20514756 -81.1694406 269.67008234 -82.60882568 270.13311768 C-83.58734497 270.45071045 -83.58734497 270.45071045 -84.58563232 270.77471924 C-87.80852297 271.78114925 -90.17870672 272.19561768 -93.60882568 272.19561768 C-92.21216418 268.51416121 -90.56760701 265.00677016 -88.8414917 261.47344971 C-83.03653087 249.51639654 -77.91771928 237.70269202 -77.60882568 224.19561768 C-81.84060952 222.68243437 -85.934753 221.71245694 -90.35882568 220.94561768 C-109.91307583 217.20910556 -129.65731423 209.85652802 -143.60882568 195.19561768 C-144.26238037 194.5381958 -144.91593506 193.88077393 -145.58929443 193.20343018 C-157.47093853 180.5871002 -160.38626309 162.81909033 -161.15179443 146.07843018 C-161.21393379 144.72637985 -161.21393379 144.72637985 -161.27732849 143.34701538 C-161.75976525 131.86445336 -161.86789656 120.37853913 -161.9039917 108.88702393 C-161.91549916 106.35343841 -161.93593111 103.81987691 -161.96551514 101.28643799 C-162.28854845 73.4153407 -162.41070147 42.64708813 -142.58538818 20.98468018 C-110.28086319 -10.35911545 -40.5597996 -0.10491282 0 0 Z " fill="#8C76E5" transform="translate(254.60882568359375,53.80438232421875)"/>
<path d="M0 0 C5.02883678 2.03143931 8.06639367 3.3279603 11 8 C14.87315299 17.62041227 13.2500447 28.96571688 12.28008652 39.09578419 C10.97293319 52.81941573 10.70689196 66.43019478 10.734375 80.20703125 C10.73233901 82.57013002 10.7296574 84.93322831 10.72637939 87.29632568 C10.72105697 93.52398112 10.72977777 99.75153442 10.74285889 105.97917557 C10.75003719 109.83246407 10.75324409 113.68573761 10.75537109 117.53903198 C10.77884602 151.70795902 10.91837642 185.85804196 12.69512939 219.98919678 C13.10512294 228.35269375 13 236.58318943 13 245 C-105.8 245 -224.6 245 -347 245 C-349.31775967 224.14016298 -349.31775967 224.14016298 -349.9296875 214.984375 C-350.00484085 213.88948257 -350.0799942 212.79459015 -350.15742493 211.66651917 C-350.40321264 208.02808203 -350.64032045 204.38916988 -350.875 200.75 C-350.95859772 199.46684906 -351.04219543 198.18369812 -351.12832642 196.86166382 C-352.86371048 170.03024027 -354.05243528 143.17501142 -355.1875 116.3125 C-355.23000633 115.31153793 -355.27251266 114.31057587 -355.31630707 113.27928162 C-356.61125367 82.75792517 -357.78378949 52.23455174 -358.25 21.6875 C-358.26662186 20.63778519 -358.28324371 19.58807037 -358.30036926 18.50654602 C-358.36350156 12.40541203 -357.56344408 8.29522818 -353.71972656 3.35424805 C-351.35527063 1.49228935 -349.78027544 1.69687239 -346.8125 1.8125 C-345.91144531 1.83957031 -345.01039063 1.86664063 -344.08203125 1.89453125 C-343.05142578 1.94673828 -343.05142578 1.94673828 -342 2 C-341.94465088 3.20422607 -341.88930176 4.40845215 -341.83227539 5.64916992 C-341.62366624 10.1762824 -341.41242282 14.70326898 -341.20043945 19.23022461 C-341.10956697 21.17843412 -341.01938066 23.12667578 -340.92993164 25.07495117 C-339.41636158 63.92347584 -339.41636158 63.92347584 -319.75 96.54296875 C-302.0218222 112.38249125 -279.77067681 119.0110757 -257 124 C-259.82447767 139.81707494 -266.93062773 155.31011036 -275.76953125 168.67578125 C-277.18896069 171.35692574 -277.09750316 173.01454599 -277 176 C-269.52132533 175.54389595 -262.72142026 174.04056169 -255.5625 171.875 C-254.51771484 171.56296631 -253.47292969 171.25093262 -252.39648438 170.92944336 C-225.08230615 162.64239492 -200.45973308 151.45973308 -180 131 C-177.17654419 130.77967834 -177.17654419 130.77967834 -173.51611328 130.82055664 C-172.84878677 130.82508347 -172.18146027 130.82961029 -171.49391174 130.83427429 C-170.03759028 130.84525848 -168.58129779 130.8607814 -167.12506485 130.88023567 C-164.79003977 130.91054925 -162.45526844 130.92726179 -160.12008667 130.94029236 C-153.47699737 130.97983016 -146.8342037 131.04328305 -140.19140625 131.11645508 C-77.89958606 132.05721525 -77.89958606 132.05721525 -24.11132812 104.32470703 C-11.77513021 92.06737445 -7.64869072 76.74007909 -5.29980469 60.06298828 C-5.04608773 58.31713462 -4.75031037 56.57747248 -4.4453125 54.83984375 C-1.2936238 36.82673062 -0.7745833 18.243475 0 0 Z " fill="#FDFDFD" transform="translate(427,159)"/>
<path d="M0 0 C52.14 0 104.28 0 158 0 C158.99 4.95 158.99 4.95 160 10 C162.1430351 15.67904302 165.53632001 19.26816 171 22 C172.70501064 22.10152956 174.41396528 22.13945871 176.12197876 22.14717102 C177.20700684 22.15432632 178.29203491 22.16148163 179.40994263 22.16885376 C181.20369827 22.17288712 181.20369827 22.17288712 183.03369141 22.17700195 C184.28909729 22.18357315 185.54450317 22.19014435 186.83795166 22.19691467 C191.00914224 22.21796771 195.18033323 22.22832129 199.3515625 22.23828125 C200.78834426 22.24232897 202.22512583 22.2464459 203.6619072 22.25063133 C210.41513548 22.2696893 217.16835283 22.2839165 223.92160285 22.2922433 C231.7096011 22.30200483 239.4973143 22.32829314 247.28521216 22.36874419 C253.30826002 22.398951 259.33122643 22.41371667 265.35434854 22.41702431 C268.94963431 22.41937053 272.5446158 22.42827372 276.1398201 22.45348549 C280.15670799 22.48119768 284.17296386 22.47692121 288.18994141 22.4699707 C289.96547897 22.48918579 289.96547897 22.48918579 291.77688599 22.50878906 C298.1963368 22.46833749 303.80126122 22.11560265 309 18 C313.12199239 12.66477439 313.68469332 6.57653338 315 0 C366.81 0 418.62 0 472 0 C472 25.86214442 472 25.86214442 463 35 C452.5293395 43.81739832 440.23299022 46.16294882 426.90681458 46.12698364 C426.0106114 46.12854576 425.11440822 46.13010787 424.19104737 46.13171732 C421.19090596 46.13570483 418.1908156 46.13255205 415.19067383 46.12939453 C413.02608461 46.13071947 410.86149561 46.1324666 408.69690704 46.13460159 C402.77863275 46.13910117 396.86037535 46.13724141 390.94210076 46.13417387 C385.91966527 46.13234328 380.89723377 46.13413058 375.87479848 46.13596261 C360.29557648 46.14160696 344.71637125 46.13657411 329.13715189 46.12825345 C324.2323954 46.12565077 319.32763889 46.12349074 314.42288208 46.12159729 C275.77086353 46.10656525 237.11890402 46.06953966 198.46692657 46.01115417 C193.62903129 46.00385234 188.79113577 45.99688089 183.95323944 45.99031067 C157.93789856 45.95496136 131.92291669 45.89515639 105.90780371 45.77935064 C100.16368916 45.75468362 94.41960211 45.7399524 88.67544556 45.72955322 C81.79897305 45.71692168 74.92272938 45.69065577 68.04638952 45.64558756 C64.63334481 45.62348571 61.22080483 45.60919261 57.80765343 45.60808182 C24.49396819 45.58654965 24.49396819 45.58654965 11.0703125 33.22265625 C1.79309319 23.48754843 0 13.07809163 0 0 Z " fill="#8C76E4" transform="translate(20,412)"/>
<path d="M0 0 C4.90875 0.0825 9.8175 0.165 14.875 0.25 C14.215 10.48 13.555 20.71 12.875 31.25 C9.245 31.58 5.615 31.91 1.875 32.25 C-3.3113989 34.45902176 -5.69200281 37.80287355 -8.07763672 42.73706055 C-10.53388889 50.97552501 -9.66295466 59.92372396 -9.5 68.4375 C-9.47727408 70.54986736 -9.45637235 72.6622551 -9.43725586 74.7746582 C-9.3719125 80.93404554 -9.25669639 87.09171348 -9.125 93.25 C-9.10741638 94.10770996 -9.08983276 94.96541992 -9.07171631 95.84912109 C-8.74429799 112.7628003 -8.74429799 112.7628003 -7.64794922 129.63793945 C-7.06901293 136.45856239 -6.78129006 143.28417527 -6.5248127 150.12290955 C-6.43858004 152.4190027 -6.34882243 154.71493699 -6.25828552 157.01086426 C-6.03334188 162.731749 -5.8136946 168.452834 -5.59472656 174.1739502 C-4.88325701 192.75047684 -4.12067521 211.32045791 -3.09765625 229.8828125 C-3.0572629 230.62600235 -3.01686954 231.3691922 -2.97525215 232.13490295 C-2.44710049 241.78245866 -1.79812773 251.40908851 -0.73570251 261.01452637 C0.01876811 268.20684063 -0.125 274.85866533 -0.125 282.25 C-10.355 282.25 -20.585 282.25 -31.125 282.25 C-31.85012969 277.89922186 -32.31308935 274.00724466 -32.49754333 269.64317322 C-32.55492676 268.32845032 -32.61231018 267.01372742 -32.6714325 265.65916443 C-32.73081119 264.21280185 -32.79011973 262.7664364 -32.84936523 261.32006836 C-32.91491273 259.78629205 -32.98078853 258.25252975 -33.04696655 256.71878052 C-33.22596047 252.54902719 -33.40038464 248.37909362 -33.57403445 244.20911479 C-33.7585522 239.79778693 -33.94738334 235.38664369 -34.13575745 230.97547913 C-34.49397974 222.57207753 -34.84849301 214.16852383 -35.20161349 205.76490647 C-35.6347319 195.46098498 -36.07208949 185.15724437 -36.50976562 174.85351562 C-36.66500757 171.19866008 -36.82023365 167.54380387 -36.97543335 163.88894653 C-37.01346113 162.99350289 -37.0514889 162.09805926 -37.09066904 161.17548096 C-37.35632017 154.91747417 -37.62070748 148.65941471 -37.88467407 142.40133667 C-38.50130734 127.7936376 -39.11922595 113.18613899 -39.78466797 98.58056641 C-39.85718387 96.98368091 -39.85718387 96.98368091 -39.93116474 95.3545351 C-40.14119846 90.74062728 -40.35408193 86.12689066 -40.573349 81.51341248 C-43.29697329 23.12092755 -43.29697329 23.12092755 -28.9296875 6.4765625 C-20.11152002 -0.52393258 -10.77290886 -0.2568496 0 0 Z " fill="#FCAB01" transform="translate(72.125,121.75)"/>
<path d="M0 0 C11.30263748 -0.45667222 22.25243743 -0.20031642 31.5 7.125 C41.48355411 17.00346407 43.32592817 31.65079995 44.125 45 C44.27274372 47.20837986 44.42117469 49.41671385 44.5703125 51.625 C44.62977051 52.58664063 44.68922852 53.54828125 44.75048828 54.5390625 C44.89084156 56.48588057 45.0433254 58.43220741 45.23800945 60.37434483 C45.87830195 66.77566198 46.14847561 73.09051522 46.14526367 79.52124023 C46.14862228 80.51221207 46.1519809 81.5031839 46.15544128 82.52418518 C46.16489203 85.78566777 46.16689416 89.04709831 46.16796875 92.30859375 C46.17119482 94.63452676 46.17455982 96.96045959 46.17805481 99.28639221 C46.18403837 104.18108587 46.18589645 109.07576193 46.18530273 113.97045898 C46.18522281 118.87512001 46.19194507 123.77968496 46.20581055 128.68432617 C46.32516029 171.54712579 45.50790005 214.34261468 42.21142578 257.09179688 C41.68105712 264.38712198 41.35636236 271.69457169 41 279 C34.4 279 27.8 279 21 279 C20.41993272 274.35946179 19.8695203 269.92754096 19.61108398 265.29370117 C19.5511174 264.22312973 19.49115082 263.15255829 19.42936707 262.04954529 C19.0833657 255.42948563 18.74763322 248.80933214 18.4375 242.1875 C18.4034053 241.46414963 18.36931061 240.74079926 18.33418274 239.99552917 C17.01569361 211.74778045 16.72023247 183.52562828 16.75 155.25 C16.75046703 154.28461178 16.75093407 153.31922356 16.75141525 152.32458115 C16.7613601 132.93578419 16.85353131 113.55256105 17.453125 94.171875 C17.4913739 92.92891663 17.5296228 91.68595825 17.56903076 90.40533447 C17.815522 83.29416578 18.2312487 76.20997261 18.77720642 69.11549377 C19.10926127 64.47211579 19.25916956 59.84146932 19.3125 55.1875 C19.35600586 53.89295898 19.35600586 53.89295898 19.40039062 52.57226562 C19.47506658 44.94957344 17.50109355 39.02763957 12.625 33.125 C8.6324711 29.8929528 4.96963361 28.2424084 0 27 C0 18.09 0 9.18 0 0 Z " fill="#FCAB00" transform="translate(427,125)"/>
<path d="M0 0 C-2.07986578 2.07986578 -4.12306038 4.1036298 -6.375 6 C-14.80808222 15.63780825 -17.31542689 27.0693446 -17.27661133 39.48974609 C-17.28022612 40.50804127 -17.2838409 41.52633644 -17.28756523 42.57548904 C-17.29409111 45.93327192 -17.2832869 49.29067976 -17.26953125 52.6484375 C-17.26736917 53.81563702 -17.2652071 54.98283653 -17.26297951 56.18540573 C-17.20221572 81.54685577 -16.14089629 106.83276803 -14.86089706 132.15729904 C-14.56345342 138.10575975 -14.28158911 144.05495584 -13.99926758 150.00415039 C-13.88463902 152.41700796 -13.76999975 154.82986501 -13.65534973 157.24272156 C-13.59876505 158.43413946 -13.54218037 159.62555737 -13.483881 160.85307884 C-13.3135686 164.42679591 -13.14166313 168.00043297 -12.96928406 171.5740509 C-11.98252028 192.06681209 -11.09785249 212.56273271 -10.28250504 233.06298065 C-10.18861076 235.40973811 -10.09306012 237.75642203 -9.99691772 240.10308838 C-9.84815911 243.73542257 -9.70248813 247.36786614 -9.55952454 251.00043297 C-9.48460426 252.89169827 -9.40722975 254.78286588 -9.32971191 256.67402649 C-9.005499 265.12439934 -8.96167262 273.54460605 -9 282 C-13.95 282 -18.9 282 -24 282 C-24.72512969 277.64922186 -25.18808935 273.75724466 -25.37254333 269.39317322 C-25.42992676 268.07845032 -25.48731018 266.76372742 -25.5464325 265.40916443 C-25.60581119 263.96280185 -25.66511973 262.5164364 -25.72436523 261.07006836 C-25.78991273 259.53629205 -25.85578853 258.00252975 -25.92196655 256.46878052 C-26.10096047 252.29902719 -26.27538464 248.12909362 -26.44903445 243.95911479 C-26.6335522 239.54778693 -26.82238334 235.13664369 -27.01075745 230.72547913 C-27.36897974 222.32207753 -27.72349301 213.91852383 -28.07661349 205.51490647 C-28.5097319 195.21098498 -28.94708949 184.90724437 -29.38476562 174.60351562 C-29.54000757 170.94866008 -29.69523365 167.29380387 -29.85043335 163.63894653 C-29.88846113 162.74350289 -29.9264889 161.84805926 -29.96566904 160.92548096 C-30.23132017 154.66747417 -30.49570748 148.40941471 -30.75967407 142.15133667 C-31.37630734 127.5436376 -31.99422595 112.93613899 -32.65966797 98.33056641 C-32.73218387 96.73368091 -32.73218387 96.73368091 -32.80616474 95.1045351 C-33.01619846 90.49062728 -33.22908193 85.87689066 -33.448349 81.26341248 C-36.14502958 23.44858071 -36.14502958 23.44858071 -23.875 8.625 C-16.89970883 1.35240134 -9.87213194 -0.63691174 0 0 Z " fill="#FCFBF8" transform="translate(65,122)"/>
<path d="M0 0 C-2.95199222 2.34361911 -5.96309133 4.09278947 -9.3125 5.8125 C-21.63773654 12.53832444 -29.53414109 22.72124539 -34.12280273 35.98706055 C-35.63669593 41.18688128 -36.42544592 46.45882892 -37.1875 51.8125 C-37.35185547 52.90498047 -37.51621094 53.99746094 -37.68554688 55.12304688 C-37.98987895 57.14740961 -38.28958692 59.17247796 -38.58276367 61.19848633 C-38.86266478 63.07786914 -39.17489806 64.95269904 -39.51799011 66.82157898 C-39.97361987 69.8260468 -40.12685473 72.62134652 -40.12939453 75.65625 C-40.13254669 76.74599121 -40.13569885 77.83573242 -40.13894653 78.95849609 C-40.1369223 80.12719238 -40.13489807 81.29588867 -40.1328125 82.5 C-40.13376923 83.7267041 -40.13472595 84.9534082 -40.13571167 86.21728516 C-40.13639186 88.81966198 -40.13454877 91.4220405 -40.13037109 94.02441406 C-40.12509406 97.93037949 -40.13028307 101.836226 -40.13671875 105.7421875 C-41.08704104 155.95172396 -41.08704104 155.95172396 -18.06640625 198.984375 C-14.96037221 202.01407928 -11.58638495 204.56774425 -8 207 C-11 208 -11 208 -14.66015625 206.4453125 C-16.1356661 205.68736816 -17.60275179 204.91287317 -19.0625 204.125 C-19.82675293 203.71515869 -20.59100586 203.30531738 -21.37841797 202.88305664 C-27.73547726 199.35981037 -32.97961979 195.27565378 -38 190 C-38.65355469 189.34257812 -39.30710937 188.68515625 -39.98046875 188.0078125 C-51.86211285 175.39148252 -54.7774374 157.62347266 -55.54296875 140.8828125 C-55.60510811 139.53076218 -55.60510811 139.53076218 -55.66850281 138.15139771 C-56.15093957 126.66883568 -56.25907087 115.18292145 -56.29516602 103.69140625 C-56.30667347 101.15782074 -56.32710542 98.62425923 -56.35668945 96.09082031 C-56.67972276 68.21972302 -56.80187578 37.45147045 -36.9765625 15.7890625 C-27.60025315 6.6916025 -13.24495568 -0.40136229 0 0 Z " fill="#FAFAFB" transform="translate(149,59)"/>
<path d="M0 0 C46.86 0 93.72 0 142 0 C142 9.2 142 9.2 138 14 C134.69541918 16.20305388 133.69369996 16.25353769 129.85147095 16.26742554 C128.78597519 16.27595551 127.72047943 16.28448547 126.62269592 16.29327393 C125.45379318 16.29236755 124.28489044 16.29146118 123.08056641 16.29052734 C121.84945633 16.29724457 120.61834625 16.30396179 119.34992981 16.31088257 C115.97170499 16.32664344 112.59372598 16.33323865 109.21548128 16.33451414 C106.39494359 16.33641329 103.57442949 16.34377105 100.75390089 16.35085833 C94.09861708 16.36714651 87.44338738 16.37202692 80.78808594 16.37060547 C73.9243976 16.36940412 67.06102375 16.39050333 60.19741499 16.4220928 C54.30346721 16.44825208 48.40962216 16.45897291 42.51561677 16.45769465 C38.99591099 16.45718487 35.47648463 16.462876 31.9568367 16.48405075 C28.03050726 16.5070269 24.10460839 16.49791428 20.17822266 16.48583984 C19.01336838 16.49707886 17.8485141 16.50831787 16.64836121 16.51989746 C8.79478249 16.45838937 8.79478249 16.45838937 4.85214233 14.18447876 C1.0306893 9.67732894 0 5.85419055 0 0 Z " fill="#FCFCFC" transform="translate(185,412)"/>
<path d="M0 0 C6.2276831 3.82496107 9.52254963 8.93204106 11.67114258 15.78881836 C12.76002167 20.61060878 12.68856299 25.40268917 12.6328125 30.32421875 C12.64441406 31.34451172 12.65601563 32.36480469 12.66796875 33.41601562 C12.6377273 41.31407494 12.00815489 49.07220357 6.8203125 55.32421875 C5.9746875 56.00484375 5.1290625 56.68546875 4.2578125 57.38671875 C3.66742188 57.88429687 3.07703125 58.381875 2.46875 58.89453125 C-0.1662256 60.67290701 -2.63394773 61.42931665 -5.6796875 62.32421875 C-11.09947725 64.06700132 -15.08188084 65.54047876 -18.0546875 70.63671875 C-19.61054898 76.86016466 -18.67618923 82.23884994 -17.19140625 88.3359375 C-16.66477891 90.74010578 -16.51235066 92.93512577 -16.7421875 95.38671875 C-17.7421875 96.38671875 -17.7421875 96.38671875 -20.3046875 96.44921875 C-21.1090625 96.42859375 -21.9134375 96.40796875 -22.7421875 96.38671875 C-26.85297179 87.2715014 -28.91248963 77.30397957 -25.82421875 67.4609375 C-21.56316522 59.22623287 -14.34799124 56.56675354 -6.0703125 53.34765625 C-1.13828155 51.39810723 -1.13828155 51.39810723 2.2578125 47.38671875 C4.21647283 41.51073777 4.50628349 36.30911518 4.5703125 30.13671875 C4.59931641 29.22019531 4.62832031 28.30367187 4.65820312 27.359375 C4.71555413 21.17428965 3.81321725 16.53300851 0.2578125 11.38671875 C-4.64864891 6.72558041 -8.80053449 4.90539725 -15.49609375 5.0703125 C-20.02712934 5.70859751 -22.69768637 8.4582733 -25.9921875 11.38671875 C-28.33595829 15.40461154 -28.75064567 19.26462246 -29.34765625 23.83984375 C-29.7421875 26.38671875 -29.7421875 26.38671875 -30.7421875 27.38671875 C-33.2421875 27.51171875 -33.2421875 27.51171875 -35.7421875 27.38671875 C-37.50046064 25.62844561 -37.03869774 23.27763747 -37.1171875 20.88671875 C-37.03952447 13.62091095 -34.99766027 8.83499856 -30.02734375 3.5703125 C-21.45430564 -4.21483152 -10.42664741 -4.77748314 0 0 Z " fill="#030306" transform="translate(170.7421875,97.61328125)"/>
<path d="M0 0 C1.65553289 0.0000556 3.31106588 -0.00037065 4.96659851 -0.001297 C21.15484751 -0.01034402 37.34147158 0.02532044 53.52211761 0.57430267 C55.07631912 0.61947777 55.07631912 0.61947777 56.66191864 0.66556549 C57.59466614 0.70336624 58.52741364 0.74116699 59.48842621 0.78011322 C60.69648422 0.82545448 60.69648422 0.82545448 61.92894745 0.87171173 C63.87368011 1.18758392 63.87368011 1.18758392 65.87368011 3.18758392 C65.31812456 7.74313948 65.31812456 7.74313948 63.87368011 9.18758392 C61.89939777 9.28427273 59.92160181 9.30945467 57.94495392 9.30783844 C56.65621368 9.3092131 55.36747345 9.31058777 54.03968048 9.31200409 C52.59819771 9.30846447 51.15671517 9.30482966 49.71523285 9.30110931 C48.20771537 9.30082745 46.70019776 9.30098516 45.19268036 9.30155182 C41.08748668 9.30183983 36.98232196 9.29594253 32.87713504 9.28897786 C28.59164751 9.28274491 24.30615939 9.28214057 20.02066803 9.28095245 C11.8998136 9.27783896 3.77897255 9.26962534 -4.34187597 9.25960296 C-13.58476863 9.24844238 -22.82766191 9.24293151 -32.07055962 9.23790753 C-51.08915398 9.22744274 -70.10773586 9.20984296 -89.12631989 9.18758392 C-89.75131989 6.81258392 -89.75131989 6.81258392 -90.12631989 4.18758392 C-87.09318017 1.1544442 -83.53424726 1.71299722 -79.44663239 1.55477142 C-78.52408661 1.51307327 -77.60154083 1.47137512 -76.65103912 1.42841339 C-73.51818468 1.29338875 -70.38501121 1.17646347 -67.25131989 1.06258392 C-65.61879272 0.99954575 -65.61879272 0.99954575 -63.95328522 0.93523407 C-42.63842819 0.13297138 -21.32751526 -0.00084012 0 0 Z " fill="#06050A" transform="translate(306.1263198852539,158.81241607666016)"/>
<path d="M0 0 C6.93 0 13.86 0 21 0 C21.3403125 3.3103125 21.3403125 3.3103125 21.6875 6.6875 C23.00048487 17.31720182 26.16163616 28.30223462 34 36 C36.22042457 37.69433095 38.4700691 39.2176388 40.8515625 40.67578125 C43.00517541 42.00318994 44.99805238 43.455511 47 45 C34.40359892 45.81706385 22.80339431 43.28482931 13 35 C5.61678692 28.19967217 0.56335829 19.14044925 0 9 C0 6.03 0 3.06 0 0 Z " fill="#FCFBFC" transform="translate(20,412)"/>
<path d="M0 0 C3.48108302 0.00534841 6.96203615 0.0000248 10.44311523 -0.00634766 C21.55345466 -0.01086027 32.65409062 0.10485512 43.75756836 0.51318359 C44.73297073 0.54354706 45.70837311 0.57391052 46.71333313 0.60519409 C48.04946907 0.66237106 48.04946907 0.66237106 49.41259766 0.72070312 C50.19265671 0.75132843 50.97271576 0.78195374 51.77641296 0.81350708 C53.68334961 1.13037109 53.68334961 1.13037109 55.68334961 3.13037109 C55.80834961 5.75537109 55.80834961 5.75537109 55.68334961 8.13037109 C52.24231298 9.85088941 48.27909122 9.27752903 44.49194336 9.27563477 C43.06254929 9.28067268 43.06254929 9.28067268 41.60427856 9.28581238 C38.44312245 9.29533919 35.2820192 9.29726625 32.12084961 9.29833984 C29.93131488 9.30155082 27.74178036 9.30491477 25.55224609 9.3084259 C20.95889793 9.31442123 16.3655686 9.31626535 11.7722168 9.31567383 C5.87370435 9.31557209 -0.02468804 9.32923446 -5.923172 9.34644604 C-10.44576578 9.35753921 -14.96833028 9.35959388 -19.49093628 9.3590641 C-21.66633519 9.36024789 -23.84173477 9.3646918 -26.01712036 9.37239647 C-29.0532484 9.38214393 -32.08911226 9.37933934 -35.12524414 9.37329102 C-36.03128387 9.37891052 -36.93732361 9.38453003 -37.87081909 9.39031982 C-44.08833417 9.35868732 -44.08833417 9.35868732 -46.31665039 7.13037109 C-45.94983381 4.19583849 -45.45227793 3.26599864 -43.31665039 1.13037109 C-40.47213371 0.80914497 -37.72233804 0.61711746 -34.86743164 0.51318359 C-33.98646317 0.47564972 -33.10549469 0.43811584 -32.1978302 0.39944458 C-21.46904687 -0.01063022 -10.73513674 -0.0195444 0 0 Z " fill="#08070D" transform="translate(262.316650390625,118.86962890625)"/>
<path d="M0 0 C33 0 66 0 100 0 C100.495 2.475 100.495 2.475 101 5 C98.30475772 7.69524228 96.2165374 7.24600459 92.5541687 7.27105713 C91.64812897 7.26700867 90.74208923 7.26296021 89.80859375 7.25878906 C88.37919968 7.26404602 88.37919968 7.26404602 86.92092896 7.26940918 C83.75971265 7.27823753 80.59871873 7.27237342 77.4375 7.265625 C75.24796506 7.26697133 73.0584304 7.2689116 70.86889648 7.27142334 C66.27552449 7.2743761 61.68223017 7.27007205 57.08886719 7.26074219 C51.19034137 7.24934761 45.29199753 7.25590626 39.39347839 7.26788712 C34.87087626 7.2751016 30.34831753 7.27281968 25.82571411 7.26763153 C23.6503192 7.26629389 21.47492039 7.26794671 19.29953003 7.27259064 C16.26338202 7.27764909 13.22753197 7.26995518 10.19140625 7.25878906 C9.28536652 7.26283752 8.37932678 7.26688599 7.4458313 7.27105713 C1.22852747 7.22852747 1.22852747 7.22852747 -1 5 C-0.67 3.35 -0.34 1.7 0 0 Z " fill="#000001" transform="translate(271,203)"/>
<path d="M0 0 C4.06324176 3.36668603 6.9789105 6.68488706 7.5 12 C7.04817808 17.5122274 5.229495 20.89426227 1.125 24.75 C-3.52318652 26.43125895 -7.93913063 26.57709021 -12.8125 25.8125 C-16.25759213 24.15803876 -18.2329911 21.78712861 -20.1875 18.5 C-21.44171278 13.10688505 -21.6201955 9.39797635 -19.125 4.5 C-13.87572907 -1.60050405 -7.50034799 -3.1668136 0 0 Z " fill="#050407" transform="translate(161.8125,204.1875)"/>
<path d="M0 0 C2.0625 -0.4375 2.0625 -0.4375 5 0 C7.63858337 2.04944599 9.79275416 4.50132127 12 7 C12.80050781 7.90298828 12.80050781 7.90298828 13.6171875 8.82421875 C14.74496951 10.11118531 15.86702071 11.40318844 16.984375 12.69921875 C19.44483156 15.50776316 21.97102168 18.25341989 24.5 21 C25.44275452 22.03250991 26.38546362 23.0650613 27.328125 24.09765625 C28.96390462 25.87453382 30.61645407 27.6363735 32.296875 29.37109375 C32.94140625 30.05300781 33.5859375 30.73492187 34.25 31.4375 C34.81203125 32.01371094 35.3740625 32.58992188 35.953125 33.18359375 C37 35 37 35 36.671875 37.72265625 C36.45015625 38.47417969 36.2284375 39.22570312 36 40 C33.8671875 40.87109375 33.8671875 40.87109375 31 41 C28.75509235 39.07011345 27.01111326 37.30125938 25.125 35.0625 C24.59398682 34.45929932 24.06297363 33.85609863 23.51586914 33.23461914 C21.99536611 31.50224464 20.49590958 29.75360606 19 28 C17.81363763 26.64483657 16.62637631 25.29045851 15.4375 23.9375 C14.91671875 23.33421875 14.3959375 22.7309375 13.859375 22.109375 C10.8767036 18.72567215 7.80431552 15.42349777 4.73022461 12.12280273 C2.60371477 9.82408752 0.74221129 7.61331694 -1 5 C-0.625 2.3125 -0.625 2.3125 0 0 Z " fill="#0A0A0A" transform="translate(386,303)"/>
<path d="M0 0 C1.67542976 0.28604898 3.34385343 0.61781233 5 1 C7.00332115 6.3240437 4.5809283 10.51843727 2.5 15.4375 C2.13777344 16.31825195 1.77554687 17.19900391 1.40234375 18.10644531 C-1.71936328 25.58712132 -5.20567983 32.83822068 -9 40 C-10.65 39.67 -12.3 39.34 -14 39 C-15.0430836 35.1705972 -15.02183474 33.16541626 -13.3046875 29.59375 C-12.92054688 28.77302002 -12.53640625 27.95229004 -12.140625 27.10668945 C-11.72296875 26.24648193 -11.3053125 25.38627441 -10.875 24.5 C-10.0362389 22.71356259 -9.2003008 20.92579702 -8.3671875 19.13671875 C-7.95952148 18.26450684 -7.55185547 17.39229492 -7.13183594 16.49365234 C-5.16208137 12.15390404 -3.51258865 7.71321969 -1.875 3.23828125 C-1 1 -1 1 0 0 Z " fill="#0B0B0B" transform="translate(325,319)"/>
<path d="M0 0 C2.4375 0.19140625 2.4375 0.19140625 5 1 C7.10563333 3.92987796 7.93128422 7.5785144 9 11 C9.21720703 11.6899707 9.43441406 12.37994141 9.65820312 13.09082031 C10.37712693 15.40879887 11.06848302 17.7332617 11.75 20.0625 C11.97300781 20.80556396 12.19601562 21.54862793 12.42578125 22.31420898 C13.92764851 27.68468321 14.19889203 32.42549833 14 38 C11.525 38.495 11.525 38.495 9 39 C6.13396805 34.85927396 5.06523043 30.73168898 4.0625 25.875 C2.73409242 19.76445619 1.10770475 14.06557095 -1.36328125 8.296875 C-2.13624268 5.50852335 -1.81135558 3.75196628 -1 1 C-0.67 0.67 -0.34 0.34 0 0 Z " fill="#0D0D0D" transform="translate(357,310)"/>
<path d="M0 0 C1.15435547 -0.01224609 2.30871094 -0.02449219 3.49804688 -0.03710938 C5.16383789 -0.04000977 5.16383789 -0.04000977 6.86328125 -0.04296875 C7.88333252 -0.04707764 8.90338379 -0.05118652 9.9543457 -0.05541992 C12.70545814 0.1890961 14.34258378 0.77481133 16.6875 2.1875 C15.8125 7.0625 15.8125 7.0625 14.6875 8.1875 C10.21418042 8.44130234 5.7296654 8.37272721 1.25 8.375 C-0.01650391 8.38724609 -1.28300781 8.39949219 -2.58789062 8.41210938 C-3.79509766 8.41404297 -5.00230469 8.41597656 -6.24609375 8.41796875 C-7.9175647 8.42413208 -7.9175647 8.42413208 -9.62280273 8.43041992 C-12.3125 8.1875 -12.3125 8.1875 -14.3125 6.1875 C-13.27239795 -2.34133681 -7.30578142 0.00403857 0 0 Z " fill="#09070F" transform="translate(355.3125,119.8125)"/>
<path d="M0 0 C4.1117256 -0.02465746 8.22342278 -0.04283959 12.33520508 -0.05493164 C13.73495228 -0.0599708 15.1346942 -0.06680216 16.53442383 -0.07543945 C18.54245777 -0.0875232 20.55052957 -0.09269807 22.55859375 -0.09765625 C24.37315063 -0.10551147 24.37315063 -0.10551147 26.22436523 -0.11352539 C29 0 29 0 30 1 C30.04063832 2.66617115 30.042721 4.33388095 30 6 C27.2464504 7.3767748 25.01159591 7.12969689 21.93359375 7.1328125 C20.72638672 7.13410156 19.51917969 7.13539063 18.27539062 7.13671875 C16.37563477 7.13091797 16.37563477 7.13091797 14.4375 7.125 C13.16712891 7.12886719 11.89675781 7.13273438 10.58789062 7.13671875 C9.38197266 7.13542969 8.17605469 7.13414062 6.93359375 7.1328125 C5.82040771 7.13168457 4.70722168 7.13055664 3.56030273 7.12939453 C1 7 1 7 0 6 C-0.04080783 4.00041636 -0.04254356 1.99954746 0 0 Z " fill="#010102" transform="translate(217,203)"/>
<path d="M0 0 C1.17111328 -0.01224609 2.34222656 -0.02449219 3.54882812 -0.03710938 C4.66580078 -0.03904297 5.78277344 -0.04097656 6.93359375 -0.04296875 C7.96411865 -0.04707764 8.99464355 -0.05118652 10.05639648 -0.05541992 C12.5625 0.1875 12.5625 0.1875 14.5625 2.1875 C14.02678571 5.72321429 14.02678571 5.72321429 12.5625 7.1875 C8.42287717 7.44051239 4.27144004 7.37272549 0.125 7.375 C-1.04611328 7.38724609 -2.21722656 7.39949219 -3.42382812 7.41210938 C-4.54080078 7.41404297 -5.65777344 7.41597656 -6.80859375 7.41796875 C-7.83911865 7.42207764 -8.86964355 7.42618652 -9.93139648 7.43041992 C-12.4375 7.1875 -12.4375 7.1875 -14.4375 5.1875 C-13.29099133 -2.37945722 -6.28056856 0.00344518 0 0 Z " fill="#010102" transform="translate(98.4375,430.8125)"/>
<path d="M0 0 C0.98033203 -0.01224609 1.96066406 -0.02449219 2.97070312 -0.03710938 C3.90720703 -0.03904297 4.84371094 -0.04097656 5.80859375 -0.04296875 C6.67154053 -0.04707764 7.5344873 -0.05118652 8.42358398 -0.05541992 C10.5625 0.1875 10.5625 0.1875 12.5625 2.1875 C12.6875 4.8125 12.6875 4.8125 12.5625 7.1875 C8.79210943 9.07269529 4.21095405 8.37225994 0.0625 8.375 C-0.91332031 8.38724609 -1.88914063 8.39949219 -2.89453125 8.41210938 C-4.29251953 8.41500977 -4.29251953 8.41500977 -5.71875 8.41796875 C-6.57533203 8.42207764 -7.43191406 8.42618652 -8.31445312 8.43041992 C-10.4375 8.1875 -10.4375 8.1875 -12.4375 6.1875 C-11.46226782 -1.80940386 -6.95704033 0.00455602 0 0 Z " fill="#09080F" transform="translate(138.4375,431.8125)"/>
<path d="M0 0 C1.27423828 -0.00193359 1.27423828 -0.00193359 2.57421875 -0.00390625 C3.91419922 0.00189453 3.91419922 0.00189453 5.28125 0.0078125 C6.17457031 0.00394531 7.06789063 0.00007813 7.98828125 -0.00390625 C8.83777344 -0.00261719 9.68726563 -0.00132812 10.5625 0 C11.34689453 0.00112793 12.13128906 0.00225586 12.93945312 0.00341797 C14.78125 0.1328125 14.78125 0.1328125 15.78125 1.1328125 C15.90625 3.6328125 15.90625 3.6328125 15.78125 6.1328125 C14.22518249 7.68888001 12.72167629 7.26252019 10.5625 7.265625 C9.28826172 7.26755859 9.28826172 7.26755859 7.98828125 7.26953125 C6.64830078 7.26373047 6.64830078 7.26373047 5.28125 7.2578125 C4.38792969 7.26167969 3.49460937 7.26554687 2.57421875 7.26953125 C1.72472656 7.26824219 0.87523437 7.26695312 0 7.265625 C-0.78439453 7.26449707 -1.56878906 7.26336914 -2.37695312 7.26220703 C-4.21875 7.1328125 -4.21875 7.1328125 -5.21875 6.1328125 C-5.34375 3.6328125 -5.34375 3.6328125 -5.21875 1.1328125 C-3.66268249 -0.42325501 -2.15917629 0.00310481 0 0 Z " fill="#020103" transform="translate(53.21875,430.8671875)"/>
<path d="M0 0 C3.375 0.9375 3.375 0.9375 5.375 3.9375 C5.1875 7.5 5.1875 7.5 4.375 10.9375 C1.12673326 13.10301116 0.14405843 13.48906953 -3.625 12.9375 C-6.35751347 10.94350369 -7.45747946 9.7751027 -8.125 6.4375 C-7.12997193 1.46235967 -5.00784378 -0.08634213 0 0 Z " fill="#F0F0F0" transform="translate(155.625,210.0625)"/>
<path d="M0 0 C1.875 0.75 1.875 0.75 2.875 1.75 C3.04296875 3.74609375 3.04296875 3.74609375 3.0625 6.1875 C3.07667969 6.99058594 3.09085937 7.79367187 3.10546875 8.62109375 C2.875 10.75 2.875 10.75 0.875 12.75 C-3.68055556 12.19444444 -3.68055556 12.19444444 -5.125 10.75 C-5.5914723 3.5196793 -5.5914723 3.5196793 -3.875 0.6875 C-2.125 -0.25 -2.125 -0.25 0 0 Z " fill="#181818" transform="translate(371.125,360.25)"/>
</svg>
