<?xml version="1.0" encoding="UTF-8"?>
<svg version="1.1" xmlns="http://www.w3.org/2000/svg" width="512" height="512">
<path d="M0 0 C1.31821045 -0.00382555 2.63642089 -0.00765109 3.99457711 -0.01159257 C7.6338142 -0.02183807 11.2729524 -0.01969959 14.91219747 -0.01541197 C18.84483159 -0.01293844 22.77744229 -0.02196672 26.71006775 -0.02944946 C34.40716357 -0.04218137 42.10422448 -0.04399201 49.80132905 -0.0416492 C56.06007361 -0.03986409 62.31880759 -0.04161983 68.57755089 -0.04587364 C69.46930848 -0.04646883 70.36106608 -0.04706402 71.27984663 -0.04767724 C73.09163505 -0.04888904 74.90342347 -0.05010317 76.71521189 -0.05131962 C93.69635071 -0.06218948 110.67746966 -0.06003537 127.65860959 -0.05393478 C143.17931899 -0.04876689 158.69996559 -0.06001866 174.22066257 -0.07903299 C190.17226643 -0.09842481 206.1238406 -0.10666499 222.07545632 -0.10290974 C231.02504969 -0.10099964 239.97458963 -0.1034666 248.92417336 -0.11762428 C256.54366879 -0.12955623 264.16307791 -0.13092271 271.78257457 -0.11883412 C275.66661592 -0.11295796 279.55049955 -0.11181079 283.43453026 -0.12383652 C286.99696383 -0.13473789 290.55910881 -0.13154199 294.12152912 -0.11757483 C296.00609092 -0.11370058 297.89066574 -0.12444022 299.77519685 -0.13587171 C314.59960992 -0.04244387 327.87609707 3.97287911 338.89237976 14.22163391 C348.58017293 24.93567635 353.31698747 38.43010662 354.11112976 52.69819641 C353.73612976 56.26069641 353.73612976 56.26069641 351.86112976 58.69819641 C347.99044799 61.54428595 344.91208617 61.39710008 340.25712585 61.3742218 C339.48630173 61.37436783 338.7154776 61.37451385 337.92129517 61.37466431 C335.36735747 61.37396631 332.81349225 61.36617916 330.25956726 61.35835266 C328.4912266 61.35648808 326.72288543 61.35506437 324.95454407 61.35406494 C320.29548217 61.35024291 315.63645134 61.34041529 310.97740173 61.32936096 C306.22510702 61.3191401 301.47280729 61.31456587 296.72050476 61.30952454 C287.39236609 61.29879276 278.06425051 61.28172008 268.73612976 61.26069641 C268.74723282 61.98874985 268.75833588 62.71680328 268.76977539 63.46691895 C268.87007839 70.33765768 268.94614583 77.2082866 268.99519062 84.07956982 C269.02125364 87.61202486 269.05658842 91.14387354 269.11332703 94.67597961 C269.1781904 98.73943303 269.20233708 102.80225239 269.22441101 106.86616516 C269.25021744 108.13091171 269.27602386 109.39565826 269.3026123 110.69873047 C269.30573672 120.46811074 269.30573672 120.46811074 266.33061218 123.59785461 C263.73612976 125.26069641 263.73612976 125.26069641 261.73612976 125.26069641 C262.06612976 130.87069641 262.39612976 136.48069641 262.73612976 142.26069641 C264.38097351 141.8623761 266.02581726 141.46405579 267.72050476 141.05366516 C281.32888402 137.80371945 294.83073761 134.86464979 308.73612976 133.26069641 C310.05121521 133.10625061 310.05121521 133.10625061 311.39286804 132.94868469 C323.65097548 131.57266376 335.91756766 131.0300007 348.24580383 130.90922546 C349.73153841 130.89362152 351.21722214 130.8718969 352.70277405 130.84385681 C354.79248843 130.80815759 356.88052129 130.79993384 358.97050476 130.79975891 C360.17932312 130.79154114 361.38814148 130.78332336 362.6335907 130.77485657 C366.36119731 131.35857841 367.52634986 132.24705745 369.73612976 135.26069641 C370.45064347 139.2229997 370.83447406 141.63485781 368.54862976 145.01850891 C366.70959821 146.91943094 364.78565252 148.5876891 362.73612976 150.26069641 C361.8789032 150.96065735 361.02167664 151.66061829 360.13847351 152.38179016 C358.2641973 153.90282726 356.38650473 155.41966292 354.50566101 156.93257141 C351.07743683 159.81440725 347.9756775 162.93390541 344.85331726 166.13960266 C342.86182248 168.13477179 340.81233713 169.98823542 338.67362976 171.82319641 C333.20686507 176.53068823 328.1829492 181.57282068 323.46269226 187.02632141 C313.77725388 198.1455908 303.23303382 208.20404261 291.40653992 217.00483704 C289.73919333 218.25839313 288.10042651 219.54196124 286.46659851 220.83882141 C285.93155701 221.26034485 285.3965155 221.68186829 284.84526062 222.11616516 C283.77851521 222.9577789 282.71546301 223.80409652 281.65629578 224.65522766 C278.83129042 226.86636512 276.09329149 228.646846 272.84550476 230.18257141 C267.15738034 232.90112327 267.15738034 232.90112327 262.73612976 237.26069641 C260.80058969 243.70757504 261.22457847 250.61723532 261.73612976 257.26069641 C262.33425476 257.36382141 262.93237976 257.46694641 263.54862976 257.57319641 C266.11588946 258.38004946 267.05523827 259.17882596 268.73612976 261.26069641 C269.1164465 263.20211601 269.1164465 263.20211601 269.12380981 265.44425964 C269.13866676 266.72225182 269.13866676 266.72225182 269.15382385 268.02606201 C269.1493222 268.95797867 269.14482056 269.88989532 269.1401825 270.85005188 C269.15047737 272.32631294 269.15047737 272.32631294 269.16098022 273.83239746 C269.1793308 277.09770513 269.17539544 280.36253553 269.16972351 283.62788391 C269.17428471 285.90174007 269.1795901 288.17559486 269.18560791 290.44944763 C269.19455773 295.22610554 269.19209851 300.00259648 269.18217468 304.7792511 C269.17074328 310.8729971 269.19079742 316.9661586 269.22009182 323.0598278 C269.23853649 327.76304236 269.23814388 332.46611942 269.2324543 337.16936111 C269.23230177 339.41382282 269.23828918 341.65829426 269.25074577 343.90272141 C269.34153995 362.96289236 267.57077074 378.01624604 253.92362976 392.57319641 C242.04549685 403.67913713 227.70678668 406.88762835 211.7950592 406.76190186 C210.45096267 406.76580631 209.10687029 406.77145583 207.76278746 406.77867275 C204.11192344 406.79328114 200.46149716 406.78333471 196.81064796 406.76893604 C192.85696024 406.75774604 188.90332995 406.76979507 184.949646 406.77877808 C177.22177067 406.79265754 169.49405958 406.78519406 161.76619218 406.77010249 C152.75522869 406.75317974 143.7443054 406.75646047 134.73333092 406.76019657 C118.65024644 406.76606529 102.56724044 406.75194159 86.48417664 406.72724915 C70.89853475 406.7033233 55.31299765 406.69624928 39.7273407 406.70674133 C22.72871663 406.71816418 5.73014093 406.72006434 -11.26848257 406.70564324 C-13.08276518 406.70411749 -14.89704779 406.70259714 -16.71133041 406.70108223 C-17.60384788 406.70032442 -18.49636534 406.6995666 -19.41592879 406.69878582 C-25.68874264 406.69405418 -31.96153479 406.69588641 -38.2343483 406.70014763 C-45.88301287 406.70508661 -53.53157861 406.69903494 -61.18022062 406.67925333 C-65.07846488 406.66941787 -68.97655903 406.6642355 -72.87481117 406.67214584 C-76.45001129 406.67925197 -80.02490978 406.67228428 -83.6000704 406.65454222 C-85.49134252 406.64864292 -87.38264321 406.6572723 -89.27390158 406.66658872 C-104.02851249 406.55805454 -116.71219197 402.7101338 -127.63887024 392.44819641 C-136.71494098 382.67541485 -142.29854721 370.05947335 -142.63887024 356.76069641 C-142.68785461 355.45100891 -142.73683899 354.14132141 -142.78730774 352.79194641 C-142.26387024 349.26069641 -142.26387024 349.26069641 -140.22561646 347.06837463 C-136.53123536 344.81353855 -133.54808225 344.72395051 -129.35249329 344.80659485 C-128.18096962 344.80571869 -128.18096962 344.80571869 -126.98577881 344.80482483 C-124.41525666 344.80760207 -121.84590747 344.83867566 -119.27558899 344.87007141 C-117.48912184 344.87753511 -115.70264649 344.88322744 -113.91616821 344.88722229 C-109.2224096 344.90246849 -104.52914892 344.94174143 -99.83558655 344.98603821 C-95.04286942 345.02701287 -90.25007155 345.04523799 -85.45722961 345.06538391 C-76.05922482 345.10823676 -66.66158899 345.17647574 -57.26387024 345.26069641 C-57.2650094 344.62834619 -57.26614856 343.99599597 -57.26732224 343.34448361 C-57.33449923 305.8418744 -57.38595152 268.3392741 -57.41706623 230.83661701 C-57.42081822 226.33067853 -57.4247012 221.82474018 -57.42866516 217.31880188 C-57.42945209 216.42177456 -57.43023902 215.52474724 -57.4310498 214.60053727 C-57.44409328 200.08803992 -57.46774129 185.57557832 -57.49532863 171.06310216 C-57.52341227 156.16496295 -57.54005275 141.26684244 -57.54613572 126.36867785 C-57.55024603 117.1803966 -57.5632144 107.99221644 -57.58761964 98.80396631 C-57.60351337 92.49783498 -57.60826238 86.19175568 -57.60437437 79.88560578 C-57.60245847 76.25072161 -57.60533452 72.61601371 -57.62148666 68.98116112 C-57.63891074 65.03100148 -57.6328034 61.08106838 -57.62463379 57.13087463 C-57.63337231 55.99465329 -57.64211084 54.85843195 -57.65111417 53.68777966 C-57.56583024 38.37624353 -52.93891795 25.48436888 -42.39668274 14.26069641 C-30.26863376 2.88787392 -16.14011405 -0.04990179 0 0 Z " fill="#F0E8D7" transform="translate(142.2638702392578,52.73930358886719)"/>
<path d="M0 0 C1.31821045 -0.00382555 2.63642089 -0.00765109 3.99457711 -0.01159257 C7.6338142 -0.02183807 11.2729524 -0.01969959 14.91219747 -0.01541197 C18.84483159 -0.01293844 22.77744229 -0.02196672 26.71006775 -0.02944946 C34.40716357 -0.04218137 42.10422448 -0.04399201 49.80132905 -0.0416492 C56.06007361 -0.03986409 62.31880759 -0.04161983 68.57755089 -0.04587364 C69.46930848 -0.04646883 70.36106608 -0.04706402 71.27984663 -0.04767724 C73.09163505 -0.04888904 74.90342347 -0.05010317 76.71521189 -0.05131962 C93.69635071 -0.06218948 110.67746966 -0.06003537 127.65860959 -0.05393478 C143.17931899 -0.04876689 158.69996559 -0.06001866 174.22066257 -0.07903299 C190.17226643 -0.09842481 206.1238406 -0.10666499 222.07545632 -0.10290974 C231.02504969 -0.10099964 239.97458963 -0.1034666 248.92417336 -0.11762428 C256.54366879 -0.12955623 264.16307791 -0.13092271 271.78257457 -0.11883412 C275.66661592 -0.11295796 279.55049955 -0.11181079 283.43453026 -0.12383652 C286.99696383 -0.13473789 290.55910881 -0.13154199 294.12152912 -0.11757483 C296.00609092 -0.11370058 297.89066574 -0.12444022 299.77519685 -0.13587171 C314.59960992 -0.04244387 327.87609707 3.97287911 338.89237976 14.22163391 C348.58017293 24.93567635 353.31698747 38.43010662 354.11112976 52.69819641 C353.73612976 56.26069641 353.73612976 56.26069641 351.86112976 58.69819641 C347.99044799 61.54428595 344.91208617 61.39710008 340.25712585 61.3742218 C339.48630173 61.37436783 338.7154776 61.37451385 337.92129517 61.37466431 C335.36735747 61.37396631 332.81349225 61.36617916 330.25956726 61.35835266 C328.4912266 61.35648808 326.72288543 61.35506437 324.95454407 61.35406494 C320.29548217 61.35024291 315.63645134 61.34041529 310.97740173 61.32936096 C306.22510702 61.3191401 301.47280729 61.31456587 296.72050476 61.30952454 C287.39236609 61.29879276 278.06425051 61.28172008 268.73612976 61.26069641 C268.74723282 61.98874985 268.75833588 62.71680328 268.76977539 63.46691895 C268.87007839 70.33765768 268.94614583 77.2082866 268.99519062 84.07956982 C269.02125364 87.61202486 269.05658842 91.14387354 269.11332703 94.67597961 C269.1781904 98.73943303 269.20233708 102.80225239 269.22441101 106.86616516 C269.25021744 108.13091171 269.27602386 109.39565826 269.3026123 110.69873047 C269.30573673 120.46813757 269.30573673 120.46813757 266.34111023 123.58808899 C263.73612976 125.26069641 263.73612976 125.26069641 261.56816101 125.41694641 C260.9017157 125.20038391 260.23527039 124.98382141 259.54862976 124.76069641 C258.53736023 124.46679016 258.53736023 124.46679016 257.50566101 124.16694641 C255.73612976 123.26069641 255.73612976 123.26069641 253.73612976 120.26069641 C253.5267364 117.73228934 253.43207887 115.31239517 253.42973328 112.78266907 C253.42140976 112.02282715 253.41308624 111.26298523 253.4045105 110.4801178 C253.38037249 107.96161284 253.37162917 105.44336741 253.36503601 102.92475891 C253.35606496 101.16656926 253.34694303 99.40838038 253.337677 97.65019226 C253.32116887 93.95637664 253.31348491 90.26265176 253.31059265 86.56880188 C253.30523981 81.86718979 253.26769749 77.16644963 253.22184849 72.46508217 C253.19187745 68.82730631 253.18486461 65.18973405 253.1838665 61.55184555 C253.17969547 59.82091195 253.16738849 58.08997595 253.14634895 56.35916519 C252.97494727 41.02398553 255.97438433 29.54160195 265.73612976 17.26069641 C266.06612976 16.93069641 266.39612976 16.60069641 266.73612976 16.26069641 C231.66927334 16.16905229 196.60244124 16.09861276 161.53549017 16.05643509 C157.39135096 16.05143253 153.24721198 16.04625522 149.10307312 16.04096985 C148.27808286 16.03992061 147.45309261 16.03887137 146.60310265 16.03779033 C133.26170437 16.02040612 119.92037535 15.98887941 106.57901809 15.95208523 C92.87981931 15.91462049 79.18065669 15.89244888 65.48140877 15.88434243 C57.03472273 15.87886611 48.58823246 15.86159751 40.14160671 15.82903054 C34.34192143 15.80781427 28.54233672 15.80151238 22.7426155 15.8066909 C19.4011305 15.80924175 16.06026021 15.80323722 12.71879005 15.78387451 C-10.29676611 15.16236404 -10.29676611 15.16236404 -30.32637024 25.26850891 C-38.90281984 34.08703572 -40.56224212 42.53930904 -40.54234314 54.48527527 C-40.54813554 55.72771818 -40.55392794 56.9701611 -40.55989587 58.2502538 C-40.57394814 61.69143443 -40.57912532 65.13242077 -40.58054447 68.57361603 C-40.58424237 72.28727028 -40.5993998 76.00087992 -40.61315918 79.71450806 C-40.63542359 86.14614773 -40.6504418 92.57777152 -40.66052628 99.00944138 C-40.67511719 108.3085289 -40.70065519 117.60756107 -40.72885756 126.90661611 C-40.77431804 141.99402925 -40.81093593 157.08145038 -40.84199524 172.16889954 C-40.87218382 186.82418722 -40.90653552 201.47945539 -40.94648743 216.13471985 C-40.94894898 217.03820317 -40.95141052 217.94168649 -40.95394666 218.87254809 C-40.96632133 223.40509806 -40.97877785 227.9376478 -40.99127507 232.47019744 C-41.09483173 270.06700352 -41.18403867 307.66383284 -41.26387024 345.26069641 C-40.14588736 345.25608745 -39.02790447 345.25147848 -37.87604332 345.24672985 C-10.68532257 345.13578021 16.50536886 345.05359056 43.69626808 345.00163555 C56.84554204 344.9758433 69.99466656 344.94067297 83.1438446 344.88349915 C94.60336893 344.8336958 106.06278503 344.80141283 117.52241457 344.79025394 C123.59142538 344.78373007 129.66012657 344.76837533 135.72903824 344.73204613 C141.44013062 344.69813552 147.1507855 344.68763367 152.86196899 344.695158 C154.95902254 344.69378127 157.05609055 344.68381971 159.1530571 344.66466904 C162.01540328 344.63980842 164.87609555 344.64576595 167.73847961 344.65942383 C168.56922929 344.64485962 169.39997897 344.63029541 170.25590289 344.61528987 C174.32672915 344.6678306 176.96922811 345.02346564 180.2318325 347.57098103 C183.30128332 350.86769393 183.83264439 353.63400801 184.29862976 357.94819641 C185.69789398 367.4153292 188.74022796 375.42025909 195.73612976 382.26069641 C206.11309069 389.44344624 216.05842633 390.87137202 228.50566101 388.79975891 C238.27997472 385.88971805 245.01029942 378.94925343 249.86444092 370.23516846 C253.87349982 361.09085507 253.25967641 351.48611664 253.1914196 341.70033455 C253.16937939 338.40058285 253.17329795 335.10173974 253.18389893 331.80194092 C253.20547207 323.61800986 253.18812386 315.43428777 253.16239929 307.25038147 C253.14102663 300.31008306 253.13899028 293.37037054 253.16531563 286.43008232 C253.16967058 283.17911582 253.14502745 279.92916552 253.11978149 276.67831421 C253.12504989 274.69217979 253.13177074 272.70604852 253.1401825 270.71992493 C253.12527267 269.81651367 253.11036285 268.91310242 253.09500122 267.98231506 C253.1647635 261.88421285 253.1647635 261.88421285 256.08197021 258.70074463 C259.32610223 256.9405993 261.09851057 256.64152719 264.73612976 257.26069641 C266.88737488 258.68551636 266.88737488 258.68551636 268.73612976 261.26069641 C269.33932945 264.49065707 269.28229751 267.68574489 269.25370789 270.96357727 C269.2642218 272.44005737 269.2642218 272.44005737 269.27494812 273.94636536 C269.29257537 277.20637609 269.28088006 280.46552026 269.26737976 283.72554016 C269.27007524 285.99796718 269.27395813 288.27039308 269.27897644 290.54281616 C269.28487953 295.31355229 269.27628937 300.08398919 269.25761414 304.85469055 C269.23494107 310.94058597 269.24786875 317.02577123 269.27190399 323.11163998 C269.28643979 327.81057973 269.28171843 332.50935459 269.27139282 337.20829964 C269.26874091 339.44996285 269.27194069 341.69164147 269.28131104 343.93328667 C269.34337528 362.97228753 267.55365603 378.03450172 253.92362976 392.57319641 C242.04549685 403.67913713 227.70678668 406.88762835 211.7950592 406.76190186 C210.45096267 406.76580631 209.10687029 406.77145583 207.76278746 406.77867275 C204.11192344 406.79328114 200.46149716 406.78333471 196.81064796 406.76893604 C192.85696024 406.75774604 188.90332995 406.76979507 184.949646 406.77877808 C177.22177067 406.79265754 169.49405958 406.78519406 161.76619218 406.77010249 C152.75522869 406.75317974 143.7443054 406.75646047 134.73333092 406.76019657 C118.65024644 406.76606529 102.56724044 406.75194159 86.48417664 406.72724915 C70.89853475 406.7033233 55.31299765 406.69624928 39.7273407 406.70674133 C22.72871663 406.71816418 5.73014093 406.72006434 -11.26848257 406.70564324 C-13.08276518 406.70411749 -14.89704779 406.70259714 -16.71133041 406.70108223 C-17.60384788 406.70032442 -18.49636534 406.6995666 -19.41592879 406.69878582 C-25.68874264 406.69405418 -31.96153479 406.69588641 -38.2343483 406.70014763 C-45.88301287 406.70508661 -53.53157861 406.69903494 -61.18022062 406.67925333 C-65.07846488 406.66941787 -68.97655903 406.6642355 -72.87481117 406.67214584 C-76.45001129 406.67925197 -80.02490978 406.67228428 -83.6000704 406.65454222 C-85.49134252 406.64864292 -87.38264321 406.6572723 -89.27390158 406.66658872 C-104.02851249 406.55805454 -116.71219197 402.7101338 -127.63887024 392.44819641 C-136.71494098 382.67541485 -142.29854721 370.05947335 -142.63887024 356.76069641 C-142.68785461 355.45100891 -142.73683899 354.14132141 -142.78730774 352.79194641 C-142.26387024 349.26069641 -142.26387024 349.26069641 -140.22561646 347.06837463 C-136.53123536 344.81353855 -133.54808225 344.72395051 -129.35249329 344.80659485 C-128.18096962 344.80571869 -128.18096962 344.80571869 -126.98577881 344.80482483 C-124.41525666 344.80760207 -121.84590747 344.83867566 -119.27558899 344.87007141 C-117.48912184 344.87753511 -115.70264649 344.88322744 -113.91616821 344.88722229 C-109.2224096 344.90246849 -104.52914892 344.94174143 -99.83558655 344.98603821 C-95.04286942 345.02701287 -90.25007155 345.04523799 -85.45722961 345.06538391 C-76.05922482 345.10823676 -66.66158899 345.17647574 -57.26387024 345.26069641 C-57.2650094 344.62834619 -57.26614856 343.99599597 -57.26732224 343.34448361 C-57.33449923 305.8418744 -57.38595152 268.3392741 -57.41706623 230.83661701 C-57.42081822 226.33067853 -57.4247012 221.82474018 -57.42866516 217.31880188 C-57.42945209 216.42177456 -57.43023902 215.52474724 -57.4310498 214.60053727 C-57.44409328 200.08803992 -57.46774129 185.57557832 -57.49532863 171.06310216 C-57.52341227 156.16496295 -57.54005275 141.26684244 -57.54613572 126.36867785 C-57.55024603 117.1803966 -57.5632144 107.99221644 -57.58761964 98.80396631 C-57.60351337 92.49783498 -57.60826238 86.19175568 -57.60437437 79.88560578 C-57.60245847 76.25072161 -57.60533452 72.61601371 -57.62148666 68.98116112 C-57.63891074 65.03100148 -57.6328034 61.08106838 -57.62463379 57.13087463 C-57.63337231 55.99465329 -57.64211084 54.85843195 -57.65111417 53.68777966 C-57.56583024 38.37624353 -52.93891795 25.48436888 -42.39668274 14.26069641 C-30.26863376 2.88787392 -16.14011405 -0.04990179 0 0 Z " fill="#040404" transform="translate(142.2638702392578,52.73930358886719)"/>
<path d="M0 0 C1.48573458 -0.01560395 2.9714183 -0.03732857 4.45697021 -0.06536865 C6.5466846 -0.10106788 8.63471746 -0.10929163 10.72470093 -0.10946655 C11.93351929 -0.11768433 13.14233765 -0.1259021 14.38778687 -0.1343689 C18.11539348 0.44935294 19.28054602 1.33783199 21.49032593 4.35147095 C22.20483963 8.31377423 22.58867023 10.72563235 20.30282593 14.10928345 C18.46379438 16.01020548 16.53984869 17.67846363 14.49032593 19.35147095 C13.63309937 20.05143188 12.7758728 20.75139282 11.89266968 21.4725647 C10.01839346 22.99360179 8.14070089 24.51043746 6.25985718 26.02334595 C2.831633 28.90518179 -0.27012634 32.02467995 -3.39248657 35.2303772 C-5.38398135 37.22554632 -7.43346671 39.07900996 -9.57217407 40.91397095 C-15.03893876 45.62146276 -20.06285463 50.66359521 -24.78311157 56.11709595 C-34.46854995 67.23636534 -45.01277001 77.29481714 -56.83926392 86.09561157 C-58.5066105 87.34916767 -60.14537732 88.63273578 -61.77920532 89.92959595 C-71.75438892 97.82128847 -82.22443493 104.81971971 -93.49014282 110.75772095 C-95.80438266 111.97920847 -98.09026135 113.22963422 -100.37295532 114.50772095 C-101.79333914 115.2893147 -103.2139123 116.07056444 -104.63467407 116.85147095 C-105.26027222 117.2072522 -105.88587036 117.56303345 -106.53042603 117.92959595 C-121.74965618 126.18713623 -139.45304387 130.03788816 -156.01040649 134.67422485 C-166.99407811 137.75797151 -177.79051709 140.97985566 -188.40786743 145.16983032 C-190.78861738 146.07678268 -193.02572896 146.82374352 -195.50967407 147.35147095 C-195.6566272 148.15584595 -195.6566272 148.15584595 -195.80654907 148.97647095 C-198.01947668 160.57526394 -200.92209385 171.93714036 -204.57217407 183.16397095 C-204.81741821 183.93483032 -205.06266235 184.7056897 -205.31533813 185.49990845 C-206.53675846 189.15599392 -207.47475586 191.91723741 -210.50967407 194.35147095 C-213.94717407 194.85147095 -213.94717407 194.85147095 -217.50967407 194.35147095 C-220.00967407 192.41397095 -220.00967407 192.41397095 -221.50967407 189.35147095 C-221.55194867 183.20090115 -219.83042225 177.25291622 -218.07217407 171.41397095 C-217.81266968 170.53410522 -217.55316528 169.6542395 -217.28579712 168.74771118 C-216.69551739 166.74642842 -216.10266048 164.74590464 -215.50772095 162.7460022 C-214.60648516 159.68074232 -213.72748743 156.60993703 -212.85795593 153.53555298 C-198.45247081 102.62724385 -181.92244442 58.28381053 -133.36123657 30.99209595 C-124.35502298 26.04528248 -115.19412815 21.81624073 -105.50967407 18.35147095 C-104.63955688 18.03822876 -103.7694397 17.72498657 -102.87295532 17.4022522 C-69.49136903 5.51603934 -35.37847601 0.34659003 0 0 Z " fill="#020201" transform="translate(490.5096740722656,183.64852905273438)"/>
<path d="M0 0 C91.74 0 183.48 0 278 0 C276.02 2.97 274.04 5.94 272 9 C271.03906365 10.70496231 270.10990118 12.42941437 269.25 14.1875 C268.86328125 14.96480469 268.4765625 15.74210937 268.078125 16.54296875 C265.63899363 22.1017138 264.70456362 26.92375073 264.7253418 32.97729492 C264.72023087 33.75363785 264.71511993 34.52998077 264.70985413 35.32984924 C264.69602281 37.88013544 264.69690912 40.43014966 264.69921875 42.98046875 C264.69533002 44.75832723 264.69099499 46.53618478 264.68623352 48.31404114 C264.67878655 52.03190125 264.67905282 55.74966635 264.68432617 59.4675293 C264.69013772 64.23595781 264.673142 69.00400003 264.6499815 73.77236462 C264.63527049 77.43974588 264.63436852 81.10703332 264.63749123 84.77443886 C264.63697731 86.53314292 264.63172638 88.29185214 264.62167931 90.05052757 C264.60937461 92.50423989 264.61606864 94.95718905 264.62768555 97.41088867 C264.62004181 98.13873566 264.61239807 98.86658264 264.60452271 99.6164856 C264.63442567 102.46675595 264.66755875 104.50083815 266.27326965 106.91181946 C268.25135682 108.28387407 268.25135682 108.28387407 272 109 C272 115.27 272 121.54 272 128 C263.17552335 131.30917874 263.17552335 131.30917874 259.80078125 132.47265625 C246.03341017 137.31902812 233.04208133 143.47895933 220 150 C220 126.24 220 102.48 220 78 C209.02492188 78.05800781 198.04984375 78.11601562 186.7421875 78.17578125 C179.79686914 78.20132336 172.85158474 78.22559947 165.90625 78.24414062 C154.87781155 78.27381821 143.84956398 78.3087218 132.82128906 78.37719727 C124.78971562 78.42704219 116.75829692 78.45929336 108.72657311 78.47044247 C104.47397272 78.47695944 100.22181501 78.49226904 95.96935654 78.52865028 C91.96542871 78.56262723 87.96212524 78.57304972 83.95806694 78.56553841 C82.48990039 78.56691222 81.02171263 78.57683526 79.55367088 78.59602737 C67.08282415 78.7510439 67.08282415 78.7510439 63.12258911 75.68717957 C61 73 61 73 60.3125 69.4375 C61 66 61 66 63.13998699 63.81521988 C66.5550267 61.64773045 68.42873364 61.50588014 72.44770813 61.51898193 C73.75036118 61.51348328 75.05301422 61.50798462 76.3951416 61.50231934 C77.83154668 61.51647422 79.26794801 61.53101344 80.7043457 61.54589844 C82.22230499 61.54702716 83.74026647 61.54639256 85.25822449 61.54412842 C89.37369139 61.54298131 93.48869146 61.56648985 97.60404992 61.59442425 C101.90684149 61.61943851 106.20964389 61.62177992 110.51249695 61.62652588 C118.65810607 61.63895559 126.80350032 61.67177711 134.94901484 61.71192384 C144.22341006 61.7566417 153.49781558 61.77862862 162.77229178 61.79870558 C181.84831632 61.84050977 200.92414088 61.91086172 220 62 C219.98952637 61.11328613 219.97905273 60.22657227 219.96826172 59.31298828 C219.93387763 55.97686079 219.90895575 52.64092562 219.89013672 49.3046875 C219.88016969 47.86943564 219.86659113 46.43420358 219.84912109 44.99902344 C219.66026624 29.06856134 221.58699028 16.02992916 233 4 C233.99 3.34 234.98 2.68 236 2 C158.12 1.67 80.24 1.34 0 1 C0 0.67 0 0.34 0 0 Z " fill="#DAD1BE" transform="translate(132,68)"/>
<path d="M0 0 C97.35 0 194.7 0 295 0 C295.99 3.63 296.98 7.26 298 11 C299.10477688 13.51711971 300.28369206 16.00417432 301.5625 18.4375 C302.16191406 19.59121094 302.76132812 20.74492187 303.37890625 21.93359375 C304.18134766 23.45146484 304.18134766 23.45146484 305 25 C305.66933615 26.33199525 306.33657942 27.66504856 307 29 C271.48286446 29.06868595 235.96574058 29.12153886 200.44855228 29.15319599 C196.25419425 29.15694805 192.05983635 29.16083102 187.86547852 29.16479492 C186.6129615 29.16597532 186.6129615 29.16597532 185.33514111 29.16717956 C171.81969403 29.18022888 158.30428528 29.20388012 144.78886092 29.23145839 C130.91791764 29.25952577 117.04699442 29.27617908 103.1760239 29.28226548 C94.61881028 29.28637916 86.06170502 29.29936588 77.50452476 29.3237494 C71.63432812 29.33962304 65.76418739 29.34439668 59.89397085 29.34050413 C56.50851905 29.33858509 53.12340871 29.34314679 49.73796463 29.35761642 C46.06255033 29.3725549 42.3875986 29.36894811 38.71217346 29.36076355 C37.64892351 29.36950207 36.58567356 29.3782406 35.49020392 29.38724393 C25.38388168 29.32646839 17.46596072 26.96086402 10 20 C5.22035092 14.8671205 0 7.27245178 0 0 Z " fill="#E1D8C4" transform="translate(16,414)"/>
<path d="M0 0 C-0.4125 0.38220703 -0.825 0.76441406 -1.25 1.15820312 C-14.19855111 12.95002728 -14.19855111 12.95002728 -26.1875 25.6875 C-34.9847537 35.83817735 -44.61736804 44.71131265 -55.35498047 52.76074219 C-56.86566389 53.89879933 -58.35766343 55.06154754 -59.84765625 56.2265625 C-81.65413454 73.09514627 -105.74033373 87.52948205 -132.5625 94.4375 C-141.12956401 96.68276237 -149.65635462 98.98870818 -158.09985352 101.66577148 C-162.78649853 103.10675074 -162.78649853 103.10675074 -165 102 C-156.9653415 94.35239315 -148.72344011 87.21942724 -139.91601562 80.47900391 C-137.9028214 78.92498624 -135.9111076 77.34627445 -133.921875 75.76171875 C-116.11369207 61.6301684 -97.36997888 48.88581748 -78 37 C-77.36755371 36.60796387 -76.73510742 36.21592773 -76.08349609 35.81201172 C-10.10758859 -5.0537943 -10.10758859 -5.0537943 0 0 Z " fill="#B27745" transform="translate(479,205)"/>
<path d="M0 0 C1.02889 -0.0083016 1.02889 -0.0083016 2.07856566 -0.0167709 C4.37652217 -0.03038199 6.67339334 -0.01540689 8.97132874 -0.00050354 C10.61896222 -0.00428661 12.26659252 -0.00978656 13.91421509 -0.01687622 C18.38951279 -0.03085083 22.86442688 -0.01964659 27.33970332 -0.00316501 C32.02189235 0.01067618 36.70405889 0.00422639 41.38626099 0.0007019 C49.25061734 -0.00200122 57.11482117 0.01148328 64.97914124 0.03465271 C74.07120569 0.06125386 83.16301494 0.06301287 92.25510496 0.05126435 C100.99993272 0.04048383 109.74466817 0.04667639 118.4894886 0.06081963 C122.21147913 0.06657798 125.93340208 0.0664979 129.6553936 0.06175423 C134.0393367 0.05698084 138.42300051 0.06710107 142.80689049 0.08870888 C144.41572884 0.09427234 146.02459406 0.09474607 147.6334343 0.08975601 C149.8300699 0.08379743 152.02585326 0.09631829 154.22241211 0.11352539 C156.06604041 0.11717023 156.06604041 0.11717023 157.94691372 0.12088871 C161.48341837 0.53758073 163.37704207 1.32477728 166.17469788 3.50120544 C167.43796674 7.13310342 167.49222293 8.78677407 165.92469788 12.31370544 C164.17469788 14.50120544 164.17469788 14.50120544 161.17469788 15.50120544 C158.93916504 15.60183823 156.70070435 15.64060744 154.46292114 15.64837646 C153.43425443 15.6538915 153.43425443 15.6538915 152.38480657 15.65951794 C150.08177125 15.67055072 147.77878106 15.67439787 145.47572327 15.6782074 C143.82661801 15.68447218 142.17751416 15.69111899 140.52841187 15.69812012 C136.04499776 15.71552418 131.56159431 15.72607951 127.0781548 15.73432565 C124.27851568 15.73947536 121.47887987 15.745551 118.67924309 15.75183678 C109.92376575 15.77088422 101.16829683 15.78511827 92.41280276 15.79344875 C82.2980336 15.80323107 72.1834827 15.82957833 62.0687905 15.86994964 C54.25471751 15.90007123 46.44070725 15.91491371 38.62657732 15.91822976 C33.95723218 15.92058408 29.28812035 15.92959437 24.61883736 15.95469093 C20.22834103 15.97790869 15.83823268 15.98223048 11.44769096 15.97192955 C9.83518562 15.9714326 8.22266157 15.97779987 6.61021423 15.9914856 C4.41082651 16.0091108 2.21284556 16.00214652 0.01345825 15.98895264 C-1.21784789 15.99134099 -2.44915403 15.99372934 -3.71777248 15.99619007 C-7.43489012 15.40410687 -8.62132565 14.50831588 -10.82530212 11.50120544 C-11.37627685 7.64438236 -11.56266009 5.50634444 -9.22063351 2.31378078 C-6.01033844 -0.11548713 -4.00611393 0.00068235 0 0 Z " fill="#000000" transform="translate(143.82530212402344,206.49879455566406)"/>
<path d="M0 0 C0.66636333 -0.0055344 1.33272666 -0.01106879 2.01928282 -0.0167709 C4.24504979 -0.0303497 6.46968994 -0.01542474 8.69543457 -0.00050354 C10.29395524 -0.00428776 11.89247262 -0.00978865 13.49098206 -0.01687622 C17.82779977 -0.03083483 22.16422093 -0.01965832 26.50101662 -0.00316501 C31.04039443 0.01068865 35.5797493 0.00422505 40.11914062 0.0007019 C47.74213041 -0.00199997 55.36496272 0.0114734 62.98791504 0.03465271 C71.79996042 0.06126232 80.61174251 0.06300947 89.4238143 0.05126435 C97.90221111 0.0404835 106.38051272 0.04667604 114.85890198 0.06081963 C118.46645865 0.06657677 122.0739456 0.06649888 125.6815033 0.06175423 C129.93003515 0.05698036 134.17827886 0.06710301 138.42675591 0.08870888 C139.98560553 0.09427135 141.54448287 0.09474698 143.10333443 0.08975601 C145.23205069 0.08379545 147.35988825 0.09632178 149.48852539 0.11352539 C151.27489788 0.11717023 151.27489788 0.11717023 153.0973587 0.12088871 C156.86138255 0.575787 159.54374586 1.80068861 162.2442627 4.50120544 C162.82873837 10.69664757 162.82873837 10.69664757 160.64698792 13.69992828 C157.4474322 16.09857403 155.46832288 16.00420074 151.48815918 16.00914001 C150.80969405 16.01537998 150.13122892 16.02161994 149.43220425 16.02804899 C147.15956776 16.0439996 144.88800081 16.03136779 142.61535645 16.01878357 C140.98580296 16.02420381 139.35625437 16.03132592 137.72671509 16.0400238 C133.30108266 16.05827187 128.87582288 16.0511836 124.45018387 16.03850746 C119.82090493 16.02838744 115.19165811 16.03777036 110.56237793 16.04405212 C102.78798691 16.05133145 95.01374784 16.04173338 87.23937988 16.02268982 C78.24835884 16.0009205 69.2577006 16.00797168 60.26668835 16.02999544 C52.55022925 16.04814135 44.83387943 16.05071174 37.11740589 16.04024076 C32.50735845 16.03400137 27.89748159 16.03318242 23.28744507 16.04638672 C18.95351027 16.05793287 14.62004368 16.04994237 10.28615952 16.02680969 C8.69463758 16.02151595 7.10307631 16.02304777 5.51156998 16.03186035 C3.34063498 16.04277401 1.171205 16.0291056 -0.99963379 16.00914001 C-2.82252174 16.00687786 -2.82252174 16.00687786 -4.68223572 16.00457001 C-8.37243341 15.40020567 -9.55745905 14.4819508 -11.7557373 11.50120544 C-12.3182373 8.00120544 -12.3182373 8.00120544 -11.7557373 4.50120544 C-7.99634974 0.60926127 -5.32079434 0.00093504 0 0 Z " fill="#040404" transform="translate(204.7557373046875,129.49879455566406)"/>
<path d="M0 0 C1.12557312 -0.00700928 2.25114624 -0.01401855 3.41082764 -0.02124023 C7.13611428 -0.03886347 10.86064296 -0.02718133 14.5859375 -0.01367188 C17.17138821 -0.01636552 19.75683792 -0.02024688 22.34228516 -0.02526855 C27.76280283 -0.03116952 33.18303496 -0.022962 38.60351562 -0.00390625 C44.86801188 0.0178625 51.13198739 0.01081098 57.39647102 -0.01121187 C63.42574377 -0.03155849 69.45476196 -0.02939558 75.48406982 -0.01768494 C78.04856438 -0.01501312 80.61307219 -0.01830329 83.17755127 -0.02760315 C86.75935266 -0.03774109 90.34014866 -0.02230447 93.921875 0 C94.98589539 -0.00809692 96.04991577 -0.01619385 97.1461792 -0.02453613 C104.28473442 0.057982 104.28473442 0.057982 107.62353516 2.32727051 C109.57850161 5.52898308 109.42792627 7.84838065 108.9609375 11.51757812 C107.12978543 14.13350965 106.05125384 14.48747268 102.9609375 15.51757812 C101.42422117 15.61487321 99.88367518 15.65676388 98.34390259 15.66474915 C97.39620499 15.67190445 96.44850739 15.67905975 95.47209167 15.68643188 C94.43409927 15.68912079 93.39610687 15.69180969 92.32666016 15.69458008 C90.68482002 15.70443687 90.68482002 15.70443687 89.0098114 15.7144928 C85.38154027 15.73423158 81.7533105 15.74588835 78.125 15.75585938 C76.88731243 15.7599349 75.64962486 15.76401043 74.37443161 15.76820946 C68.50167238 15.78691923 62.62892944 15.80148616 56.75614607 15.80982143 C49.98065822 15.81959732 43.20549676 15.84592945 36.43012393 15.88632232 C30.55843394 15.92012494 24.68685348 15.93196659 18.81507492 15.93602562 C16.31837116 15.94090499 13.82167122 15.9525571 11.32503128 15.97106361 C7.83442223 15.99533426 4.34467098 15.99451195 0.85400391 15.98754883 C-0.17994003 16.00035889 -1.21388397 16.01316895 -2.27915955 16.02636719 C-6.67114549 15.9943773 -9.32242383 15.93007103 -13.1847229 13.70695496 C-15.0390625 11.51757812 -15.0390625 11.51757812 -15.6015625 8.01757812 C-15.0390625 4.51757812 -15.0390625 4.51757812 -13.69384766 2.33117676 C-9.42153803 -0.58742284 -5.05536826 -0.03847006 0 0 Z " fill="#050505" transform="translate(148.0390625,283.482421875)"/>
<path d="M0 0 C-2.78698606 2.18943262 -5.5859965 3.93658936 -8.7265625 5.57421875 C-9.66282471 6.06857422 -10.59908691 6.56292969 -11.5637207 7.07226562 C-12.57394287 7.60529297 -13.58416504 8.13832031 -14.625 8.6875 C-34.87689845 19.5280676 -54.23448744 31.76594433 -73 45 C-74.22651185 45.85684334 -75.45307176 46.71361789 -76.6796875 47.5703125 C-93.53354731 59.41260879 -109.81942335 72.07075071 -125 86 C-125.66 85.67 -126.32 85.34 -127 85 C-110.60430774 48.10237029 -84.16560287 25.80253605 -46.96484375 11.4375 C-13.89209622 -0.71951096 -13.89209622 -0.71951096 0 0 Z " fill="#D79C61" transform="translate(436,205)"/>
<path d="M0 0 C3.05759887 1.79306687 5.18633947 3.66125023 7.41796875 6.41796875 C7.918125 6.95421875 8.41828125 7.49046875 8.93359375 8.04296875 C13.91487023 13.45950239 16.41796875 17.84108247 16.41796875 25.41796875 C-6.02203125 25.41796875 -28.46203125 25.41796875 -51.58203125 25.41796875 C-49.06084272 15.33321464 -45.41191901 7.31071811 -36.58203125 1.41796875 C-24.95250509 -5.25506194 -12.1612193 -5.85904897 0 0 Z " fill="#E0D7C3" transform="translate(462.58203125,72.58203125)"/>
<path d="M0 0 C1.20336754 -0.01292336 1.20336754 -0.01292336 2.43104553 -0.02610779 C5.0748041 -0.04875409 7.7175016 -0.04203214 10.36132812 -0.03295898 C12.20308751 -0.03819489 14.04484421 -0.04447126 15.88659668 -0.05174255 C19.74337396 -0.06214405 23.59978222 -0.05758851 27.45654297 -0.04296875 C32.39659718 -0.02577445 37.33548899 -0.04928513 42.27541351 -0.08445835 C46.07761325 -0.10642761 49.87953458 -0.10499216 53.68177795 -0.09669304 C55.50302913 -0.09587339 57.32430072 -0.10273945 59.14549255 -0.11746407 C61.69277249 -0.13490344 64.23796017 -0.12037495 66.78515625 -0.09765625 C67.53543594 -0.10934845 68.28571564 -0.12104065 69.05873108 -0.13308716 C72.99468435 -0.061735 74.73797719 0.41128614 77.86413574 2.88148499 C79.89257812 5.53344727 79.89257812 5.53344727 80.45507812 8.59594727 C79.74427386 12.30792509 78.91298754 13.27904381 75.89257812 15.53344727 C73.03268307 15.9280758 70.55787716 16.08092452 67.69921875 16.05102539 C66.4644001 16.06153931 66.4644001 16.06153931 65.20463562 16.07226562 C62.48568916 16.08985917 59.76778502 16.07821837 57.04882812 16.06469727 C55.15840454 16.0673918 53.26798231 16.07127389 51.37756348 16.07629395 C47.416451 16.08219083 43.45569942 16.07361994 39.49462891 16.05493164 C34.41670251 16.03214196 29.33962175 16.04526403 24.26172638 16.0692215 C20.35835394 16.08367435 16.45518206 16.07907584 12.55180359 16.06871033 C10.67949829 16.06604162 8.8071748 16.06931785 6.93489075 16.07862854 C4.31808227 16.08878577 1.7026439 16.07330545 -0.9140625 16.05102539 C-1.68820999 16.05912231 -2.46235748 16.06721924 -3.25996399 16.07556152 C-6.73693655 16.02070539 -8.74374075 15.79973333 -11.58435059 13.71984863 C-13.83684677 10.48634225 -13.72440573 8.37245792 -13.10742188 4.53344727 C-9.16740983 0.28854486 -5.51721579 -0.04798835 0 0 Z " fill="#060505" transform="translate(146.107421875,359.466552734375)"/>
<path d="M0 0 C1.35206312 -0.01655985 2.70403867 -0.04385159 4.05566406 -0.08203125 C6.01378852 -0.13698106 7.97282592 -0.15556834 9.93164062 -0.17333984 C11.10130371 -0.19315918 12.2709668 -0.21297852 13.47607422 -0.23339844 C17.61090028 0.52479048 19.07623445 2.10400681 21.65820312 5.35009766 C22.22070312 8.41259766 22.22070312 8.41259766 21.65820312 11.35009766 C19.37553631 14.45283366 18.18027283 15.26890724 14.33007812 15.86767578 C12.38875 15.87444336 12.38875 15.87444336 10.40820312 15.88134766 C9.71307617 15.88517456 9.01794922 15.88900146 8.30175781 15.89294434 C6.83592272 15.89565945 5.37003885 15.88832601 3.90429688 15.87158203 C1.66491338 15.85016184 -0.57126274 15.87139208 -2.81054688 15.89697266 C-4.23763726 15.8943293 -5.66472566 15.88920416 -7.09179688 15.88134766 C-8.38601562 15.87683594 -9.68023437 15.87232422 -11.01367188 15.86767578 C-14.34179688 15.35009766 -14.34179688 15.35009766 -16.76757812 13.53955078 C-19.04267162 10.37530785 -18.82500604 8.1467411 -18.34179688 4.35009766 C-14.31096196 -1.40823794 -6.23783632 0.05596507 0 0 Z " fill="#060605" transform="translate(151.341796875,129.64990234375)"/>
</svg>
